<svg id="Untitled" xmlns="http://www.w3.org/2000/svg" width="1500" height="1500" viewBox="0 0 1500 1500">
  <path id="Path_125" data-name="Path 125" d="M0,0H1500V1500H0Z" fill="#cc6843" fill-rule="evenodd"/>
  <path id="Path_126" data-name="Path 126" d="M1277.84,714.177c0,291.512-236.32,527.833-527.836,527.833S222.163,1005.689,222.163,714.173,458.481,186.342,750,186.34s527.848,236.325,527.844,527.844Z" fill="#af5939" fill-rule="evenodd"/>
  <path id="Path_127" data-name="Path 127" d="M750,351.323c200.4,0,362.854,162.458,362.854,362.855S950.4,1077.03,750,1077.03,387.15,914.578,387.15,714.18,549.6,351.323,750,351.323Z" fill="#89462d" fill-rule="evenodd"/>
  <path id="Path_128" data-name="Path 128" d="M804.991,405.5h44.3" fill="none" stroke="#250c03" stroke-linecap="round" stroke-linejoin="round" stroke-miterlimit="22.926" stroke-width="2.835" fill-rule="evenodd"/>
  <path id="Path_129" data-name="Path 129" d="M783.15,405.5H771.885" fill="none" stroke="#250c03" stroke-linecap="round" stroke-linejoin="round" stroke-miterlimit="22.926" stroke-width="2.835" fill-rule="evenodd"/>
  <path id="Path_130" data-name="Path 130" d="M615.267,297.537H722.728" fill="none" stroke="#250c03" stroke-linecap="round" stroke-linejoin="round" stroke-miterlimit="22.926" stroke-width="2.835" fill-rule="evenodd"/>
  <path id="Path_131" data-name="Path 131" d="M593.427,297.537H582.161" fill="none" stroke="#250c03" stroke-linecap="round" stroke-linejoin="round" stroke-miterlimit="22.926" stroke-width="2.835" fill-rule="evenodd"/>
  <path id="Path_132" data-name="Path 132" d="M213.572,776.865A14.138,14.138,0,1,1,199.434,791,14.138,14.138,0,0,1,213.572,776.865Z" fill="none" stroke="#250c03" stroke-linecap="round" stroke-linejoin="round" stroke-miterlimit="22.926" stroke-width="2.835" fill-rule="evenodd"/>
  <path id="Path_133" data-name="Path 133" d="M368.664,284.94a14.141,14.141,0,1,1-14.138,14.138A14.136,14.136,0,0,1,368.664,284.94Z" fill="none" stroke="#250c03" stroke-linecap="round" stroke-linejoin="round" stroke-miterlimit="22.926" stroke-width="2.835" fill-rule="evenodd"/>
  <path id="Path_134" data-name="Path 134" d="M1082.4,390.071a14.141,14.141,0,1,1-14.138,14.139A14.137,14.137,0,0,1,1082.4,390.071Z" fill="none" stroke="#250c03" stroke-linecap="round" stroke-linejoin="round" stroke-miterlimit="22.926" stroke-width="2.835" fill-rule="evenodd"/>
  <path id="Path_135" data-name="Path 135" d="M326.25,560.18A15.554,15.554,0,1,1,310.7,544.626,15.554,15.554,0,0,1,326.25,560.18Z" fill="none" stroke="#250c03" stroke-linecap="round" stroke-linejoin="round" stroke-miterlimit="22.926" stroke-width="2.835" fill-rule="evenodd"/>
  <path id="Path_136" data-name="Path 136" d="M246.125,421.385V467.1" fill="none" stroke="#250c03" stroke-linecap="round" stroke-linejoin="round" stroke-miterlimit="22.926" stroke-width="2.835" fill-rule="evenodd"/>
  <path id="Path_137" data-name="Path 137" d="M268.984,444.239H223.267" fill="none" stroke="#250c03" stroke-linecap="round" stroke-linejoin="round" stroke-miterlimit="22.926" stroke-width="2.835" fill-rule="evenodd"/>
  <path id="Path_138" data-name="Path 138" d="M953.615,280.848v45.718" fill="none" stroke="#250c03" stroke-linecap="round" stroke-linejoin="round" stroke-miterlimit="22.926" stroke-width="2.835" fill-rule="evenodd"/>
  <path id="Path_139" data-name="Path 139" d="M976.475,303.708H930.758" fill="none" stroke="#250c03" stroke-linecap="round" stroke-linejoin="round" stroke-miterlimit="22.926" stroke-width="2.835" fill-rule="evenodd"/>
  <path id="Path_140" data-name="Path 140" d="M1221.11,515.11l-32.33,32.323" fill="none" stroke="#250c03" stroke-linecap="round" stroke-linejoin="round" stroke-miterlimit="22.926" stroke-width="2.835" fill-rule="evenodd"/>
  <path id="Path_141" data-name="Path 141" d="M1221.11,547.438l-32.33-32.328" fill="none" stroke="#250c03" stroke-linecap="round" stroke-linejoin="round" stroke-miterlimit="22.926" stroke-width="2.835" fill-rule="evenodd"/>
  <path id="Path_142" data-name="Path 142" d="M514.051,359.5v45.718" fill="none" stroke="#250c03" stroke-linecap="round" stroke-linejoin="round" stroke-miterlimit="22.926" stroke-width="2.835" fill-rule="evenodd"/>
  <path id="Path_143" data-name="Path 143" d="M536.915,382.36H491.2" fill="none" stroke="#250c03" stroke-linecap="round" stroke-linejoin="round" stroke-miterlimit="22.926" stroke-width="2.835" fill-rule="evenodd"/>
  <path id="Path_144" data-name="Path 144" d="M1135.61,927.834a14.139,14.139,0,1,1-14.138,14.14A14.137,14.137,0,0,1,1135.61,927.834Z" fill="none" stroke="#250c03" stroke-linecap="round" stroke-linejoin="round" stroke-miterlimit="22.926" stroke-width="2.835" fill-rule="evenodd"/>
  <path id="Path_145" data-name="Path 145" d="M1055.2,994.67h-44.3" fill="none" stroke="#250c03" stroke-linecap="round" stroke-linejoin="round" stroke-miterlimit="22.926" stroke-width="2.835" fill-rule="evenodd"/>
  <path id="Path_146" data-name="Path 146" d="M1077.04,994.67h11.27" fill="none" stroke="#250c03" stroke-linecap="round" stroke-linejoin="round" stroke-miterlimit="22.926" stroke-width="2.835" fill-rule="evenodd"/>
  <path id="Path_147" data-name="Path 147" d="M1216.26,696.852A14.141,14.141,0,1,1,1202.121,711,14.137,14.137,0,0,1,1216.26,696.852Z" fill="none" stroke="#250c03" stroke-linecap="round" stroke-linejoin="round" stroke-miterlimit="22.926" stroke-width="2.835" fill-rule="evenodd"/>
  <path id="Path_148" data-name="Path 148" d="M189.775,1009.88c.426-3.847.873-7.844,2.585-11.277a15.338,15.338,0,0,1,7.506-7.139c3.183-1.467,6.3-1.422,9.649-.874q3.05-.452,6.11-.724c.266-1.154.6-2.293.868-3.379.909-3.68,2.014-7.295,3.073-10.924,1.943-6.6,3.886-13.2,5.88-19.786q6.138-20.242,12.411-40.437c.175-.552.346-1.115.522-1.673a4.272,4.272,0,0,1,1.029-3.323q11.6-37.411,23.286-74.792,25.032-79.993,50.125-159.972c8.876-28.146,17.4-56.537,27.608-84.11.156-.647.321-1.291.5-1.923a85.447,85.447,0,0,1,5.573-14.625c4.423-8.967,10.975-16.684,19.334-20.9,17.04-8.57,37.123-3.725,48.57,13.279a47.478,47.478,0,0,1,6.943,16.2l.03.061c1.4,3.364,2.521,6.868,3.69,10.337,2.35,6.939,4.534,13.953,6.793,20.936,4.413,13.616,8.575,27.348,12.772,41.049q12.66,41.344,25.535,82.608,25.582,82.044,52,163.753,7.386,22.848,14.795,45.7c4.343,13.435,9.062,26.839,12.717,40.565a87.969,87.969,0,0,1,9.831,1.312c.206-.036.412-.07.618-.1a25.014,25.014,0,0,1,12.1,1.446c7.46,2.942,12.762,9.419,14.73,18.094,1.711,7.558,2.254,18.678-2.8,24.792a14.751,14.751,0,0,1-10.639,5.092,19.382,19.382,0,0,1-6.392-.748,19.957,19.957,0,0,1-2.977-1.029q-1.513.092-3.028.191c-6.295.421-12.591.742-18.887,1.033-12.281.572-24.561.834-36.846.9-24.877.165-49.75.141-74.626.141H282.452c-13.822,0-27.639,0-41.456-.252-7.074-.13-14.133-.311-21.192-.808-5.8-.417-11.633-.623-17.406-1.36a7.365,7.365,0,0,1-3.489.09,10.906,10.906,0,0,1-7.059-5.271C188.183,1026.09,189.021,1016.66,189.775,1009.88Z" fill="#250c03" fill-rule="evenodd"/>
  <path id="Path_149" data-name="Path 149" d="M236.391,1027.59h0c12.281-.266,24.566-.352,36.851-.352h74.622c49.438,0,98.881-.24,148.319.075,13.822.091,27.648.1,41.455.753q10.6.489,21.192,1.1,1.671.1,3.349.185l.1-.09c2.706-2.054,6.833-.1,9.93-.121,1.978-.009,4.444-.572,5.644-2.564,1.244-2.074,1.089-5.3,1.079-7.673a31.211,31.211,0,0,0-1.1-8.418,14.028,14.028,0,0,0-10.147-10.147c-2.8-.777-5.583-.647-8.425-.979a21.972,21.972,0,0,0-2.947-.11c-2.194.325-4.4.562-6.622.742-1.591,1.437-3.926,1.828-5.508.312-4.77.182-9.539.156-14.208.156q-17.539-.008-35.079-.01c-23.235-.006-46.471.125-69.7-.035q-69.932-.483-139.859-.773-19.385-.077-38.774-.281c-9.1-.091-18.33.18-27.473-.417a2.926,2.926,0,0,1-.683,1.019c-2.173,2.09-4.021,1.537-6.632,1.155a15.724,15.724,0,0,0-6.315.156,7.892,7.892,0,0,0-3.911,1.812c-1.426,1.387-1.752,3.745-2.114,5.714a55.355,55.355,0,0,0-1.015,15.143c.176,1.736.588,3.755,1.758,4.98a3.129,3.129,0,0,0,1.35.854c5.3-.729,10.639-.939,15.976-1.316Q226.947,1027.8,236.391,1027.59Z" fill="#f05146" fill-rule="evenodd"/>
  <path id="Path_150" data-name="Path 150" d="M292.948,783.13a2.611,2.611,0,0,1,.6-1.562c2.033-2.263,4.5-3.357,7.049-4.723s5.116-2.752,7.666-4.157c5.1-2.793,10.192-5.6,15.208-8.576Q338.7,755.076,353.6,745.35c19.73-12.872,38.98-26.684,57.817-41.178,9.846-7.571,19.821-15.042,29.481-22.909q-1.664-5.422-3.333-10.835-7.056-22.991-13.872-46.069c-2.109-7.124-4.112-14.289-6.125-21.453-1.14,1.12-2.294,2.205-3.4,3.294-3.113,3.082-6.261,6.115-9.5,9.027q-9.474,8.524-19.349,16.422a484.253,484.253,0,0,1-41.711,29.767q-6.146,3.907-12.4,7.586c-2.35,1.386-4.885,3.233-7.5,4.569q-11.809,38.2-23.712,76.364l-10.87,34.9,3.823-1.708Zm178.272-4.307q8.751,27.848,17.577,55.653,6.153,19.362,12.361,38.7c-4.7,3.489-9.263,7.254-13.907,10.828-6.683,5.143-13.366,10.283-20.133,15.283q-36.035,26.66-74.2,49.443-19.234,11.493-38.945,21.915-9.669,5.1-19.45,9.926c-5.623,2.781-11.527,5.167-17.08,8.174q-20.205.091-40.416.165c-11.693.051-23.386.187-35.079.307-5.839.056-11.723-.02-17.587.161.141-.4.281-.788.422-1.17,1.36-3.59,2.49-7.29,3.705-10.939q3.728-11.268,7.361-22.563,6.506-20.235,12.847-40.536c16.292-6.536,32.282-14.289,48.088-22.111a907.179,907.179,0,0,0,92.434-52.766q22.548-14.672,44.378-30.718,10.821-7.959,21.4-16.326c5.446-4.3,11.159-8.484,16.22-13.425Z" fill="#f05146" fill-rule="evenodd"/>
  <path id="Path_151" data-name="Path 151" d="M409.974,705.276l1.441-1.1c9.846-7.571,19.821-15.042,29.481-22.909q-1.664-5.422-3.333-10.835-7.056-22.991-13.872-46.069c-2.109-7.124-4.112-14.289-6.125-21.453-1.14,1.12-2.294,2.205-3.4,3.294-3.113,3.082-6.261,6.115-9.5,9.027q-7.328,6.59-14.886,12.812c7.334,24.054,14.293,49.99,20.192,77.237Zm15.955,108.872c2.737,38.178,2.285,77.2-2.867,115.756q22.4-14.612,44.056-30.617c6.768-5,13.451-10.141,20.133-15.283,4.644-3.574,9.2-7.339,13.907-10.828q-6.2-19.341-12.361-38.7-8.834-27.813-17.577-55.653h0c-5.061,4.94-10.774,9.127-16.222,13.425q-10.6,8.344-21.4,16.326Q429.77,811.386,425.929,814.148Z" fill="#c5352d" fill-rule="evenodd"/>
  <path id="Path_152" data-name="Path 152" d="M409.166,575.172h0c-4.228-6.311-10.126-11.136-16.92-13.129a29.86,29.86,0,0,0-20.931,1.787c-6.808,3.168-11.969,9.1-15.589,16.252a97.588,97.588,0,0,0-5.171,13.34c-.838,2.505-1.722,5.041-2.7,7.48-.482,1.206-1.009,2.47-1.6,3.615a28.322,28.322,0,0,1-2.3,3.067,2.677,2.677,0,0,1-.481.537c-5.383,19.436-11.457,38.649-17.417,57.858.577-.3,1.14-.6,1.671-.918q5.332-3.141,10.6-6.427,10.717-6.664,21.137-13.917c13.766-9.589,27.076-20,40.029-30.947,3.529-2.982,7.044-6,10.563-9.007,2.124-1.813,4.218-3.9,6.4-5.8-.949-3.354-1.882-6.728-2.635-10.132-.5-2.254-.789-4.544-1.07-6.833a38.536,38.536,0,0,0-3.589-6.827Zm119.369,382.37h0q-6.724-20.387-13.344-40.8-6.408-19.8-12.762-39.613c-3.254,2.952-6.638,5.738-9.982,8.529-5.843,4.875-11.768,9.6-17.757,14.248q-17.938,13.926-36.47,26.837a820.823,820.823,0,0,1-76.339,47.072q-11.107,6.055-22.361,11.779c-1.964,1-3.942,2.043-5.924,3.092q6.559-.03,13.133-.056c46.622-.19,93.238-.542,139.859-.551q19.385-.009,38.774-.016c4.449,0,8.977-.061,13.525-.006-3.745-10.034-7-20.336-10.352-30.513ZM441.714,683.919q14.1,45.832,28.462,91.565c-7.059,4.464-13.615,10.146-20.338,15.146q-12.162,9.062-24.521,17.774a932.077,932.077,0,0,1-89.644,55.863c-15.5,8.47-31.173,16.523-47.053,24.038-12.21,5.785-24.586,11.042-36.941,16.383q18.609-59.176,37.006-118.446l4.384-1.957a1.981,1.981,0,0,0,2.088,1.677c3.344-.457,6.09-2.291,9.067-4.007q4.149-2.4,8.279-4.851c5.764-3.414,11.492-6.918,17.215-10.408q30.275-18.449,59.173-39.617,14.264-10.437,28.1-21.608c8.5-6.867,16.579-14.208,24.728-21.552Z" fill="#fff" fill-rule="evenodd"/>
  <path id="Path_153" data-name="Path 153" d="M409.166,575.172h0c-4.228-6.311-10.126-11.136-16.92-13.129a29.86,29.86,0,0,0-20.931,1.787,27.337,27.337,0,0,0-2.806,1.517c6.531,17.466,13.265,36.826,19.746,57.707q5.672-4.57,11.241-9.283c3.529-2.982,7.044-6,10.563-9.007,2.124-1.813,4.218-3.9,6.4-5.8-.949-3.354-1.882-6.728-2.635-10.132-.5-2.254-.789-4.544-1.07-6.833a38.508,38.508,0,0,0-3.589-6.828Zm1.857,135.064a780.327,780.327,0,0,1,14.484,98.037q12.261-8.646,24.331-17.643c6.723-5,13.279-10.683,20.338-15.146q-14.354-45.727-28.462-91.565h0c-8.148,7.344-16.227,14.685-24.727,21.553q-2.975,2.394-5.964,4.764Zm10.865,227.579a442.159,442.159,0,0,1-10.6,50.5q37.654-.187,75.3-.235,19.385-.009,38.774-.016c4.449,0,8.977-.061,13.525-.006-3.746-10.035-7-20.338-10.353-30.515h0q-6.724-20.387-13.344-40.8-6.408-19.8-12.762-39.613c-3.254,2.952-6.638,5.738-9.982,8.529-5.843,4.875-11.768,9.6-17.757,14.248q-17.938,13.926-36.47,26.837Q430.116,932.389,421.888,937.815Z" fill="#d9c9cb" fill-rule="evenodd"/>
  <path id="Path_154" data-name="Path 154" d="M189.775,1009.88c.421-3.847.873-7.844,2.585-11.277a15.381,15.381,0,0,1,7.506-7.139c3.178-1.467,6.3-1.416,9.649-.874q3.05-.452,6.11-.724c.266-1.154.6-2.293.868-3.379.909-3.685,2.014-7.295,3.078-10.929,1.938-6.6,3.881-13.194,5.875-19.781q6.138-20.242,12.411-40.437c.171-.557.346-1.115.517-1.673a4.314,4.314,0,0,1,1.034-3.323q11.6-37.411,23.286-74.792,25.032-79.993,50.125-159.972c8.876-28.146,17.4-56.537,27.614-84.11.15-.647.316-1.285.5-1.923a86.078,86.078,0,0,1,5.573-14.63c4.423-8.961,10.975-16.684,19.334-20.891,17.04-8.57,37.127-3.725,48.564,13.279a47.388,47.388,0,0,1,6.948,16.2.315.315,0,0,1,.025.061c1.4,3.364,2.52,6.868,3.7,10.337,2.35,6.939,4.534,13.958,6.793,20.936,4.413,13.616,8.575,27.348,12.772,41.049q12.66,41.344,25.53,82.608,25.59,82.044,52,163.748,7.386,22.855,14.795,45.7c4.338,13.435,9.062,26.844,12.717,40.565a87.06,87.06,0,0,1,9.831,1.316c.206-.041.412-.075.623-.1a25.006,25.006,0,0,1,12.1,1.446c7.46,2.942,12.762,9.419,14.73,18.094,1.711,7.552,2.259,18.678-2.8,24.792a14.751,14.751,0,0,1-10.639,5.092,19.3,19.3,0,0,1-6.4-.748,20.689,20.689,0,0,1-2.972-1.029c-1.009.061-2.019.121-3.028.191-6.295.421-12.591.742-18.887,1.033-12.281.572-24.561.828-36.851.909-24.873.16-49.745.136-74.622.136H282.452c-13.822,0-27.639,0-41.456-.252-7.074-.13-14.133-.306-21.192-.808-5.8-.417-11.633-.617-17.406-1.36a7.365,7.365,0,0,1-3.489.09,10.906,10.906,0,0,1-7.059-5.271c-3.667-5.937-2.829-15.377-2.075-22.157ZM409.166,575.172h0c-4.223-6.311-10.126-11.136-16.92-13.129a29.835,29.835,0,0,0-20.931,1.787c-6.808,3.168-11.969,9.1-15.589,16.252a97.609,97.609,0,0,0-5.176,13.34c-.833,2.505-1.717,5.041-2.691,7.48-.482,1.206-1.009,2.47-1.6,3.615a28.92,28.92,0,0,1-2.3,3.067,2.677,2.677,0,0,1-.481.537c-5.383,19.436-11.457,38.649-17.417,57.858.577-.3,1.14-.608,1.671-.918q5.332-3.141,10.6-6.427,10.717-6.664,21.137-13.917c13.766-9.589,27.076-20,40.024-30.942,3.535-2.987,7.049-6,10.568-9.012,2.124-1.813,4.218-3.9,6.4-5.8-.949-3.354-1.882-6.723-2.635-10.132-.5-2.254-.789-4.544-1.075-6.833a38.182,38.182,0,0,0-3.584-6.827Zm32.548,108.747h0c-8.148,7.34-16.227,14.69-24.727,21.548q-13.834,11.168-28.1,21.619-28.875,21.14-59.173,39.611c-5.723,3.49-11.452,6.99-17.21,10.408q-4.135,2.448-8.289,4.851c-2.978,1.716-5.719,3.55-9.063,4.007-2.023.28-2.9-2.953-1.606-4.4,2.033-2.263,4.493-3.363,7.049-4.723q3.842-2.066,7.666-4.157c5.1-2.793,10.192-5.6,15.208-8.581q15.228-9.03,30.124-18.757c19.73-12.872,38.98-26.684,57.817-41.178,9.84-7.571,19.821-15.042,29.486-22.909q-1.672-5.422-3.339-10.835-7.056-22.991-13.872-46.069c-2.109-7.124-4.112-14.289-6.125-21.453-1.14,1.12-2.294,2.205-3.4,3.294-3.113,3.082-6.261,6.115-9.5,9.027q-9.474,8.517-19.349,16.422A483.551,483.551,0,0,1,343.6,661.416q-6.146,3.907-12.4,7.586c-2.35,1.386-4.885,3.233-7.5,4.569q-11.809,38.2-23.712,76.364-24.115,77.4-48.313,154.755c12.355-5.341,24.731-10.6,36.941-16.377q23.82-11.281,47.053-24.048a933.019,933.019,0,0,0,89.649-55.855q12.357-8.712,24.515-17.778c6.723-5,13.279-10.683,20.338-15.146q-14.364-45.729-28.463-91.567Zm29.512,94.9h0c-5.066,4.94-10.779,9.127-16.227,13.425q-10.6,8.344-21.408,16.326-21.81,16.043-44.373,30.718a908.207,908.207,0,0,1-92.434,52.766c-15.806,7.822-31.8,15.575-48.088,22.111q-6.378,20.289-12.847,40.536-3.63,11.3-7.361,22.563c-1.21,3.649-2.345,7.35-3.705,10.939q-.212.573-.422,1.17c5.869-.176,11.748-.1,17.587-.165,11.693-.116,23.386-.252,35.079-.3q20.205-.091,40.416-.166c5.553-3.012,11.457-5.4,17.08-8.179q9.775-4.82,19.445-9.931,19.709-10.407,38.95-21.91,38.068-22.758,74.2-49.443c6.768-5,13.445-10.146,20.133-15.283,4.644-3.574,9.2-7.339,13.912-10.823q-6.205-19.347-12.366-38.7-8.84-27.806-17.57-55.653Zm57.3,178.719h0q-6.719-20.387-13.339-40.8-6.408-19.8-12.762-39.613c-3.254,2.952-6.638,5.738-9.982,8.529-5.843,4.875-11.773,9.6-17.757,14.248q-17.938,13.926-36.47,26.837a820.823,820.823,0,0,1-76.339,47.072q-11.107,6.055-22.361,11.779c-1.964,1-3.942,2.048-5.924,3.092q6.566-.03,13.133-.056c46.622-.2,93.238-.542,139.859-.557q19.385,0,38.774-.005c4.449-.005,8.977-.065,13.525-.011-3.745-10.034-7-20.336-10.357-30.513ZM236.391,1027.59h0c12.281-.266,24.566-.352,36.851-.352h74.622c49.438,0,98.881-.24,148.325.075,13.816.091,27.643.1,41.455.753q10.6.489,21.188,1.1,1.671.1,3.349.185l.1-.09c2.706-2.048,6.833-.1,9.93-.121,1.978-.009,4.444-.572,5.644-2.569,1.244-2.069,1.094-5.292,1.079-7.668a31.609,31.609,0,0,0-1.1-8.418,14.034,14.034,0,0,0-10.152-10.147c-2.8-.777-5.583-.647-8.419-.983a22.069,22.069,0,0,0-2.952-.1c-2.194.325-4.4.562-6.622.742-1.591,1.437-3.926,1.828-5.508.312-4.77.182-9.539.156-14.208.156q-17.539-.008-35.079-.005c-23.235-.011-46.471.12-69.7-.04q-69.932-.483-139.859-.77-19.385-.082-38.774-.285c-9.1-.091-18.33.18-27.473-.417a2.963,2.963,0,0,1-.683,1.019c-2.173,2.09-4.021,1.537-6.632,1.155a15.831,15.831,0,0,0-6.315.156,7.892,7.892,0,0,0-3.911,1.812c-1.426,1.387-1.752,3.745-2.114,5.714a55.368,55.368,0,0,0-1.015,15.143c.181,1.736.588,3.755,1.758,4.98a3.058,3.058,0,0,0,1.35.848c5.3-.723,10.639-.934,15.976-1.311Q226.946,1027.8,236.391,1027.59Z" fill="#250c03" fill-rule="evenodd"/>
  <path id="Path_155" data-name="Path 155" d="M568.374,1018.07c.512-.473,1.049-.92,1.572-1.376.592-.522,1.25-.873,1.852-1.366a1.489,1.489,0,0,1,2.094.472,2.054,2.054,0,0,1-.125,2.41c-.407.593-.7,1.28-1.141,1.867s-.833,1.165-1.275,1.718a14.06,14.06,0,0,1-3.037,3.032c-1.768,1.194-4.057-1.234-2.888-3.264A14.6,14.6,0,0,1,568.374,1018.07Z" fill="#250c03" fill-rule="evenodd"/>
  <path id="Path_156" data-name="Path 156" d="M558.6,1013.43c3.61-3.048,7.234-6.065,10.854-9.1,2.31-1.938,5.357,2.49,3.093,4.538-3.515,3.184-7.019,6.387-10.539,9.561-2.731,2.455-6.557,7.078-10.287,6.376a1.821,1.821,0,0,1-1.19-1.778C550.877,1018.82,555.857,1015.74,558.6,1013.43Z" fill="#250c03" fill-rule="evenodd"/>
  <path id="Path_157" data-name="Path 157" d="M542.6,1012.33a117.129,117.129,0,0,1,10.764-8.184c2.345-1.581,4.348,2.419,2.125,4.106a127.433,127.433,0,0,0-10.313,8.631c-2.58,2.415-5.814,6.9-9.308,7.164-1.044.076-1.521-1.1-1.4-2.078C534.971,1017.91,539.942,1014.6,542.6,1012.33Z" fill="#250c03" fill-rule="evenodd"/>
  <path id="Path_158" data-name="Path 158" d="M523.439,1014.89c3.293-2.58,6.652-5.04,10.006-7.521,1.823-1.346,4.092,1.868,2.36,3.466-3.027,2.8-6.045,5.606-9.143,8.3-2.611,2.279-6.02,6.325-9.534,6.206a1.75,1.75,0,0,1-1.5-2.229C516.571,1019.39,520.809,1016.95,523.439,1014.89Z" fill="#250c03" fill-rule="evenodd"/>
  <path id="Path_159" data-name="Path 159" d="M505.722,1013.61q4.436-3.2,8.872-6.4c2.46-1.772,4.674,2.6,2.274,4.4q-4.391,3.291-8.776,6.584c-2.4,1.8-5.045,4.482-8.073,4.011-.743-.111-1.149-1.2-.968-1.929C499.853,1017.07,503.407,1015.28,505.722,1013.61Z" fill="#250c03" fill-rule="evenodd"/>
  <path id="Path_160" data-name="Path 160" d="M485.594,1013.11a85.946,85.946,0,0,1,8.134-5.432c2.168-1.245,4.951,2.163,2.776,4.076a89.505,89.505,0,0,1-7.907,6.161c-2.314,1.621-4.97,3.936-7.792,3.479-.8-.13-1.271-1.315-1.06-2.113C480.508,1016.41,483.5,1014.66,485.594,1013.11Z" fill="#250c03" fill-rule="evenodd"/>
  <path id="Path_161" data-name="Path 161" d="M463.468,1017.25q4.278-2.073,8.555-4.153c2.35-1.14,4.449,2.681,2.054,3.981q-4.381,2.373-8.755,4.744c-2.28,1.235-5.377,3.6-7.953,2.682a1.719,1.719,0,0,1-.854-2.381C457.589,1019.39,461.208,1018.35,463.468,1017.25Z" fill="#250c03" fill-rule="evenodd"/>
  <path id="Path_162" data-name="Path 162" d="M440.775,1016.16c1.772-.878,3.4-1.837,5.242-2.534,2.887-1.09,4.127,4.065,1.255,5.149a52.082,52.082,0,0,1-5.341,1.477c-1.522.407-3.184,1.211-4.725.653a1.369,1.369,0,0,1-.688-1.908C437.522,1017.41,439.239,1016.92,440.775,1016.16Z" fill="#250c03" fill-rule="evenodd"/>
  <path id="Path_163" data-name="Path 163" d="M420.6,1012.86a2.545,2.545,0,0,1,3.113,2.008c.3,1.461-.387,3.163-1.767,3.525-1.772.466-3.58.808-5.272-.051-1.1-.562-.933-2.144-.346-3.008C417.3,1013.92,419.125,1013.31,420.6,1012.86Z" fill="#250c03" fill-rule="evenodd"/>
  <path id="Path_164" data-name="Path 164" d="M528.551,975.009a18.109,18.109,0,0,1-6.376,3.775c-2.109.6-3.033-2.439-1.411-3.78a17.665,17.665,0,0,1,6.637-3.088C529.138,971.464,529.86,973.884,528.551,975.009Z" fill="#250c03" fill-rule="evenodd"/>
  <path id="Path_165" data-name="Path 165" d="M522.36,961.463c-3.314,2.591-6.662,5.091-10.051,7.552a50.919,50.919,0,0,1-4.98,3.354,5.514,5.514,0,0,1-4.764.763,1.453,1.453,0,0,1-.864-1.716c.908-4.078,4.745-5.956,7.747-7.949,3.469-2.3,6.953-4.538,10.487-6.7C522.686,955.081,524.885,959.49,522.36,961.463Z" fill="#250c03" fill-rule="evenodd"/>
  <path id="Path_166" data-name="Path 166" d="M513.248,950.559a62.483,62.483,0,0,0-9.268,6.266c-1.491,1.194-5.688,5.773-7.345,2.436-1.536-3.1,3.359-6.433,5.041-7.762a44.239,44.239,0,0,1,9.82-5.639C513.88,944.815,515.566,949.309,513.248,950.559Z" fill="#250c03" fill-rule="evenodd"/>
  <path id="Path_167" data-name="Path 167" d="M509.211,929.913l-7.059,5.854c-1.918,1.586-4.217,4.247-6.769,3.865a1.564,1.564,0,0,1-1.33-1.982c.487-2.893,3.424-4.523,5.4-6.1q3.75-3,7.506-5.994C509.321,923.668,511.491,928.026,509.211,929.913Z" fill="#250c03" fill-rule="evenodd"/>
  <path id="Path_168" data-name="Path 168" d="M503.633,914.059q-1.424,1.265-2.846,2.53a15.3,15.3,0,0,1-3.053,2.44,1.937,1.937,0,0,1-2.459-.362,2.559,2.559,0,0,1-.316-2.786c1.366-2.214,3.534-3.851,5.341-5.6a2.22,2.22,0,0,1,3.333,0C504.451,911.207,504.643,913.166,503.633,914.059Z" fill="#250c03" fill-rule="evenodd"/>
  <path id="Path_169" data-name="Path 169" d="M498.15,904.107a1.7,1.7,0,0,1-1.135-.116,2.034,2.034,0,0,1-.894-.862,4.141,4.141,0,0,1-.191-.507,2.3,2.3,0,0,1,.482-2.06c.015-.014.03-.035.045-.051s.015-.039.025-.06c.111-.16.221-.331.336-.491.146-.132.292-.262.437-.382a2.064,2.064,0,0,1,1.094-.341,2.2,2.2,0,0,1,1.978,1.512,2.666,2.666,0,0,1-.281,2.423A2.023,2.023,0,0,1,498.15,904.107Z" fill="#250c03" fill-rule="evenodd"/>
  <path id="Path_170" data-name="Path 170" d="M463.679,771.1c-1.9,1.731-3.776,3.7-6.085,4.689a1.621,1.621,0,0,1-1.913-.884,2.212,2.212,0,0,1,.261-2.329c1.416-2.009,3.629-3.355,5.507-4.75C463.167,766.553,465.321,769.6,463.679,771.1Z" fill="#250c03" fill-rule="evenodd"/>
  <path id="Path_171" data-name="Path 171" d="M457.047,757.848q-3.066,2.935-6.14,5.874c-1.375,1.31-4.012,4.106-5.824,1.927-1.712-2.048.6-4.549,1.929-5.783q3.244-3.02,6.486-6.039C455.967,751.525,459.532,755.468,457.047,757.848Z" fill="#250c03" fill-rule="evenodd"/>
  <path id="Path_172" data-name="Path 172" d="M451.645,734.456q-3.547,3.525-7.094,7.049c-1.808,1.8-4.082,5.026-6.728,4.649a1.448,1.448,0,0,1-1.32-1.491c.01-3.107,2.886-5.046,4.759-6.884q3.57-3.5,7.14-7C450.621,728.6,453.874,732.242,451.645,734.456Z" fill="#250c03" fill-rule="evenodd"/>
  <path id="Path_173" data-name="Path 173" d="M446.147,715.608c-1.581,1.4-3.138,2.852-4.764,4.192-1.346,1.109-2.927,2.676-4.7,2.179a1.282,1.282,0,0,1-.823-1.23c-.035-1.953,1.566-3.289,2.74-4.474,1.436-1.451,2.967-2.787,4.459-4.167C445.233,710.09,448.346,713.67,446.147,715.608Z" fill="#250c03" fill-rule="evenodd"/>
  <path id="Path_174" data-name="Path 174" d="M408.688,598.778c-2.159,1.26-4.82,3.455-7.3,3.505-2.063.041-2.892-2.8-1.611-4.408a8.7,8.7,0,0,1,3.55-2.225c1.2-.542,2.395-1.079,3.594-1.622C409.336,592.94,410.982,597.443,408.688,598.778Z" fill="#250c03" fill-rule="evenodd"/>
  <path id="Path_175" data-name="Path 175" d="M404.235,587.553c-3.263,1.416-6.647,3.364-10.156,3.735-2.8.3-3.344-4.1-1.336-5.588,2.887-2.144,6.773-2.978,10.032-4.152C406.2,580.318,407.479,586.147,404.235,587.553Z" fill="#250c03" fill-rule="evenodd"/>
  <path id="Path_176" data-name="Path 176" d="M394.239,573.189a15.792,15.792,0,0,1-1.466.6,5.438,5.438,0,0,1-.974.211,1.831,1.831,0,0,1-.829.03.777.777,0,0,1-.216.016,2.592,2.592,0,0,1-2.369-1.8,3.264,3.264,0,0,1,.537-3.2c.015-.025.025-.031.035-.05.13-.19.261-.382.392-.567a6.429,6.429,0,0,1,1.075-.939,15.571,15.571,0,0,1,1.351-.924,3.059,3.059,0,0,1,4.543,1.737,3.874,3.874,0,0,1,0,2.792A3.494,3.494,0,0,1,394.239,573.189Z" fill="#250c03" fill-rule="evenodd"/>
  <path id="Path_177" data-name="Path 177" d="M1095.78,743.824c.011-55.794.07-111.588-.131-167.382-.049-15.7.151-31.444-.24-47.138-.1-3.851-.241-7.7-.542-11.542-.15-1.923-.02-3.861-.182-5.774-.164-1.957-.993-3.8-1.185-5.772q-.513-5.265-1.024-10.539c.07-2.4.127-4.815.211-7.221.136-4.016.563-8.138,0-12.134-1.078-7.712-7-11.758-14.318-12.662-6.562-.809-13.375-.578-20.053-.462-40.365-3.113-80.731-2.741-121.207-2.731q-62.183.008-124.371.01c-82.906.01-165.825-.367-248.736.155-23.266.151-46.536.181-69.8.452-11.186.135-22.382.211-33.563.5-1.441-.17-2.886-.306-4.333-.391a150.044,150.044,0,0,0-24.781.567c-7.321.778-14.876,2.636-19.862,8.5-4.519,5.312-5.94,12.3-6.019,19.128-.051,4.177.165,8.324.4,12.5.005.105.01.21.02.321-.04.367-.075.738-.1,1.115-.472,6.718-.888,13.456-1.129,20.188-.482,13.455-.592,26.915-.6,40.38q-.023,40.863-.035,81.721-.037,81.7,1.225,163.445c.23,15.375.316,30.807,1.471,46.15q.12,1.581.23,3.162c-.271,2.014-.522,4.032-.647,6.07-.276,4.484-.567,8.963-.708,13.451-.287,9.121-.256,18.239-.151,27.371.046,4.052-.381,8.565.834,12.492a12.229,12.229,0,0,0,7.582,7.872,24.706,24.706,0,0,0,9.89,1.536q5.3-.135,10.6-.322a64.643,64.643,0,0,0,11.075,1.518c5.538.291,11.091.291,16.633.342,10.237.1,20.475.021,30.707.021q31.344,0,62.688-.005,29.3-.009,58.59-.006-1.574,3.735-3.173,7.45-3.69,8.495-7.581,16.9-3.8,8.195-7.707,16.336c-1.371,2.872-2.611,5.814-3.786,8.777-.236.608-.467,1.194-.673,1.782-.7.035-1.4.081-2.088.125-2.179.141-4.363.257-6.527.441-.637-.06-1.28-.109-1.908-.165-4.614-.361-9.353-1.135-13.957-.347-8.675,1.487-13.938,9.836-15.348,17.944a106.909,106.909,0,0,0-1.08,14.147c-.181,4.739-.583,9.535-.512,14.279.065,4.538,1.662,9.1,5.814,11.441,3.4,1.918,7.445,2.033,11.235,1.642,2.827-.3,5.658-.628,8.485-.953,1.688.04,3.379.005,4.98.049,5.774.167,11.543.151,17.316.151H846.868q19.722,0,39.441-.276c13.374-.195,27.131.232,40.325-2.184a2.7,2.7,0,0,0,1.767-1.139,10.691,10.691,0,0,0,2.165-1.347c6.4-5.292,6.673-14.815,6.817-22.447a101.773,101.773,0,0,0-.632-13.555c-.508-4.4-.909-9-2.963-12.993-4.171-8.145-13.479-7.622-21.246-7.149-4.042.25-8.145.467-12.236.792a67.843,67.843,0,0,0-3.745-9.322c-2.133-4.956-4.287-9.9-6.381-14.866q-3.111-7.38-6.19-14.771-1.626-3.915-3.228-7.843c-.367-.9-.7-1.852-1.051-2.8q26.03-.077,52.039-.258c23.456-.18,46.913-.33,70.364-.571,21.784-.221,43.659.251,65.338-2.038,6.889-.085,14.349-.754,19.656-5.518a18.536,18.536,0,0,0,3.821-4.885,3.749,3.749,0,0,0,2.74-3.365c.915-7.008.994-14.1,1.246-21.161s.477-14.108.637-21.161c.316-13.947.217-27.9.217-41.853Q1095.786,785.915,1095.78,743.824Z" fill="#250c03" fill-rule="evenodd"/>
  <path id="Path_178" data-name="Path 178" d="M1062.89,919.1h0c-1.1.086-2.22.166-3.324.236-16.547-1.244-33.155-1.095-49.764-1.264q-31.35-.318-62.692-.523c-41.791-.321-83.584-.271-125.376-.271q-125.373-.016-250.749-.016-35.184-.008-70.363-.005h-33.3A11.663,11.663,0,0,0,462,915.829a2.122,2.122,0,0,0,.878-2.43c-1.089-3.6-5.628-5.607-8.61-7.505q-5.264-3.352-10.533-6.7c-7.02-4.469-14.239-8.61-21.444-12.767-2.219-1.275-3.906,1.892-1.958,3.353,6.566,4.906,13.118,9.845,19.891,14.465q4.971,3.388,9.936,6.772c2.074,1.416,4.755,3.807,7.476,4.845-.4.016-.8.036-1.2.04-4.308.127-8.61.422-12.913.638-7.8.392-15.609,1.376-23.412,1.558-2.294.051-4.84-.061-5.738-2.531-1.215-3.314-.563-7.8-.618-11.266-.14-8.324-.332-16.653-.823-24.973-.221-3.686-.517-7.359-.834-11.045.909-16.2,1.853-32.4,2.108-48.65.433-27.236.573-54.484.783-81.721q.625-81.726.573-163.447c-.01-15.378.121-30.775-.432-46.149-.276-7.7-.627-15.388-1.17-23.075-.131-1.917-.206-3.851-.4-5.769-.055-.532-.135-1.059-.236-1.586a56.307,56.307,0,0,1,.437-7.757c.974-6.466,3.736-13.611,10.342-16.045,3.841-1.416,7.983-1.7,12.03-1.948,4.689-.3,9.374-.347,14.068-.452,5.005-.115,10-.206,15-.326,2.5-.061,4.975-.171,7.476-.121a20.532,20.532,0,0,0,3.916-.136c3.339.021,6.672.041,9.986.086,20.73.281,41.46.326,62.19.457,41.456.261,82.91.231,124.371.24q124.363.008,248.741.025c35.189,0,70.369.467,105.5-.939a12.488,12.488,0,0,0,2.816.718c2.045.226,4.112.331,6.17.366,4.107.065,8.225.051,12.332.081,7.912.046,15.814.025,23.722-.02,4.855-.025,11.894-.276,13.109,5.673.691,3.43.412,7.18.491,10.668.091,3.947.161,7.9.271,11.844.051,1.923.127,3.846.212,5.769a52.729,52.729,0,0,0-1.109,7.842c-.065,3.534-.4,7.049-.518,10.583-.472,13.932-.292,27.9-.362,41.847-.149,28.055-.109,56.115-.149,84.17q-.09,83.7-.024,167.383c.005,15.705-.252,31.438.1,47.144.178,7.691.412,15.393.654,23.085.15,4.78.234,9.589.491,14.374-.16,4.283-1.069,8.35-4.217,11.723C1077.06,918.849,1068.73,918.647,1062.89,919.1Z" fill="#fff" fill-rule="evenodd"/>
  <path id="Path_179" data-name="Path 179" d="M1057.17,858.686a2.209,2.209,0,0,0,2.128-2.565,1.446,1.446,0,0,0,1.121-1.376c.245-2.881.748-5.753.818-8.645s.09-5.764.141-8.645q.135-8.649.234-17.293.19-17.29.368-34.581.375-34.6.371-69.174.036-69.164,0-138.338c-.02-12.808.014-25.62-.16-38.428q-.146-9.843-.393-19.691c-.065-2.611-.116-5.2-.211-7.787a26.645,26.645,0,0,0,.362-3.544c.12-2.55.181-5.473-.854-7.857a6.4,6.4,0,0,0-5.413-3.89,13.576,13.576,0,0,0-3.229.06,8.848,8.848,0,0,0-1.65.4c-18.949-1.125-38.027-.512-57.005-.487-19.219.026-38.417-.437-57.626-.542-38.418-.216-76.826-.627-115.255-.632q-114.657-.016-229.326.08c-21.559.02-43.117.05-64.68.316q-15.876.188-31.75.4c-.216,0-.437.005-.653.01a1.456,1.456,0,0,0-.462-.352c-2.877-1.33-6.231-1.351-9.358-1.456-3.425-.115-6.874.035-10.3.076-6.8.076-13.605.045-20.4.336-4.85.211-12.847.452-13.962,6.457a16.107,16.107,0,0,0-.186,3.494c-1.631,22.121-1.043,44.493-1.165,66.664q-.187,34.131-.32,68.261-.2,68.509-.121,137.012v38.459c0,9.729-.05,19.445.427,29.145-.814,2.777-1.2,5.628.175,8.369.136.267.286.512.442.758.005.066.01.126.015.186a1.6,1.6,0,0,0,1.542,1.557c2.144,1.793,5.121,2.41,7.967,2.642,5.081.4,10.287.251,15.4.21,8.063,1.015,16.171.839,24.345.914,9.539.09,19.073.081,28.607.09q29.212.03,58.415.057,58.418.05,116.825.114c77.88.075,155.764.572,233.649.393q32.782-.077,65.561-.212C1013.41,859.523,1035.41,860.247,1057.17,858.686Z" fill="#a5ddeb" stroke="#000" stroke-linecap="round" stroke-linejoin="round" stroke-miterlimit="22.926" stroke-width="0.216" fill-rule="evenodd"/>
  <path id="Path_180" data-name="Path 180" d="M1057.17,858.686a2.209,2.209,0,0,0,2.128-2.565,1.446,1.446,0,0,0,1.121-1.376c.245-2.881.748-5.753.818-8.645s.09-5.764.141-8.645q.135-8.649.234-17.293.19-17.29.368-34.581.375-34.6.371-69.174.03-58.078.029-116.163C963.164,683.185,774.719,793.389,438.3,851.582a8.736,8.736,0,0,0,.538,1.355c.136.267.286.512.442.758.005.066.01.126.015.186a1.6,1.6,0,0,0,1.542,1.557c2.144,1.793,5.121,2.41,7.967,2.642,5.081.4,10.287.251,15.4.21,8.063,1.015,16.171.839,24.345.914,9.539.09,19.073.081,28.607.09q29.212.03,58.415.057,58.418.05,116.825.114c77.88.075,155.764.572,233.649.393q32.782-.077,65.561-.212C1013.41,859.523,1035.41,860.247,1057.17,858.686Z" fill="#8bd3da" fill-rule="evenodd"/>
  <path id="Path_181" data-name="Path 181" d="M759.183,885.4h0c-4.062,14.67-25.992,21.563-34.939,7.244a15.734,15.734,0,0,1,1.542-18.1c3.067-.929,5.89-2.45,9.053-3.163a26.48,26.48,0,0,1,10.658-.221C752.476,872.468,761.543,876.9,759.183,885.4Z" fill="#70cacb" stroke="#000" stroke-linecap="round" stroke-linejoin="round" stroke-miterlimit="22.926" stroke-width="0.216" fill-rule="evenodd"/>
  <path id="Path_182" data-name="Path 182" d="M752.194,867.141a32.089,32.089,0,0,0-15.635-1.838c-5.247.668-11.186,2.235-14.218,6.875a1.626,1.626,0,0,0,.065,1.916,18.174,18.174,0,0,0-3.188,16.3c2.535,8.65,11.788,14.795,20.654,14.735,9.529-.06,18.426-6.206,22.984-14.4,2.461-4.418,3.279-9.87.954-14.514C761.572,871.744,756.692,868.894,752.194,867.141Z" fill="#f05146" stroke="#000" stroke-linecap="round" stroke-linejoin="round" stroke-miterlimit="22.926" stroke-width="0.216" fill-rule="evenodd"/>
  <path id="Path_183" data-name="Path 183" d="M869.084,929.451h0q-6.07-.3-12.141-.6,5.972-.009,11.935-.016C868.943,929.045,869.008,929.251,869.084,929.451Z" fill="#70cacb" stroke="#000" stroke-linecap="round" stroke-linejoin="round" stroke-miterlimit="22.926" stroke-width="0.216" fill-rule="evenodd"/>
  <path id="Path_184" data-name="Path 184" d="M881.153,958.034h0q3.216,7.326,6.527,14.62c.854,1.883,1.777,4.191,2.9,6.4q-3.742-.066-7.5-.064-16.833-.006-33.669-.025-33.9-.015-67.813-.04-67.818-.045-135.633.191-18.759.09-37.519.355c-2.209.035-4.423.065-6.643.111.893-1.612,1.692-3.229,2.455-4.685,2.937-5.6,5.673-11.307,8.359-17.031q3.3-7.048,6.441-14.178c14.861,2.179,30.224,1.959,45.17,2.29,16.488.371,32.986.693,49.478.713,32.991.04,65.971.016,98.961-.3,18.541-.176,37.273.225,55.719-1.722,1.939.25,3.615-1.833,3.615-3.611a3.588,3.588,0,0,0-.055-.621,5.486,5.486,0,0,0,1.386-.818c.407.974.8,1.946,1.21,2.922C876.7,947.727,878.894,952.893,881.153,958.034Z" fill="#fff" stroke="#000" stroke-linecap="round" stroke-linejoin="round" stroke-miterlimit="22.926" stroke-width="0.216" fill-rule="evenodd"/>
  <path id="Path_185" data-name="Path 185" d="M923.447,989.514h0a10.067,10.067,0,0,1,1.406,4.363,92.582,92.582,0,0,1,.957,25.635c-.314,2.942-1.139,6.056-3.157,8.1a6.442,6.442,0,0,1-1.808,1.324c-9.83-1.193-19.856-1.063-29.721-1.234-11.859-.2-23.728-.362-35.6-.362H602.523q-2.688,0-5.377-.009c-5.518-1.457-11.457-.672-17.21.19q-3.615.129-7.229.292a15.209,15.209,0,0,0-5.528,1.42c-1.2.12-2.405.195-3.6.195-2.1,0-3.313-.035-3.564-2.273-.427-3.8.125-7.907.23-11.733.111-4.1.116-8.219.422-12.311.382-5.181,2.019-12.286,7.872-13.776,3.951-1.005,8.646-.371,12.7-.461.878-.021,1.756-.046,2.635-.092q1.7.121,3.419.23c5.6.366,11.216.493,16.83.653,11.216.321,22.452.341,33.668.392q33.912.167,67.819.2,67.815.075,135.63,0l37.515-.03c10.995-.005,21.931-.04,32.8-1.517,3.2-.222,6.558-.582,9.675-.086A6.235,6.235,0,0,1,923.447,989.514Z" fill="#fff" stroke="#000" stroke-linecap="round" stroke-linejoin="round" stroke-miterlimit="22.926" stroke-width="0.216" fill-rule="evenodd"/>
  <path id="Path_186" data-name="Path 186" d="M1095.78,743.824c.011-55.794.07-111.588-.125-167.382-.055-15.7.146-31.444-.25-47.138-.1-3.851-.237-7.7-.538-11.542-.15-1.918-.025-3.861-.182-5.774-.164-1.957-.993-3.8-1.185-5.768q-.513-5.273-1.024-10.543c.07-2.411.127-4.82.211-7.221.136-4.016.563-8.138,0-12.134-1.084-7.712-7-11.758-14.318-12.662-6.562-.809-13.375-.578-20.053-.462-40.365-3.113-80.731-2.737-121.207-2.731l-124.371.016c-82.906,0-165.831-.372-248.736.15-23.266.151-46.536.176-69.8.458-11.186.13-22.382.206-33.563.5-1.441-.17-2.886-.306-4.333-.391a149.5,149.5,0,0,0-24.781.567c-7.321.778-14.876,2.641-19.862,8.5-4.519,5.312-5.94,12.3-6.019,19.128-.051,4.182.165,8.324.4,12.5.005.105.01.21.015.321-.035.367-.07.738-.1,1.115-.472,6.718-.888,13.456-1.129,20.188-.482,13.455-.592,26.915-.6,40.38q-.015,40.863-.035,81.721-.037,81.7,1.22,163.445c.236,15.375.322,30.807,1.477,46.15q.12,1.581.23,3.162c-.271,2.014-.526,4.032-.647,6.07-.276,4.484-.567,8.963-.708,13.451-.287,9.121-.256,18.239-.151,27.371.046,4.047-.381,8.565.834,12.492a12.229,12.229,0,0,0,7.582,7.872,24.706,24.706,0,0,0,9.89,1.536q5.3-.135,10.6-.322a64.631,64.631,0,0,0,11.081,1.518c5.532.291,11.085.291,16.627.342,10.237.1,20.475.021,30.707.021q31.344,0,62.688-.011h58.59q-1.566,3.735-3.173,7.45-3.69,8.495-7.581,16.9-3.8,8.195-7.707,16.336c-1.371,2.872-2.611,5.814-3.78,8.777-.241.608-.473,1.194-.678,1.782-.7.04-1.4.081-2.088.125-2.179.141-4.363.257-6.527.441-.643-.06-1.275-.114-1.913-.165-4.608-.361-9.348-1.135-13.952-.347-8.67,1.487-13.938,9.836-15.348,17.944a106.973,106.973,0,0,0-1.08,14.147c-.181,4.739-.583,9.535-.512,14.279.065,4.534,1.662,9.1,5.814,11.441,3.4,1.918,7.445,2.033,11.235,1.642q4.241-.452,8.485-.953c1.688.04,3.379.01,4.98.049,5.774.167,11.543.151,17.316.151H846.87q19.722,0,39.441-.276c13.374-.2,27.131.232,40.33-2.184a2.706,2.706,0,0,0,1.762-1.139,10.516,10.516,0,0,0,2.165-1.347c6.4-5.292,6.673-14.815,6.817-22.447a101.812,101.812,0,0,0-.632-13.555c-.508-4.4-.909-9-2.963-12.993-4.171-8.145-13.479-7.622-21.246-7.149-4.048.25-8.145.472-12.236.792a67.539,67.539,0,0,0-3.745-9.322c-2.133-4.95-4.287-9.9-6.381-14.866q-3.111-7.38-6.19-14.771-1.626-3.915-3.228-7.847c-.367-.9-.7-1.848-1.051-2.8q26.022-.077,52.039-.258c23.456-.18,46.908-.33,70.364-.571,21.784-.221,43.659.251,65.338-2.038,6.889-.085,14.349-.754,19.656-5.514a18.619,18.619,0,0,0,3.821-4.889,3.755,3.755,0,0,0,2.74-3.365c.915-7.008.994-14.1,1.246-21.161s.477-14.112.637-21.161c.316-13.947.217-27.9.217-41.853q.014-42.078.009-84.168ZM636.765,936.953h0c.146,0,.292,0,.438-.006-.151.006-.3.016-.458.021.005-.005.015-.01.02-.015Zm36.314-1.1h0c1.542-.035,3.083-.05,4.625-.08.16.015.326.025.487.041.14.009.285.028.426.039q-4.065.077-8.138.161-6.274.137-12.542.3c5.05-.192,10.1-.362,15.142-.463Zm250.368,53.666h0a10.067,10.067,0,0,1,1.406,4.363,92.428,92.428,0,0,1,.953,25.635c-.311,2.942-1.135,6.056-3.153,8.1a6.52,6.52,0,0,1-1.808,1.324c-9.83-1.193-19.856-1.063-29.721-1.234-11.859-.2-23.728-.362-35.6-.362H602.523q-2.688,0-5.377-.009c-5.518-1.457-11.457-.672-17.21.19q-3.615.129-7.229.3a15.011,15.011,0,0,0-5.528,1.421c-1.206.109-2.4.189-3.6.189-2.1,0-3.313-.035-3.564-2.273-.427-3.807.125-7.907.226-11.733.115-4.1.121-8.224.427-12.311.382-5.181,2.019-12.28,7.872-13.776,3.951-1.005,8.646-.371,12.7-.461.878-.021,1.756-.046,2.64-.092,1.129.081,2.27.156,3.414.23,5.6.366,11.216.493,16.83.653,11.216.321,22.452.341,33.668.392q33.912.167,67.819.2,67.815.075,135.63,0l37.515-.03c10.995-.005,21.931-.04,32.8-1.517a43.891,43.891,0,0,1,9.675-.09,6.314,6.314,0,0,1,2.213.889Zm-42.294-31.48h0q3.222,7.326,6.527,14.62c.854,1.883,1.777,4.191,2.9,6.4-2.495-.044-5-.06-7.5-.064q-16.833-.006-33.669-.025-33.9-.015-67.813-.04-67.818-.045-135.633.191-18.759.09-37.519.36c-2.209.03-4.423.061-6.643.106.893-1.612,1.692-3.229,2.455-4.685,2.937-5.6,5.673-11.307,8.354-17.031q3.306-7.048,6.446-14.178c14.861,2.179,30.224,1.959,45.17,2.29,16.488.371,32.986.693,49.478.713,32.991.04,65.971.021,98.961-.3,18.541-.176,37.273.225,55.719-1.722,1.939.25,3.615-1.833,3.615-3.6a3.606,3.606,0,0,0-.055-.627,5.235,5.235,0,0,0,1.386-.818c.407.974.8,1.946,1.21,2.922,2.161,5.182,4.351,10.348,6.61,15.489Zm-12.069-28.583h0q-6.07-.3-12.141-.6,5.972-.009,11.939-.016c.061.206.132.412.2.612Zm193.806-10.342h0c-1.1.08-2.214.16-3.324.23-16.547-1.244-33.155-1.095-49.764-1.264q-31.35-.318-62.692-.523c-41.791-.321-83.584-.271-125.376-.271q-125.373-.016-250.749-.016-35.184-.008-70.363-.005h-33.3A11.663,11.663,0,0,0,462,915.828a2.126,2.126,0,0,0,.878-2.434c-1.089-3.6-5.628-5.6-8.61-7.5q-5.264-3.352-10.533-6.7c-7.02-4.469-14.239-8.61-21.444-12.767-2.219-1.275-3.906,1.9-1.958,3.353,6.566,4.906,13.118,9.841,19.891,14.465q4.971,3.388,9.936,6.777c2.074,1.411,4.761,3.8,7.476,4.84-.4.016-.8.031-1.2.04-4.308.127-8.61.422-12.913.638-7.8.392-15.609,1.376-23.412,1.558-2.3.051-4.84-.061-5.744-2.531-1.21-3.314-.557-7.8-.612-11.266-.14-8.329-.332-16.658-.823-24.973-.221-3.686-.517-7.359-.834-11.045.909-16.207,1.853-32.4,2.108-48.65.433-27.242.573-54.479.783-81.721q.625-81.726.573-163.447c-.01-15.378.121-30.775-.432-46.144-.276-7.7-.632-15.393-1.17-23.08-.131-1.917-.206-3.851-.4-5.769-.055-.532-.135-1.059-.236-1.586a56.307,56.307,0,0,1,.437-7.757c.974-6.466,3.741-13.611,10.342-16.045,3.841-1.416,7.983-1.7,12.03-1.948,4.689-.3,9.374-.347,14.068-.452,5-.115,10-.206,15-.326,2.505-.061,4.975-.171,7.476-.121a20.532,20.532,0,0,0,3.916-.136c3.339.021,6.672.041,9.986.086,20.73.281,41.46.326,62.186.457,41.46.261,82.915.231,124.371.236l248.746.03c35.189,0,70.369.467,105.5-.939a12.147,12.147,0,0,0,2.816.713c2.045.231,4.112.336,6.17.372,4.107.065,8.225.051,12.332.075,7.912.051,15.814.025,23.722-.015,4.855-.025,11.894-.276,13.109,5.673.7,3.43.412,7.18.491,10.668.091,3.947.161,7.9.271,11.844.051,1.923.131,3.846.212,5.769a52.729,52.729,0,0,0-1.109,7.842c-.07,3.534-.4,7.049-.518,10.583-.477,13.932-.292,27.9-.362,41.847-.149,28.055-.109,56.115-.145,84.17q-.1,83.7-.029,167.388c.005,15.7-.252,31.434.1,47.139.178,7.691.412,15.393.654,23.085.15,4.78.23,9.589.491,14.379-.16,4.278-1.064,8.345-4.217,11.718C1077.06,918.849,1068.73,918.647,1062.89,919.109Z" fill="#250c03" fill-rule="evenodd"/>
  <path id="Path_187" data-name="Path 187" d="M1057.17,858.686a2.2,2.2,0,0,0,2.123-2.565,1.456,1.456,0,0,0,1.131-1.376c.234-2.881.743-5.753.813-8.645s.09-5.764.141-8.645c.09-5.766.18-11.527.239-17.293q.183-17.29.363-34.581.375-34.59.371-69.174.036-69.164,0-138.338c-.02-12.808.014-25.62-.16-38.428q-.146-9.851-.393-19.7c-.065-2.606-.116-5.2-.211-7.782a26.546,26.546,0,0,0,.362-3.544c.12-2.55.181-5.467-.854-7.857a6.389,6.389,0,0,0-5.413-3.89,13.52,13.52,0,0,0-3.223.06,9.283,9.283,0,0,0-1.656.4c-18.949-1.125-38.027-.512-57.005-.487-19.219.026-38.417-.437-57.626-.542-38.418-.21-76.826-.627-115.255-.632q-114.657-.016-229.326.08c-21.559.02-43.117.05-64.68.316q-15.876.188-31.75.4c-.222,0-.437.005-.653.01a1.4,1.4,0,0,0-.462-.352c-2.877-1.33-6.231-1.351-9.358-1.456-3.425-.115-6.878.035-10.308.076-6.8.076-13.6.05-20.394.336-4.85.206-12.853.452-13.962,6.457a16.107,16.107,0,0,0-.186,3.494c-1.631,22.121-1.043,44.493-1.165,66.659q-.187,34.137-.32,68.265-.2,68.509-.121,137.012v38.459c0,9.729-.05,19.439.427,29.145-.814,2.777-1.2,5.628.18,8.369a7.952,7.952,0,0,0,.438.758c.005.066.01.126.015.186a1.614,1.614,0,0,0,1.542,1.562c2.144,1.783,5.121,2.405,7.967,2.637,5.081.4,10.287.251,15.4.21,8.063,1.015,16.171.839,24.345.914,9.534.09,19.073.081,28.612.09q29.2.03,58.41.057,58.409.05,116.825.114c77.88.075,155.764.572,233.649.393q32.782-.077,65.561-.212c21.809-.125,43.809.6,65.569-.962Zm-233.653-5.5h0q-116.82.438-233.649.352-32.782.036-65.565.065c-10.729.01-21.458-.035-32.187.064-3.615.03-7.229.006-10.844.025-3.6-1.792-9.017-.9-12.838-.868-4.483.04-8.957.1-13.44.22-2.063.061-4.131.131-6.2.182-1.642.041-3.434.1-4.895-.793a3.938,3.938,0,0,1-1.16-1.1c.824-10.674.854-21.348.854-32.062v-102.4q0-68.508-.4-137.013c-.066-12.818-.08-25.641-.231-38.458-.09-7.526-.115-15.057-.321-22.578h0c1.542-1.758,1.155-4.428,1.235-6.637a76.71,76.71,0,0,1,.437-8.605c.226-1.517.7-2.194,2.234-2.445a26.035,26.035,0,0,1,4.343-.15c2.832.02,5.664.015,8.49.035q3.479.023,6.958-.005c17.728,1.672,35.731,1.135,53.51,1.355q28.812.354,57.626.387l115.248.105q57.039.053,114.079-.011,28.815,0,57.626-.005c19.21-.005,38.408-.446,57.623-.552,21.568-.121,43.111-.658,64.68-.633,21.3.03,42.741.789,64-.472.011,0,.011,0,.016.005.983.161,2.033.005,3,.226a2.917,2.917,0,0,1,2.44,3.022c.24,3.033-.688,6.617-.11,9.715-.292,6.9-.2,13.847-.292,20.675-.165,11.532-.2,23.055-.22,34.587q-.069,34.582-.051,69.169c.02,46.115-.182,92.229.311,138.343q.213,19.211.412,38.428.1,9.844.25,19.691.077,4.8.156,9.608c.05,3.224.508,6.392.794,9.6a2.456,2.456,0,0,0-.276-.041c-19.389-1.4-38.979-.818-58.409-.924q-29.214-.165-58.416-.217Q881.922,852.949,823.517,853.188Z" fill="#250c03" fill-rule="evenodd"/>
  <path id="Path_188" data-name="Path 188" d="M752.194,867.141a32.089,32.089,0,0,0-15.635-1.838c-5.247.668-11.186,2.235-14.218,6.875a1.626,1.626,0,0,0,.065,1.916,18.174,18.174,0,0,0-3.188,16.3c2.535,8.65,11.788,14.795,20.654,14.74,9.524-.064,18.426-6.211,22.99-14.4,2.455-4.418,3.273-9.87.948-14.52-2.238-4.469-7.118-7.319-11.616-9.072Zm6.989,18.255h0c-4.062,14.67-25.992,21.563-34.939,7.244a15.744,15.744,0,0,1,1.542-18.1c3.067-.929,5.89-2.45,9.053-3.163a26.48,26.48,0,0,1,10.658-.221C752.476,872.463,761.543,876.9,759.183,885.4Z" fill="#250c03" fill-rule="evenodd"/>
  <path id="Path_189" data-name="Path 189" d="M417.183,904.338a39.934,39.934,0,0,0,8.867,6.463c1.978,1.038,6.813,3.715,8.49.848,1.557-2.66-2.41-4.257-4.188-5.086a34.733,34.733,0,0,1-9.178-6.211C418.534,897.867,414.552,901.828,417.183,904.338Z" fill="#250c03" fill-rule="evenodd"/>
  <path id="Path_190" data-name="Path 190" d="M481.462,900.774c-3.564-2.723-7.169-5.382-10.779-8.043-7.2-5.318-14.625-10.318-21.845-15.615-2-1.465-4.644,1.907-2.676,3.476,7,5.572,13.776,11.416,20.8,16.969,3.479,2.751,6.958,5.5,10.482,8.2,2.827,2.154,6.939,6.411,10.8,5.935a1.752,1.752,0,0,0,1.651-2.169C489.344,905.7,484.273,902.923,481.462,900.774Z" fill="#250c03" fill-rule="evenodd"/>
  <path id="Path_191" data-name="Path 191" d="M497.588,890.326c-6.728-4.945-13.742-9.494-20.821-13.912-2.555-1.6-4.679,2.269-2.325,3.967,6.728,4.849,13.28,9.915,19.827,15,6.165,4.785,12.094,10.839,19.651,13.31a1.3,1.3,0,0,0,1.45-1.888C511.545,899.654,503.964,895.011,497.588,890.326Z" fill="#250c03" fill-rule="evenodd"/>
  <path id="Path_192" data-name="Path 192" d="M530.925,895.593c-2.782-2.249-5.648-4.424-8.505-6.577-5.694-4.3-11.572-8.334-17.271-12.611-1.767-1.332-4.092,1.656-2.379,3.077,5.492,4.56,10.779,9.349,16.281,13.9,2.671,2.2,5.362,4.383,8.088,6.512,2.43,1.9,5.327,4.277,8.49,4.553a1.494,1.494,0,0,0,1.436-1.883C536.117,899.68,533.215,897.445,530.925,895.593Z" fill="#250c03" fill-rule="evenodd"/>
  <path id="Path_193" data-name="Path 193" d="M550.109,898.585a55.039,55.039,0,0,1-7.566-7.185c-2.375-2.706-6.351,1.27-3.951,3.957a56.592,56.592,0,0,0,7.557,7.054c1.741,1.345,5.642,4.97,7.832,2.495C556.274,902.311,551.716,899.834,550.109,898.585Z" fill="#250c03" fill-rule="evenodd"/>
  <path id="Path_194" data-name="Path 194" d="M575.062,900.854c-1.557-1.3-3.409-1.777-5.2-2.681a26.375,26.375,0,0,1-4.965-3.254c-3.073-2.564-7.506,1.9-4.4,4.4a33.262,33.262,0,0,0,5.954,3.957c2.019,1.014,4.454,2.309,6.763,2.027C575.192,905.066,576.989,902.471,575.062,900.854Z" fill="#250c03" fill-rule="evenodd"/>
  <path id="Path_195" data-name="Path 195" d="M584.53,1016.21c-4.072-1.507-7.49-2.982-10.348-6.433-1.44-1.735-4.313.518-3.112,2.406,2.826,4.448,7.43,8.2,12.812,8.816C586.79,1021.32,586.92,1017.1,584.53,1016.21Z" fill="#250c03" fill-rule="evenodd"/>
  <path id="Path_196" data-name="Path 196" d="M608.916,1016.68c-2.847-1.957-5.769-3.826-8.65-5.744-5.764-3.824-11.673-7.415-17.461-11.205-2.556-1.667-4.8,2.33-2.371,4.057,5.674,4.007,11.2,8.193,16.9,12.17,2.846,1.978,5.658,4.012,8.535,5.939,2.565,1.721,4.945,3.52,8.148,3.013a1.441,1.441,0,0,0,.993-1.748C614.328,1020.02,611.4,1018.39,608.916,1016.68Z" fill="#250c03" fill-rule="evenodd"/>
  <path id="Path_197" data-name="Path 197" d="M638.271,1016.91c-3.379-2.3-7.656-3.645-11.316-5.472q-5.633-2.817-10.959-6.166c-2.254-1.405-4.132,2.009-2.049,3.505,3.53,2.531,7.155,4.921,10.9,7.124,3.534,2.073,7.486,4.645,11.513,5.537A2.489,2.489,0,0,0,638.271,1016.91Z" fill="#250c03" fill-rule="evenodd"/>
  <path id="Path_198" data-name="Path 198" d="M653.413,1012.7c-3.178-1.382-6.371-2.686-9.6-3.932-1.752-.673-2.887,2.129-1.271,3.008,3.173,1.727,6.367,3.363,9.6,4.949,2.871,1.411,5.9,3.193,9.193,3.129a1.216,1.216,0,0,0,.848-2.044C660.005,1015.17,656.461,1014.03,653.413,1012.7Z" fill="#250c03" fill-rule="evenodd"/>
  <path id="Path_199" data-name="Path 199" d="M683.05,1012.95c-2.385-1.033-4.824-1.957-7.24-2.922-3.083-1.235-4.494,3.826-1.38,5,3.961,1.5,9.2,4.555,13.521,3.745a1.467,1.467,0,0,0,.879-2.147C687.382,1014.72,685.209,1013.89,683.05,1012.95Z" fill="#250c03" fill-rule="evenodd"/>
  <path id="Path_200" data-name="Path 200" d="M623.159,970.877a5.806,5.806,0,0,0-2.651-2.757,15.369,15.369,0,0,0-4.167-2.113c-2.439-.643-3.6,2.154-2.259,3.881a15.207,15.207,0,0,0,3.434,2.847,10.138,10.138,0,0,0,1.833,1.079,6.989,6.989,0,0,0,2.314.312c1.542.151,2.31-1.736,1.672-2.922C623.274,971.1,623.22,970.987,623.159,970.877Z" fill="#250c03" fill-rule="evenodd"/>
  <path id="Path_201" data-name="Path 201" d="M642.468,969.37q-2.823-2.132-5.718-4.171c-3.986-2.8-8.018-5.474-12.14-8.069-1.582-1-3.449,1.352-2.023,2.622,3.64,3.228,7.325,6.35,11.121,9.393,3.008,2.42,7.079,6.867,11.221,6.647a1.35,1.35,0,0,0,1.286-1.683C645.722,972.021,644.12,970.621,642.468,969.37Z" fill="#250c03" fill-rule="evenodd"/>
  <path id="Path_202" data-name="Path 202" d="M664.709,968.6c-2.149-1.612-4.393-3.133-6.627-4.623-4.342-2.907-8.675-5.82-12.968-8.792-1.627-1.125-3.715,1.536-2.134,2.761,4.117,3.2,8.189,6.457,12.256,9.72,1.892,1.522,3.831,2.993,5.764,4.464,1.822,1.381,3.55,2.888,5.919,2.445a1.572,1.572,0,0,0,1.16-1.525C667.807,970.9,666.4,969.868,664.709,968.6Z" fill="#250c03" fill-rule="evenodd"/>
  <path id="Path_203" data-name="Path 203" d="M681.383,967.679q-2.2-1.574-4.4-3.148c-2.008-1.439-3.926,1.889-1.938,3.309q2.086,1.491,4.167,2.983a6.485,6.485,0,0,0,4.207,1.566.908.908,0,0,0,.869-1.141A6.6,6.6,0,0,0,681.383,967.679Z" fill="#250c03" fill-rule="evenodd"/>
  <path id="Path_204" data-name="Path 204" d="M961.422,907.28c-2.65-2.124-6.883-2.8-10.2-3.153-2.44-.261-3.073,3.289-1.2,4.408a30.179,30.179,0,0,0,4.549,2.119c1.592.632,3.139,1.416,4.891,1.355C961.628,911.93,963.411,908.877,961.422,907.28Z" fill="#250c03" fill-rule="evenodd"/>
  <path id="Path_205" data-name="Path 205" d="M978.724,902.14c-4.177-1.769-8.409-3.379-12.662-4.94-2.49-.914-4.171,3.093-1.808,4.287,3.937,1.989,7.894,3.936,11.92,5.744,2.059.934,8.335,4.779,9.891,1.18C987.59,904.881,980.753,902.993,978.724,902.14Z" fill="#250c03" fill-rule="evenodd"/>
  <path id="Path_206" data-name="Path 206" d="M1010.59,902.471c-2.073-1.185-4.229-2.26-6.346-3.357-4.393-2.275-8.831-4.475-13.245-6.715-3.063-1.545-5.753,2.953-2.706,4.64,4.459,2.471,8.9,4.98,13.4,7.4,2.233,1.2,4.469,2.505,6.777,3.563,1.943.9,3.694,1.632,5.715.719a1.714,1.714,0,0,0,.776-1.908C1014.58,904.641,1012.36,903.476,1010.59,902.471Z" fill="#250c03" fill-rule="evenodd"/>
  <path id="Path_207" data-name="Path 207" d="M1040.06,900.573c-2.549-1.522-5.119-3.018-7.681-4.519-5.126-3.007-10.367-5.818-15.519-8.777-2.655-1.535-4.945,2.446-2.4,4.088,5.01,3.213,9.92,6.577,14.955,9.75,2.387,1.5,4.766,3,7.156,4.488,2.2,1.365,4.975,3.655,7.676,2.672a2.041,2.041,0,0,0,1.371-2.41C1045.26,903.2,1042.14,901.818,1040.06,900.573Z" fill="#250c03" fill-rule="evenodd"/>
  <path id="Path_208" data-name="Path 208" d="M1061.73,895.1c-2.325-1.818-4.68-3.6-7.029-5.372q-6.989-5.316-13.907-10.733c-3.092-2.436-7.5,1.938-4.368,4.368q7.065,5.5,14.008,11.125c2.2,1.767,4.389,3.555,6.606,5.3,2.37,1.862,4.75,4.211,7.481,5.518a3.064,3.064,0,0,0,3.695-4.791C1066.47,898.385,1063.9,896.788,1061.73,895.1Z" fill="#250c03" fill-rule="evenodd"/>
  <path id="Path_209" data-name="Path 209" d="M1059.48,879.582c2.048,1.982,4.1,4.725,6.907,5.563a1.863,1.863,0,0,0,2.271-2.273c-.843-2.8-3.585-4.846-5.572-6.889C1060.79,873.623,1057.11,877.3,1059.48,879.582Z" fill="#250c03" fill-rule="evenodd"/>
  <path id="Path_210" data-name="Path 210" d="M743.739,668.711c3.786-10.383,15.8-19.646,27.132-18.778a32.163,32.163,0,0,1,9.733,2.742,43.143,43.143,0,0,1,8.048,4.142c4.75,3.229,9.581,8.289,10.031,14.3a1.348,1.348,0,0,1-.838,1.321,22.553,22.553,0,0,1,.884,9.559,23.065,23.065,0,0,1-7.083,14.213,25.882,25.882,0,0,1-14.37,6.627c-6.235.769-11.929-1.306-17.521-3.845a31.809,31.809,0,0,1-8.4-4.921,25.461,25.461,0,0,1-5.312-7.827c-2.8-5.6-4.548-11.39-2.309-17.531Zm8.656,18.451h0a14.766,14.766,0,0,0,6.08,5.9c4.543,2.534,9.635,5.146,14.916,5.412a21.3,21.3,0,0,0,12.547-3.4c8.649-5.563,12.085-18.039,7.486-27.292a1.056,1.056,0,0,1-.006-.989c-.165-.271-.332-.537-.512-.8a25.622,25.622,0,0,0-4.886-5.09c-3.515-2.842-8.3-5.583-12.831-6.166-5.184-.668-10.012-1.185-14.6,1.913a34.437,34.437,0,0,0-9.927,10.407,14.565,14.565,0,0,0-1.285,13.581A50.949,50.949,0,0,0,752.4,687.162Z" fill="#250c03" fill-rule="evenodd"/>
  <path id="Path_211" data-name="Path 211" d="M607.986,677.251l11.573-3.765c3.344-1.09,7.054-2.888,10.649-3,.15-.341.307-.688.452-1.024.693-1.657,1.481-3.253,2.27-4.865a37.98,37.98,0,0,0,2.339-4.649c-.281-.778-.757-1.541-1.094-2.294-1.426-3.208-2.912-6.482-4.117-9.78-1.179-3.213-.838-6.748,1.878-9.063,2.505-2.145,6.035-3.4,8.972-4.855q4.565-2.251,9.178-4.393c3.078-1.421,6.17-2.817,9.284-4.157a28.6,28.6,0,0,1,6.36-2.284q1.59-2.456,3.173-4.9,3.081-4.752,6.16-9.509c2.043-3.153,4.012-7.531,8.324-7.717,3.3-.14,6.929,1.517,10.137,2.225,3.369.743,6.773,1.371,10.2,1.777a18.062,18.062,0,0,0,4.645.392,10.765,10.765,0,0,0,3.409-1.792c1.752-1.089,3.4-2.354,5.125-3.494a43.194,43.194,0,0,1,1.356-8.354q.978-4.849,2.083-9.675t2.329-9.614c.959-3.721,1.677-7.932,5.779-9.374,2.867-1.009,6.457-.638,9.459-.683q5.1-.075,10.2,0,4.92.075,9.831.3a15.117,15.117,0,0,1,4.95.643,6.617,6.617,0,0,1,3.837,4.6,130.981,130.981,0,0,1,4.217,19.414,74.9,74.9,0,0,1,14.67,6.739c.994-1.251,2.152-2.39,3.2-3.54q2.364-2.575,4.8-5.091,5-5.159,10.223-10.082a4.671,4.671,0,0,1,6.445.045c9.1,7.833,22.071,9.855,29.924,19.41,2.184,2.661,3.444,5.257,2.9,8.766a72.249,72.249,0,0,1-2.406,9.5c-.9,3.013-1.967,5.97-3.156,8.887a46.073,46.073,0,0,1-2.832,6.3,45.306,45.306,0,0,1,6.211,7.249,86.272,86.272,0,0,1,5.267,7.817c5.935-.537,11.869-1.024,17.8-1.5q5.256-.414,10.514-.833c1.768-.141,3.961-.663,5.684-.216,2,.522,3.062,2.455,4.193,4.027a110.619,110.619,0,0,1,16.059,32.854,4.65,4.65,0,0,1-3.212,5.573,92.623,92.623,0,0,0-17.312,8.193c-2.7,1.638-5.257,3.47-7.852,5.267a14.223,14.223,0,0,1-5.514,2.581c-.5,2.144-1.068,4.268-1.65,6.386q6.167,6.651,12.33,13.3a14.1,14.1,0,0,1,2.917,3.866,7.6,7.6,0,0,1-.341,6.235c-1.322,3.092-2.8,6.13-4.248,9.162q-4.609,9.61-9.65,18.989c-1.617,3.012-3.082,6.445-5.17,9.151a5.325,5.325,0,0,1-5.342,2.074,20.764,20.764,0,0,1-4.836-2.209q-10.55-5.407-21.1-10.825a4.144,4.144,0,0,1-2.019-2.475c-.783.16-1.581.3-2.374.427a83.985,83.985,0,0,0,4.273,28.457,4.626,4.626,0,0,1-3.234,5.613c-13.545,3.152-27.473,3.977-41.32,4.594a14.171,14.171,0,0,1-5.086-.262c-2.188-.708-3.278-2.48-4.382-4.342q-2.682-4.55-5.021-9.264c-1.617-3.278-3.154-6.607-4.459-10.025a50.657,50.657,0,0,1-1.738-4.972,74.016,74.016,0,0,1-9.693-3.88A150.938,150.938,0,0,0,732.656,779.9a4.545,4.545,0,0,1-5.462.7c-1.3-.928-2.6-1.871-3.886-2.806a17.327,17.327,0,0,1-2.606.23c-2.2.041-4.393,0-6.6-.035q-6.417-.1-12.833.025c-4.182.08-8.449.568-12.622.443-5.1-.162-6.874-5.143-8.39-9.213-.312-.85-1.783-7.146-2.41-9.014-.276-.025-.638-.08-.783-.09l-3.153-.15a3.232,3.232,0,0,0-.331-.011c-.477.834-1.306,1.959-1.506,2.319q-1.469,2.577-2.937,5.156c-1.185,2.084-2.194,4.464-4.579,5.4-4.343,1.707-9.369-2.506-12.22-5.373-3.349-3.354-6.261-7.135-9.574-10.533a142.7,142.7,0,0,0-10.539-9.72,4.536,4.536,0,0,1-.7-5.438c2.52-4.1,4.986-8.269,7.656-12.28a46.707,46.707,0,0,1-3.429-4.167,18.332,18.332,0,0,1-2.852-4.965c-3.851.457-7.772.547-11.638.813-2.1.14-4.268.315-6.16-.839-1.7-1.039-2.636-2.912-3.584-4.583a116.738,116.738,0,0,1-8.877-20.118c-1.129-3.318-2.721-7.115-2.937-10.639-.309-5.106,4.325-6.477,8.276-7.762Zm249.822,82.474h0c.481.256.447.226-.11-.1a.268.268,0,0,1-.065.01c.054.029.113.06.175.09ZM637.9,645.706h0c.015.056.081-.014.16-.145-.1.07-.165.121-.16.145Zm93.419-73.958h0a.1.1,0,0,1,.02-.021c-.19.006-.2.01-.02.021ZM871.645,725.067h0a.336.336,0,0,0-.16.382c.1-.236.164-.377.16-.382Zm-89.478,57.949h0c-.056-.03-.11-.061-.16-.092-.337.116-.281.14.16.092Zm-53.444-12.387h0a139.094,139.094,0,0,1,15.428-14.7c1.667-1.365,3.369-2.686,5.1-3.981a13.3,13.3,0,0,1,2.812-1.882c1.682-.683,3.047-.155,4.645.537,3.523,1.537,7.43,2.853,10.764,4.835a2.417,2.417,0,0,1,.883.4,10.157,10.157,0,0,1,.975.843,4.529,4.529,0,0,1,.918,1.025,25.424,25.424,0,0,1,2.872,5.191c.647,1.385,1.285,2.78,1.929,4.176a1.442,1.442,0,0,1,.206-.22,1.645,1.645,0,0,1,1.6-.433c3.57,1.346,6.919,3.435,10.363,5.086q5.324,2.56,10.765,4.869c1.314.559.392,2.834-.955,2.341q-5.4-1.974-10.694-4.2a78.909,78.909,0,0,1-9.91-4.488c.03.061.056.12.086.176q1.74,3.645,3.67,7.194.995,1.851,2.038,3.685c.312.547.643,1.245,1.01,1.879.155-.011.311-.016.467-.021.924-.04,1.848-.08,2.766-.125,1.849-.086,3.691-.17,5.537-.271,3.576-.192,7.146-.417,10.709-.729a159.01,159.01,0,0,0,16.394-2.225,90.685,90.685,0,0,1-3.013-30.068c.131-1.9,1.316-4.077,3.39-4.448,3.8-.683,12.1-3.625,13.59,1.9.021.07.026.136.04.206a4.975,4.975,0,0,1,.914.361q6.2,3.171,12.4,6.351c2.008,1.024,4.021,2.059,6.029,3.084q1.251.647,2.5,1.284c.044-.081.09-.156.13-.231.678-1.226,1.346-2.45,2.014-3.676q2-3.673,3.921-7.39,3.765-7.258,7.271-14.649c.215-.452,2.073-4.378,2.932-6.256-.271-.306-.522-.677-.738-.914q-1.386-1.506-2.768-3.007-5.527-6.016-11.064-12.034a4.542,4.542,0,0,1-1.16-4.318,138.621,138.621,0,0,1,5.006-13.556,3.7,3.7,0,0,1,4.3-1.707c.161-.085.321-.171.492-.255a34.164,34.164,0,0,0,3.735-2.476c2.535-1.812,5.142-3.515,7.831-5.081a101.862,101.862,0,0,1,13.546-6.552,104.593,104.593,0,0,0-13.51-26.2c-11.035.889-22.066,1.808-33.117,2.541a4.409,4.409,0,0,1-3.9-2.25,102.966,102.966,0,0,0-5.723-9.82c-2.034-3.062-4.869-5.939-6.381-9.283a3.675,3.675,0,0,1-.116-2.756c.292-2.721,1.7-5.372,2.611-7.918,1.024-2.841,1.948-5.708,2.71-8.625a68.123,68.123,0,0,0,1.742-8.525c.131-1.008.187-1.044-.306-1.727a19.154,19.154,0,0,0-2.54-2.646c-3.855-3.509-8.757-5.773-13.386-8.063a85.019,85.019,0,0,1-11.075-6.281q-3.742,3.63-7.359,7.376-2.426,2.514-4.811,5.07c-1.767,1.893-3.364,3.9-5.6,5.257a4.2,4.2,0,0,1-4.99-.688c-.006-.005-.01-.005-.01-.011-2.906-1.043-5.733-2.384-8.615-3.479-3.3-1.26-6.647-2.4-10.051-3.344a4.312,4.312,0,0,1-3.108-3.078q-1.032-5.211-2.185-10.4-.617-2.77-1.309-5.518c-.309-1.229-.859-2.615-1.131-3.921-.8-.035-1.617-.07-2.42-.1q-2.551-.1-5.1-.16-5.46-.121-10.93-.07c-1.7.02-3.4.045-5.1.09-.643.016-1.516.176-2.26.162a40.6,40.6,0,0,1-1.245,4.393q-.723,2.838-1.391,5.693-1.266,5.353-2.375,10.734c-.732,3.57-.909,7.817-2.846,10.956a4.121,4.121,0,0,1-2.406,1.762,46.96,46.96,0,0,1-4.774,4.509c-2.862,2.485-5.607,4.609-9.569,4.579a73.765,73.765,0,0,1-10.935-1.25,101.693,101.693,0,0,1-10.568-2.294c-.176-.046-.793-.156-1.386-.292-.869,1.386-2.525,3.595-2.767,3.967q-3.087,4.759-6.17,9.5t-6.165,9.5c-.954,1.476-1.868,3.063-2.867,4.579.392.332.783.658,1.179.984,2.375,1.958,4.831,3.82,7.1,5.9a75.259,75.259,0,0,1,6.135,6.4c.929,1.074,1.837,2.168,2.742,3.263,1.6,1.943,2.354,3.249,2.023,5.889-.01.081-.03.166-.045.246.989,3.5,1.542,7.135,2.706,10.614.8,2.375-.979,4.659-3.118,5.407a178.341,178.341,0,0,0-22.166,9.334,88.947,88.947,0,0,1,3.981,15.076,76.2,76.2,0,0,0,4.9,15.875c4.488-1.21,9.022-2.285,13.585-3.193,2.932-.583,5.864-1.09,8.831-1.471,3.128-.407,5.935-.718,8.961.271,2.145.2,3.726,1.566,5.639,2.837A47.6,47.6,0,0,0,716,719.3c2.3,1.054,2.505,4,1.607,5.995-2.239,4.965-3.2,10.323-4.444,15.609-1.285,5.493-2.359,11.091-3.891,16.511.312.2.628.408.95.613,2.424,1.576,4.819,3.2,7.209,4.83q5.663,3.864,11.292,7.771Zm-37.927-.16h0c.141.3.166.287.076-.035-.045-.024-.09-.056-.141-.08a.765.765,0,0,1,.065.115Zm-1.867-1.159h0a1.38,1.38,0,0,1-.161-.1c-.3.121-.246.151.161.1Zm-11.281-9.555h0c-.016-.021-.031-.04-.041-.035s.015.014.041.035Zm-65.876-65.509h0a124.435,124.435,0,0,0,6.954,15.865c.311.6.623,1.2.939,1.787.171.312.336.618.507.929,1.074.141,3.2.492,3.574.542,3.449.432,6.944.7,10.358,1.336a2.135,2.135,0,0,1,.643.225,2.773,2.773,0,0,1,1.681.292c2.3,1.165,3.56,3.328,5.227,5.226a34.759,34.759,0,0,0,5.136,4.85c1.9,1.422,2.741,3.56,1.562,5.8-2.165,4.107-4.6,8.074-7.035,12.035a138.83,138.83,0,0,1,10.413,10.017c1.943,2.078,3.766,4.257,5.679,6.365a28.569,28.569,0,0,0,2.978,2.967c.241.2.487.383.732.553l.086-.146c.547-.964,1.1-1.938,1.651-2.9,1.08-1.9,2.089-3.886,3.269-5.724a7.009,7.009,0,0,1,6.331-3.494,52.23,52.23,0,0,1,6.873.427c4.916.692,7.159,4.693,8.028,9.167a41.86,41.86,0,0,0,1.416,5.587,25.289,25.289,0,0,0,1.019,2.553c.115.244.241.49.356.732.151-.012.292-.021.437-.021.734-.039,1.466-.069,2.2-.1q2.56-.105,5.13-.181,4.767-.129,9.53-.141,1.808,0,3.615.011c-1.837-1.366-3.666-2.742-5.478-4.148-1.19-.913-2.4-1.807-3.509-2.82a12.747,12.747,0,0,1-2.641-3.57,2.527,2.527,0,0,1,1.109-3.56c1.089-5.648,2.636-11.246,3.952-16.839,1-4.248,1.732-9.128,3.519-13.32-1.1-.758-2.184-1.541-3.244-2.37a26.975,26.975,0,0,1-2.771-2.36,31.075,31.075,0,0,1-5.3,1.321c-2.9.542-5.81,1.059-8.7,1.642q-8.524,1.71-16.869,4.132a4.606,4.606,0,0,1-5.126-2.133,77.377,77.377,0,0,1-7.019-19.932c-1.315-6.25-2.244-12.757-5.338-18.435a4.615,4.615,0,0,1,1.693-6.2,152.064,152.064,0,0,1,23.933-10.573,25.767,25.767,0,0,1-.507-7.33,11.279,11.279,0,0,1-1.386-1.466c-.974-1.2-1.958-2.38-2.967-3.545a71.747,71.747,0,0,0-6.166-6.372c-2.269-2.043-4.785-3.821-6.883-6.054-.317-.341-.633-.7-.939-1.06a4.639,4.639,0,0,1-3.906-5.337,9.145,9.145,0,0,1,.493-1.506,3.334,3.334,0,0,1-.056-.533c-.562.251-1.125.507-1.681.764q-4.617,2.139-9.178,4.388c-.708.347-5.4,2.541-7.351,3.585.061.2.111.382.135.447.593,1.621,1.326,3.218,1.989,4.815,1.2,2.9,2.962,6.07,2.982,9.278.02,3.333-2.525,6.5-4.117,9.257-1.537,2.661-3.178,6.292-5.688,8.244a2.729,2.729,0,0,1-.276.311c-2.556,2.485-7.079,3.188-10.408,4.273q-4.7,1.536-9.4,3.067c-1.546.5-3.087,1.009-4.634,1.512C610.05,689.024,610.863,691.655,611.772,694.246Z" fill="#250c03" fill-rule="evenodd"/>
  <path id="Path_212" data-name="Path 212" d="M791.1,765.378c2-.16,4.162,1.5,5.965,2.269,2.39,1.021,4.829,1.894,7.3,2.672,1.386.441.838,2.6-.563,2.193-2.591-.758-5.146-1.621-7.652-2.625-1.907-.764-4.658-1.411-5.794-3.214A.879.879,0,0,1,791.1,765.378Z" fill="#250c03" fill-rule="evenodd"/>
  <path id="Path_213" data-name="Path 213" d="M801,764.264a.783.783,0,0,1,.472-1.13c1.452-.411,2.763.246,4.128.729,1.637.581,3.273,1.154,4.91,1.731s.954,3.188-.678,2.6l-5.227-1.867C803.214,765.83,801.887,765.508,801,764.264Z" fill="#250c03" fill-rule="evenodd"/>
  <path id="Path_214" data-name="Path 214" d="M838.559,714.223c1.311-.2,2.62-.392,3.932-.583,1.414-.21,2.032,1.943.587,2.184-1.37.226-2.741.458-4.107.688-1.054.171-2.561.738-3.374-.216a.777.777,0,0,1-.119-.883C835.953,714.3,837.539,714.374,838.559,714.223Z" fill="#250c03" fill-rule="evenodd"/>
  <path id="Path_215" data-name="Path 215" d="M829.9,709a1.017,1.017,0,0,1,.005-1.019c.658-1.165,1.737-1.25,2.973-1.375,1.746-.18,3.5-.21,5.241-.337a97.573,97.573,0,0,0,10.349-1.3c2.032-.362,2.891,2.741.838,3.123-3.464.647-6.965,1.189-10.463,1.616C836.464,709.99,831.479,711.366,829.9,709Z" fill="#250c03" fill-rule="evenodd"/>
  <path id="Path_216" data-name="Path 216" d="M839.793,695.942a66.8,66.8,0,0,0,12.181-2.154,1.436,1.436,0,0,1,.743,2.772,66.113,66.113,0,0,1-11.276,2.53c-1.642.211-8.917,1.747-9.3-.989C831.76,695.431,838.317,696.059,839.793,695.942Z" fill="#250c03" fill-rule="evenodd"/>
  <path id="Path_217" data-name="Path 217" d="M845.536,685.369c-1.676.07-3.914.647-5.5.045a.941.941,0,0,1-.563-1.346c.733-1.491,2.717-1.922,4.243-2.043,2.139-.175,4.313-.08,6.457-.146a69.22,69.22,0,0,0,14.037-1.807,1.15,1.15,0,0,1,.6,2.219,97.363,97.363,0,0,1-12.893,2.616C849.795,685.179,847.676,685.274,845.536,685.369Z" fill="#250c03" fill-rule="evenodd"/>
  <path id="Path_218" data-name="Path 218" d="M860.529,674.314c-1.919.372-3.846.633-5.785.874-1.882.23-4.207.772-5.914-.267a1,1,0,0,1-.2-1.562c1.34-1.089,3.083-1.1,4.749-1.265,2.189-.215,4.363-.512,6.537-.813a89.709,89.709,0,0,0,12.462-2.545,1.277,1.277,0,0,1,.662,2.465C868.908,672.376,864.746,673.5,860.529,674.314Z" fill="#250c03" fill-rule="evenodd"/>
  <path id="Path_219" data-name="Path 219" d="M708.977,709.142a192.066,192.066,0,0,1-19.832-.176q-4.866-.3-9.7-.924c-2.36-.3-6.327-.713-7.551-3.087a1.237,1.237,0,0,1,.748-1.788c1.376-.255,2.6.262,3.981.407,1.291.13,2.57.281,3.86.457q4.836.671,9.7,1.16c6.235.618,12.5.918,18.772.939A1.507,1.507,0,0,1,708.977,709.142Z" fill="#250c03" fill-rule="evenodd"/>
  <path id="Path_220" data-name="Path 220" d="M705.131,699.7a46.968,46.968,0,0,1-8.546-.834c-2.063-.4-5.984-.743-7.073-2.781a.992.992,0,0,1,.592-1.416c1.155-.457,2.089.045,3.219.4,1.2.377,2.42.693,3.645.964a43.1,43.1,0,0,0,8.143.939A1.367,1.367,0,0,1,705.131,699.7Z" fill="#250c03" fill-rule="evenodd"/>
  <path id="Path_221" data-name="Path 221" d="M706.08,691.2c-2.038-.341-4.057-.743-6.06-1.245-1.611-.407-3.168-.723-4.167-2.129a.8.8,0,0,1,.482-1.155c1.586-.6,3.217.095,4.789.477,1.888.452,3.8.824,5.714,1.13S707.982,691.515,706.08,691.2Z" fill="#250c03" fill-rule="evenodd"/>
  <path id="Path_222" data-name="Path 222" d="M711.442,679.485c-2.49.266-6.231.748-7.858-1.637a.98.98,0,0,1,.16-1.189,5.316,5.316,0,0,1,3.52-.989,29.411,29.411,0,0,0,4.152-.206,2.027,2.027,0,0,1,2.028,2A2.058,2.058,0,0,1,711.442,679.485Z" fill="#250c03" fill-rule="evenodd"/>
  <path id="Path_223" data-name="Path 223" d="M682.166,614.549l-15.2,23.586c8.711,7.325,9.579,7.355,17.156,16.548,2.641,3.2,1.917,3.69,1.978,6.135.989,3.5,1.542,7.135,2.706,10.614.8,2.375-.979,4.659-3.118,5.4a177.531,177.531,0,0,0-22.161,9.343c3.976,10.071,3.524,18.913,8.871,30.952l22.422-4.669c12.025-1.557,11.7,2.5,21.182,6.837,2.3,1.06,2.505,4,1.607,5.995-3.268,7.245-5.844,23.3-8.335,32.121l19.451,13.215,20.524-18.682c2.862-2.148,3.7-2.977,7.457-1.34,3.854,1.677,11.29,3.952,13.539,7.1l4.8,9.367c1.651-2.179,7.1,1.994,12.175,4.434,3.545,1.712,7.144,3.329,10.765,4.869,1.314.559.392,2.834-.955,2.341l-20.6-8.69,6.8,12.934,35.872-3.37a90.817,90.817,0,0,1-3.013-30.068c.131-1.9,1.316-4.077,3.39-4.448,3.55-.638,12.49-3.715,13.63,2.1l21.841,11.08,16.267-32.2L856.646,710.1a4.512,4.512,0,0,1-1.154-4.318,136.752,136.752,0,0,1,5-13.551c1.176-2.6,3.59-1.33,4.79-1.967l11.566-7.557a101.862,101.862,0,0,1,13.546-6.552,104.593,104.593,0,0,0-13.51-26.2c-11.035.889-22.066,1.808-33.117,2.541a4.409,4.409,0,0,1-3.9-2.25,102.966,102.966,0,0,0-5.723-9.82c-7.622-11.5-8.471-7.24-3.886-19.957,1.024-2.837,5.732-16.7,4.146-18.877-4.95-6.8-18.565-11.121-27-16.99l-17.773,17.7c-2.278,1.375-3.961-.041-5-.7l-18.666-6.823a4.3,4.3,0,0,1-3.108-3.078l-3.489-15.916c-.313-1.225-.863-2.615-1.135-3.921l-23.542-.241c-.643.016-1.521.176-2.26.162l-2.636,10.086q-1.266,5.353-2.37,10.739c-.737,3.564-.914,7.812-2.851,10.95a4.121,4.121,0,0,1-2.406,1.762c-1.335.848-7.495,9.137-14.343,9.088l-22.889-3.836c-.871,1.386-2.528,3.595-2.769,3.967ZM780.6,652.675a43.143,43.143,0,0,1,8.048,4.142c4.75,3.229,9.581,8.289,10.031,14.3a1.335,1.335,0,0,1-.838,1.315,22.681,22.681,0,0,1,.884,9.564,23.055,23.055,0,0,1-7.083,14.213,25.882,25.882,0,0,1-14.37,6.627c-6.235.769-11.929-1.306-17.521-3.845a31.809,31.809,0,0,1-8.4-4.921c-2.365-2.133-3.906-5.01-5.312-7.827-2.8-5.6-4.549-11.391-2.31-17.531,3.786-10.383,15.8-19.646,27.132-18.778a32.213,32.213,0,0,1,9.734,2.743Zm-90.425,52.516c6.246.618,12.507.918,18.777.939a1.507,1.507,0,0,1,.021,3.012,192.066,192.066,0,0,1-19.832-.176q-4.866-.3-9.7-.924c-2.36-.3-6.327-.713-7.551-3.092a1.234,1.234,0,0,1,.748-1.783c1.376-.255,2.6.267,3.977.407l3.87.457q4.829.671,9.685,1.16ZM791.1,765.378c2-.16,4.162,1.5,5.965,2.269,2.39,1.021,4.829,1.894,7.3,2.677,1.386.433.838,2.6-.563,2.188-2.591-.758-5.146-1.621-7.652-2.625-1.907-.764-4.658-1.406-5.794-3.214a.878.878,0,0,1,.744-1.295Zm48.368-81.31c.739-1.491,2.717-1.917,4.243-2.043,2.139-.175,4.313-.08,6.457-.146a69.645,69.645,0,0,0,14.037-1.807,1.15,1.15,0,0,1,.6,2.219,96.566,96.566,0,0,1-12.893,2.616c-2.125.276-4.238.366-6.378.456-1.676.076-3.914.653-5.5.051a.937.937,0,0,1-.563-1.346Zm-132.208-8.4a29.345,29.345,0,0,0,4.152-.206,2.027,2.027,0,0,1,2.028,2,2.059,2.059,0,0,1-2,2.023c-2.49.266-6.231.748-7.863-1.637a.989.989,0,0,1,.165-1.189,5.329,5.329,0,0,1,3.521-.989Zm-.426,12.612c1.917.306,1.144,3.233-.758,2.921-2.038-.336-4.057-.743-6.06-1.245-1.611-.407-3.168-.723-4.167-2.129a.8.8,0,0,1,.482-1.155c1.586-.6,3.213.095,4.789.472,1.888.458,3.8.83,5.714,1.136Zm-1.728,8.69a1.366,1.366,0,0,1,.016,2.731,46.974,46.974,0,0,1-8.541-.834c-2.063-.4-5.989-.743-7.073-2.781a.992.992,0,0,1,.592-1.416c1.155-.457,2.089.045,3.219.4,1.2.377,2.42.693,3.645.964a42.992,42.992,0,0,0,8.142.94ZM801,764.264a.783.783,0,0,1,.472-1.13c1.452-.411,2.763.246,4.128.733l4.91,1.727c1.627.578.954,3.193-.678,2.6l-5.227-1.867c-1.4-.5-2.722-.824-3.6-2.068Zm47.626-90.9c1.34-1.095,3.083-1.109,4.749-1.275,2.189-.21,4.358-.507,6.537-.8a90.448,90.448,0,0,0,12.462-2.55,1.277,1.277,0,0,1,.662,2.465c-4.132,1.174-8.294,2.294-12.517,3.112-1.908.372-3.84.633-5.779.874-1.882.236-4.207.772-5.914-.267a.994.994,0,0,1-.2-1.555Zm-8.837,22.577a66.8,66.8,0,0,0,12.181-2.154,1.436,1.436,0,0,1,.743,2.772,66.113,66.113,0,0,1-11.276,2.53c-1.637.211-8.917,1.747-9.3-.989-.382-2.67,6.18-2.042,7.651-2.159ZM829.9,709a1.017,1.017,0,0,1,.005-1.019c.658-1.165,1.737-1.25,2.973-1.375,1.746-.18,3.5-.21,5.246-.337a99.166,99.166,0,0,0,10.348-1.3c2.028-.367,2.887,2.736.834,3.118-3.464.647-6.965,1.189-10.463,1.616-2.376.292-7.361,1.662-8.943-.7Zm8.662,5.222,3.932-.583c1.414-.21,2.032,1.943.587,2.184l-4.107.688c-1.054.171-2.561.738-3.374-.216a.777.777,0,0,1-.119-.883C835.948,714.3,837.534,714.374,838.559,714.223Z" fill="#fff" fill-rule="evenodd"/>
  <path id="Path_224" data-name="Path 224" d="M1205.8,830.1V875.82" fill="none" stroke="#250c03" stroke-linecap="round" stroke-linejoin="round" stroke-miterlimit="22.926" stroke-width="2.835" fill-rule="evenodd"/>
  <path id="Path_225" data-name="Path 225" d="M1228.66,852.968h-45.72" fill="none" stroke="#250c03" stroke-linecap="round" stroke-linejoin="round" stroke-miterlimit="22.926" stroke-width="2.835" fill-rule="evenodd"/>
  <path id="Path_226" data-name="Path 226" d="M685.124,1029.28a30.419,30.419,0,0,0-5.608.11.221.221,0,0,0-.051.021.18.18,0,0,0-.055-.01,48.186,48.186,0,0,1-5.583.09c-.111-.01-2.491-.673-2.582.994-.1,1.948,2.28,2.681,2.39,2.723a12.53,12.53,0,0,0,5.553.612.223.223,0,0,0,.056-.011.076.076,0,0,0,.049.005,40.023,40.023,0,0,0,5.639-.818c.115-.021,2.55-.1,2.641-1.843.1-1.863-2.344-1.853-2.449-1.873Zm-102.933-3.23c-60.774-.226-121.78.663-182.565,1.356-.562.009-1.13.024-1.691.05-.583-.011-1.17-.016-1.753-.011q-91.064,1.024-182,1.281c-3.635.005-82.4-1.281-82.549,3.118-.166,5.12,78.874,6.6,82.433,6.687,60.539,1.525,121.67,1.251,182.243.572.583-.01,1.17-.025,1.753-.05.567.021,1.129.021,1.691.011,60.795-.693,121.75-1.808,182.53-3.214,3.595-.081,83.016-.737,83.016-5.347,0-4.923-79.526-4.443-83.111-4.453Zm-461.2,1.8a50.014,50.014,0,0,0-9.173.19.174.174,0,0,0-.086.03.154.154,0,0,0-.084-.02,76.191,76.191,0,0,1-9.138.141c-.186-.005-4.082-1.086-4.223,1.637-.171,3.183,3.73,4.377,3.906,4.447a20.62,20.62,0,0,0,9.092,1.009.828.828,0,0,0,.091-.024.105.105,0,0,0,.079.01,66.94,66.94,0,0,0,9.229-1.335c.18-.03,4.172-.16,4.317-3.017C125.154,1027.85,121.163,1027.88,120.987,1027.85Z" fill="#250c03" fill-rule="evenodd"/>
  <path id="Path_227" data-name="Path 227" d="M1297.98,1029.28a30.4,30.4,0,0,0-5.607.11.22.22,0,0,0-.051.021.174.174,0,0,0-.055-.01,48.2,48.2,0,0,1-5.584.09c-.109-.01-2.488-.673-2.58.994-.1,1.948,2.279,2.681,2.391,2.723a12.524,12.524,0,0,0,5.552.612.269.269,0,0,0,.062-.011.071.071,0,0,0,.05.005,39.965,39.965,0,0,0,5.633-.818c.111-.021,2.551-.1,2.642-1.843.1-1.863-2.353-1.853-2.453-1.873Zm-102.93-3.23c-60.774-.226-121.781.663-182.57,1.356-.562.009-1.125.024-1.688.05-.581-.011-1.169-.016-1.757-.011q-91.056,1.024-181.991,1.281c-3.631.005-82.4-1.281-82.55,3.118-.166,5.12,78.869,6.6,82.434,6.687,60.538,1.525,121.669,1.251,182.238.572.587-.01,1.175-.025,1.758-.05.562.021,1.124.021,1.691.011,60.794-.693,121.745-1.808,182.524-3.214,3.6-.081,83.021-.737,83.021-5.347,0-4.923-79.52-4.443-83.11-4.453Zm-461.2,1.8a49.949,49.949,0,0,0-9.168.19.14.14,0,0,0-.085.03.186.186,0,0,0-.091-.02,76.178,76.178,0,0,1-9.137.141c-.186-.005-4.077-1.086-4.223,1.637-.17,3.183,3.736,4.377,3.912,4.447a20.59,20.59,0,0,0,9.087,1.009.57.57,0,0,0,.09-.024.118.118,0,0,0,.085.01,66.967,66.967,0,0,0,9.223-1.335c.186-.03,4.177-.16,4.318-3.017C738.016,1027.85,734.024,1027.88,733.849,1027.85Z" fill="#250c03" fill-rule="evenodd"/>
  <path id="Path_228" data-name="Path 228" d="M1130.52,799.057a5.705,5.705,0,0,1,3.043,2.289c1.314,1.934,2.636,3.865,3.835,5.879,5.212,8.771,9.123,18.285,12.581,27.854a207.007,207.007,0,0,1,8.46,30.294c3.66,18.506,4.88,37.68,2.043,56.392,3.273,5.709,6.543,11.433,10.253,16.869,7.753,11.367,16.89,21.7,24.917,32.88a134.258,134.258,0,0,1,10.739,17.222c1.266,2.489,2.44,5.041,3.474,7.632,3.62,5.376,4.333,12.611,3.49,18.9-1.149,8.585-5.452,16.262-11.231,22.6a79.75,79.75,0,0,1-17.646,13.917,181.07,181.07,0,0,1-19.651,10.322,205.878,205.878,0,0,1-43.534,14.188,197.678,197.678,0,0,1-45.777,3.826c-1.325-.035-2.646-.106-3.967-.192-2.861,1.376-6.211.875-9.258.614-3.063-.268-6.115-.693-9.143-1.216q-1.469-.257-2.927-.542a3.76,3.76,0,0,1-.713-.011,74.967,74.967,0,0,1-8.063-1.325c-10.4-2.209-20.615-5.182-30.816-8.144q-15.423-4.486-30.636-9.649a456.107,456.107,0,0,1-58.942-24.731,331.275,331.275,0,0,1-49.3-30.525,259.865,259.865,0,0,1-41.094-38.146,237.384,237.384,0,0,1-17.186-22.548,123.921,123.921,0,0,1-7.209-11.955c-1.069-2.072-2.134-4.146-3.1-6.265-1-2.179-1.518-4.469-2.291-6.713a3.411,3.411,0,0,1,1.1-3.9q-.172-1.161-.331-2.32a91.976,91.976,0,0,1-.778-19.762,60.015,60.015,0,0,1,3.966-17.371,49.823,49.823,0,0,1,4.072-8.1c1.411-2.229,3.179-5.075,5.608-6.457a154.2,154.2,0,0,1,19.535-62.266,157.319,157.319,0,0,1,66.739-63.129,190.074,190.074,0,0,1,92.976-19.485,167.1,167.1,0,0,1,46.857,8.726c17.071,5.919,33.81,13.254,48.209,24.334a151.844,151.844,0,0,1,33.312,36.338C1125.09,789.828,1127.91,794.387,1130.52,799.057Z" fill="#250c03" fill-rule="evenodd"/>
  <path id="Path_229" data-name="Path 229" d="M835.13,916.734c-.794-.718-1.622-1.391-2.444-2.064a1.836,1.836,0,0,0-2.7.338,97.143,97.143,0,0,1-4.961-16.162,4.236,4.236,0,0,0,.261-1.878c-.607-7.264-1.445-14.535-1.439-21.83a124.462,124.462,0,0,1,1.813-21.045A145,145,0,0,1,839.3,813.476a153.408,153.408,0,0,1,37.373-47.556c18.967-4.559,39.777.889,57.545,7.707a186.933,186.933,0,0,1,118.637,150.08,191.661,191.661,0,0,1-3.892,71.7c-.6,2.414-1.149,4.834-1.621,7.273q-6.086.754-12.21,1.225c-6.446.519-12.9.8-19.36,1-5.15.156-10.3.024-15.452.23q-3.39-.156-6.769-.375c-8.254-.568-16.487-1.527-24.646-2.894a265.316,265.316,0,0,1-49.1-13.2,230.378,230.378,0,0,1-43.618-21.569c-12.888-8.283-25.019-18.391-34.211-30.73a95.683,95.683,0,0,1-10.533-17.934c.372.371.743.738,1.135,1.1a5.011,5.011,0,0,0,3.033,1.748c1.068.1,1.631-1.057,1.47-1.93A5,5,0,0,0,835.13,916.734Z" fill="#fbaa3b" fill-rule="evenodd"/>
  <path id="Path_230" data-name="Path 230" d="M835.13,916.734c-.794-.718-1.622-1.391-2.444-2.064a1.836,1.836,0,0,0-2.7.338,97.143,97.143,0,0,1-4.961-16.162,4.236,4.236,0,0,0,.261-1.878c-.607-7.264-1.445-14.535-1.439-21.83a124.462,124.462,0,0,1,1.813-21.045A145,145,0,0,1,839.3,813.476a153.408,153.408,0,0,1,37.373-47.556s-68.216,151.422,20.754,213.115A213.372,213.372,0,0,1,876.195,967.1c-12.888-8.283-25.019-18.391-34.211-30.73a95.683,95.683,0,0,1-10.533-17.934c.372.371.743.738,1.135,1.1a5.011,5.011,0,0,0,3.033,1.748c1.068.1,1.631-1.057,1.47-1.93a5.01,5.01,0,0,0-1.959-2.616ZM961.955,1000.6,897.43,979.031c7.3,3.58,14.791,6.777,22.382,9.63A264.413,264.413,0,0,0,961.955,1000.6Z" fill="#f79239" fill-rule="evenodd"/>
  <path id="Path_231" data-name="Path 231" d="M816.408,897.33a69.33,69.33,0,0,1-1.788-10.453c-.136-1.346-.252-2.682-.342-4.027a54.006,54.006,0,0,0-1.917,11.367,84.741,84.741,0,0,0,.838,17.432c.458,3.193,1,6.365,1.526,9.549a43.361,43.361,0,0,1,.683,5.157c.006.21.016.426.025.637.311.462.623.925.929,1.391,2.817,4.252,5.647,8.5,8.649,12.627a222.691,222.691,0,0,0,19.029,22.644c25.726,26.93,56.9,47.977,90.34,64.153a528.757,528.757,0,0,0,57.417,23.331q14.655,5.082,29.511,9.574c5.062,1.536,10.152,3,15.2,4.579,1.416.441,2.842.873,4.259,1.3,1.054.222,2.1.434,3.157.623a88.637,88.637,0,0,0,11.6,1.355c3.962.182,7.933.187,11.9.276s7.948.086,11.919.016a202.365,202.365,0,0,0,81.229-18.285c11.9-5.528,24.672-12.029,33.413-22.061a30.849,30.849,0,0,0,7.379-15.474,21.812,21.812,0,0,0,.182-5.111c-.252-.532-.482-1.074-.713-1.616q-1.07-2.553-2.078-5.137a81.769,81.769,0,0,0-4.55-9.539c-6.486-11.733-15.091-22.136-23.174-32.774-4.188-5.518-8.265-11.13-11.9-17.034-.783-1.271-1.536-2.551-2.26-3.856a96.731,96.731,0,0,1-28.356,44.85c-17.154,15.112-38.838,24.375-61.075,28.974a219.56,219.56,0,0,1-40.672,4.057c-1.727.029-3.454.051-5.182.051a5.523,5.523,0,0,1-2.179.662,140.4,140.4,0,0,1-15.152,1c-5.025-.055-10.041-.371-15.052-.793a279.6,279.6,0,0,1-29.942-4.167,268.75,268.75,0,0,1-50.659-15.183c-15.979-6.567-31.549-14.415-45.632-24.476-13.872-9.911-26.172-22.135-34.813-36.911a90.178,90.178,0,0,1-9.654-22.99A65.882,65.882,0,0,1,816.408,897.33Z" fill="#fbaa3b" fill-rule="evenodd"/>
  <path id="Path_232" data-name="Path 232" d="M816.408,897.33a69.33,69.33,0,0,1-1.788-10.453c-.136-1.346-.252-2.682-.342-4.027a54.006,54.006,0,0,0-1.917,11.367,84.741,84.741,0,0,0,.838,17.432c.458,3.193,1,6.365,1.526,9.549a43.361,43.361,0,0,1,.683,5.157c.006.21.016.426.025.637.311.462.623.925.929,1.391,2.817,4.252,5.647,8.5,8.649,12.627a222.691,222.691,0,0,0,19.029,22.644c25.726,26.93,56.9,47.977,90.34,64.153a528.757,528.757,0,0,0,57.417,23.331q14.655,5.082,29.511,9.574c5.062,1.536,10.152,3,15.2,4.579,1.416.441,2.842.873,4.259,1.3,1.054.222,2.1.434,3.157.623a88.637,88.637,0,0,0,11.6,1.355c3.962.182,7.933.187,11.9.276s7.948.086,11.919.016a202.365,202.365,0,0,0,81.229-18.285c11.9-5.528,24.672-12.029,33.413-22.061a30.849,30.849,0,0,0,7.379-15.474,21.812,21.812,0,0,0,.182-5.111c-120.3,70.54-189.7,9.343-189.7,9.343-2.531.2-5.057.322-7.592.292-5.025-.055-10.041-.371-15.052-.793a279.6,279.6,0,0,1-29.942-4.167,268.75,268.75,0,0,1-50.659-15.183c-15.979-6.567-31.549-14.415-45.632-24.476-13.872-9.911-26.172-22.135-34.813-36.911a90.178,90.178,0,0,1-9.654-22.99A65.853,65.853,0,0,1,816.408,897.33Z" fill="#f79239" fill-rule="evenodd"/>
  <path id="Path_233" data-name="Path 233" d="M1027.18,757.6a2.277,2.277,0,0,1-3.515,1.276c-2.65-1.878-5.553-3.39-8.3-5.121s-5.544-3.465-8.39-5.066a135.4,135.4,0,0,0-32.148-12.8,131.682,131.682,0,0,0-16.988-3.188q-4.292-.527-8.6-.824c-.242-.014-.481-.03-.723-.04a170.066,170.066,0,0,0-51.437,19.58q-3.141,1.845-6.191,3.848a99.247,99.247,0,0,1,18.757,1.837,165.324,165.324,0,0,1,34.1,10.724,198.52,198.52,0,0,1,57.069,36.991,192.51,192.51,0,0,1,61.8,127.148,197.444,197.444,0,0,1-.481,37.9,188.9,188.9,0,0,1-3.012,18.736,114.8,114.8,0,0,1-3.35,12.878c5.458-.878,10.89-1.982,16.242-3.369,18.907-4.89,37.3-13.61,51.4-27.332,2.129-6.712,4.278-13.425,5.794-20.3a170.69,170.69,0,0,0,3.671-24.938,154.119,154.119,0,0,0-39.4-114.665c-8.888-9.861-19.209-18.2-29.4-26.659a3.122,3.122,0,0,1-.412-4.539C1050.35,769.238,1034,760.89,1027.18,757.6Z" fill="#fff" fill-rule="evenodd"/>
  <path id="Path_234" data-name="Path 234" d="M975.642,728.331a148.235,148.235,0,0,1,20.408,7.405,142.745,142.745,0,0,1,16.172,8.611,75.195,75.195,0,0,1,7.58,5.086c2.319,1.843,4.46,3.89,6.7,5.835a2.175,2.175,0,0,1,.724,1.123c6.587,3.164,23.526,11.729,37.272,22.522a3.32,3.32,0,0,1,3.484-.241c13.883,7.119,25.775,18.527,35.727,30.38a161.039,161.039,0,0,1,37.254,123.227,151.979,151.979,0,0,1-3.907,20.941,97.223,97.223,0,0,0,11.548-34.9c2.7-19.1.662-39.246-3.852-57.933a216.69,216.69,0,0,0-12.938-37.107c-.116-.21-.235-.41-.352-.617-7.862-13.38-15.584-26.931-25.244-39.121-9.447-11.919-20.579-22.668-33.507-30.766a148.527,148.527,0,0,0-23.521-11.759,195.44,195.44,0,0,0-22.738-7.767,162.835,162.835,0,0,0-44.081-5.151C980.13,728.135,977.881,728.21,975.642,728.331Z" fill="#fbaa3b" fill-rule="evenodd"/>
  <path id="Path_235" data-name="Path 235" d="M1130.52,799.057a5.705,5.705,0,0,1,3.043,2.289c1.314,1.934,2.636,3.865,3.835,5.879,5.212,8.771,9.123,18.285,12.581,27.854a207.007,207.007,0,0,1,8.46,30.294c3.66,18.506,4.88,37.68,2.043,56.392,3.273,5.709,6.543,11.433,10.253,16.869,7.753,11.367,16.89,21.7,24.917,32.88a134.258,134.258,0,0,1,10.739,17.222c1.266,2.489,2.44,5.041,3.474,7.632,3.62,5.376,4.333,12.611,3.49,18.9-1.149,8.585-5.452,16.262-11.231,22.6a79.75,79.75,0,0,1-17.646,13.917,181.07,181.07,0,0,1-19.651,10.322,205.878,205.878,0,0,1-43.534,14.188,197.678,197.678,0,0,1-45.777,3.826c-1.325-.035-2.646-.106-3.967-.192-2.861,1.376-6.211.875-9.258.614-3.063-.268-6.115-.693-9.143-1.216q-1.469-.257-2.927-.542a3.76,3.76,0,0,1-.713-.011,74.967,74.967,0,0,1-8.063-1.325c-10.4-2.209-20.615-5.182-30.816-8.144q-15.423-4.486-30.636-9.649a456.107,456.107,0,0,1-58.942-24.731,331.275,331.275,0,0,1-49.3-30.525,259.865,259.865,0,0,1-41.094-38.146,237.384,237.384,0,0,1-17.186-22.548,123.921,123.921,0,0,1-7.209-11.955c-1.069-2.072-2.134-4.146-3.1-6.265-1-2.179-1.518-4.469-2.291-6.713a3.411,3.411,0,0,1,1.1-3.9q-.172-1.161-.331-2.32a91.976,91.976,0,0,1-.778-19.762,60.015,60.015,0,0,1,3.966-17.371,49.823,49.823,0,0,1,4.072-8.1c1.411-2.229,3.179-5.075,5.608-6.457a154.2,154.2,0,0,1,19.535-62.266,157.319,157.319,0,0,1,66.739-63.129,190.074,190.074,0,0,1,92.976-19.485,167.1,167.1,0,0,1,46.857,8.726c17.071,5.919,33.81,13.254,48.209,24.334a151.844,151.844,0,0,1,33.312,36.338c2.959,4.45,5.779,9.009,8.389,13.679ZM975.642,728.331a148.235,148.235,0,0,1,20.408,7.405,142.745,142.745,0,0,1,16.172,8.611,75.195,75.195,0,0,1,7.58,5.086c2.319,1.843,4.46,3.89,6.7,5.835a2.3,2.3,0,0,1-2.832,3.609c-2.65-1.878-5.553-3.39-8.3-5.121s-5.544-3.465-8.39-5.066a135.4,135.4,0,0,0-32.148-12.8,131.682,131.682,0,0,0-16.988-3.188q-4.292-.527-8.6-.824c-.242-.014-.481-.03-.723-.04a170.066,170.066,0,0,0-51.437,19.58q-3.141,1.845-6.191,3.848a99.247,99.247,0,0,1,18.757,1.837,165.324,165.324,0,0,1,34.1,10.724,198.521,198.521,0,0,1,57.069,36.991,192.51,192.51,0,0,1,61.8,127.148,197.444,197.444,0,0,1-.481,37.9,188.9,188.9,0,0,1-3.012,18.736,114.8,114.8,0,0,1-3.35,12.878c5.458-.878,10.89-1.982,16.242-3.369,18.907-4.89,37.3-13.61,51.4-27.332,2.129-6.712,4.278-13.425,5.794-20.3a170.69,170.69,0,0,0,3.671-24.938,154.119,154.119,0,0,0-39.4-114.665c-8.888-9.861-19.209-18.2-29.4-26.659-3.128-2.6.456-7.3,3.891-5.544,13.883,7.119,25.775,18.527,35.727,30.38A161.039,161.039,0,0,1,1140.96,932.28a151.979,151.979,0,0,1-3.907,20.941,97.223,97.223,0,0,0,11.548-34.9c2.7-19.1.662-39.246-3.852-57.933a216.69,216.69,0,0,0-12.938-37.107c-.116-.21-.235-.41-.352-.617-7.862-13.38-15.584-26.931-25.244-39.121-9.447-11.919-20.579-22.668-33.507-30.766a148.527,148.527,0,0,0-23.521-11.759,195.44,195.44,0,0,0-22.738-7.767,162.835,162.835,0,0,0-44.081-5.151c-2.238.039-4.487.114-6.726.235Zm24.678,276.809c5.151-.206,10.3-.074,15.452-.23,6.457-.2,12.914-.481,19.36-1q6.114-.48,12.21-1.225c.472-2.439,1.024-4.859,1.621-7.273a191.68,191.68,0,0,0,3.892-71.7,188.448,188.448,0,0,0-118.637-150.08c-17.768-6.818-38.578-12.266-57.545-7.707A153.4,153.4,0,0,0,839.3,813.48,144.972,144.972,0,0,0,825.654,854.1a124.557,124.557,0,0,0-1.813,21.045c-.006,7.295.832,14.566,1.439,21.83a4.222,4.222,0,0,1-.261,1.878,96.9,96.9,0,0,0,16.96,37.52c9.192,12.34,21.323,22.447,34.211,30.73a230.375,230.375,0,0,0,43.618,21.569,265.3,265.3,0,0,0,49.1,13.2c8.158,1.366,16.392,2.325,24.646,2.894,2.257.144,4.511.264,6.768.374ZM816.408,897.33a69.33,69.33,0,0,1-1.788-10.453c-.136-1.346-.252-2.682-.342-4.027a54.006,54.006,0,0,0-1.917,11.367,84.741,84.741,0,0,0,.838,17.432c.458,3.193,1,6.365,1.526,9.549a43.361,43.361,0,0,1,.683,5.157c.006.21.016.426.025.637.311.462.623.925.929,1.391,2.817,4.252,5.647,8.5,8.649,12.627a222.691,222.691,0,0,0,19.029,22.644c25.726,26.93,56.9,47.977,90.34,64.153a528.757,528.757,0,0,0,57.417,23.331q14.655,5.082,29.511,9.574c5.062,1.536,10.152,3,15.2,4.579,1.416.441,2.842.873,4.259,1.3,1.054.222,2.1.434,3.157.623a88.637,88.637,0,0,0,11.6,1.355c3.962.182,7.933.187,11.9.276s7.948.086,11.919.016a202.365,202.365,0,0,0,81.229-18.285c11.9-5.528,24.672-12.029,33.413-22.061a30.849,30.849,0,0,0,7.379-15.474,21.812,21.812,0,0,0,.182-5.111c-.252-.532-.482-1.074-.713-1.616q-1.07-2.553-2.078-5.137a81.769,81.769,0,0,0-4.55-9.539c-6.486-11.733-15.091-22.136-23.174-32.774-4.188-5.518-8.265-11.13-11.9-17.034-.783-1.271-1.536-2.551-2.26-3.856a96.731,96.731,0,0,1-28.356,44.85c-17.154,15.112-38.838,24.375-61.075,28.974a219.56,219.56,0,0,1-40.672,4.057c-1.727.029-3.454.051-5.182.051a5.523,5.523,0,0,1-2.179.662,140.4,140.4,0,0,1-15.152,1c-5.025-.055-10.041-.371-15.052-.793a279.6,279.6,0,0,1-29.942-4.167,268.75,268.75,0,0,1-50.659-15.183c-15.979-6.567-31.549-14.415-45.632-24.476-13.872-9.911-26.172-22.135-34.813-36.911a90.178,90.178,0,0,1-9.654-22.99A65.882,65.882,0,0,1,816.408,897.33Z" fill="#250c03" fill-rule="evenodd"/>
  <path id="Path_236" data-name="Path 236" d="M1049.83,772.547c1.556.724,2.932-1.535,1.365-2.338a16.127,16.127,0,0,1-4.067-2.913c-1.1-1.095-2-2.446-3.357-3.243a.907.907,0,0,0-1.36.772C1042.63,768.426,1046.88,771.182,1049.83,772.547Z" fill="#250c03" fill-rule="evenodd"/>
  <path id="Path_237" data-name="Path 237" d="M1016.7,1053.83q-2.042-1.642-4.082-3.289c-1.491-1.2-3.62.9-2.123,2.118q2.139,1.74,4.271,3.47c1.13.919,2.354,2.37,3.946,1.918a.9.9,0,0,0,.639-.843C1019.46,1055.6,1017.79,1054.72,1016.7,1053.83Z" fill="#250c03" fill-rule="evenodd"/>
  <path id="Path_238" data-name="Path 238" d="M1041.07,1060.96c-1.763-1.4-3.55-2.747-5.407-4.018a67.327,67.327,0,0,0-11.939-6.677c-1.768-.732-2.61,1.959-1.226,2.923,3.721,2.591,7.567,5.009,11.227,7.69,1.823,1.336,3.565,2.792,5.413,4.107,1.1.782,3.644,2.4,4.589.532C1044.6,1063.8,1042.2,1061.86,1041.07,1060.96Z" fill="#250c03" fill-rule="evenodd"/>
  <path id="Path_239" data-name="Path 239" d="M1063.93,1061.24a77.394,77.394,0,0,0-6.8-4.132,64.177,64.177,0,0,0-14.495-6.19c-1.747-.455-2.988,2.154-1.271,3,4.559,2.26,9.229,4.268,13.646,6.808,2.129,1.22,4.187,2.541,6.235,3.886,1.612,1.056,4.378,3.68,6.406,2.9a1.341,1.341,0,0,0,.924-1.215C1068.78,1064.09,1065.5,1062.34,1063.93,1061.24Z" fill="#250c03" fill-rule="evenodd"/>
  <path id="Path_240" data-name="Path 240" d="M1078.27,1055.09a31.424,31.424,0,0,0-8.62-3.609c-1.942-.443-3.414,2.429-1.431,3.383,2.67,1.285,5.342,2.4,7.9,3.9,2.273,1.316,4.653,3.52,7.335,3.775a1.226,1.226,0,0,0,1.17-1.537C1083.84,1058.26,1080.58,1056.43,1078.27,1055.09Z" fill="#250c03" fill-rule="evenodd"/>
  <path id="Path_241" data-name="Path 241" d="M1099.61,1053.43c-2.942-1.551-5.794-3.253-8.575-5.079-2.42-1.593-4.659,2.283-2.26,3.87,2.862,1.888,5.805,3.649,8.837,5.251,2.479,1.307,6.135,3.686,9.042,2.737a1.153,1.153,0,0,0,.673-1.663C1106.05,1055.9,1102.05,1054.72,1099.61,1053.43Z" fill="#250c03" fill-rule="evenodd"/>
  <path id="Path_242" data-name="Path 242" d="M1118.08,1049.35a16.093,16.093,0,0,0-7.221-1.455c-2.855.09-2.87,4.4,0,4.447a11.984,11.984,0,0,1,5.343,1.285c1.451.753,3.154,2.029,4.865,1.889a1.221,1.221,0,0,0,1.189-1.19C1122.46,1051.97,1119.94,1050.2,1118.08,1049.35Z" fill="#250c03" fill-rule="evenodd"/>
  <path id="Path_243" data-name="Path 243" d="M1130.52,1044.56c-2.36-1.311-4.469,2.289-2.119,3.615,2.642,1.5,5.4,3.514,8.345,4.327a1.869,1.869,0,0,0,1.807-3.1C1136.31,1047.32,1133.18,1046.02,1130.52,1044.56Z" fill="#250c03" fill-rule="evenodd"/>
  <path id="Path_244" data-name="Path 244" d="M1148.24,1040.92c-1.245-.421-2.485-.843-3.729-1.266a2.672,2.672,0,0,0-3.254,1.849,2.713,2.713,0,0,0,1.848,3.254q1.731.639,3.464,1.289c1.306.482,2.495,1.02,3.9.563a2.363,2.363,0,0,0,1.4-3.439C1150.98,1041.79,1149.72,1041.42,1148.24,1040.92Z" fill="#250c03" fill-rule="evenodd"/>
  <path id="Path_245" data-name="Path 245" d="M835.13,916.734c-.794-.718-1.622-1.391-2.444-2.064-1.718-1.409-4.092.824-2.492,2.48.785.814,1.566,1.617,2.391,2.381a5.011,5.011,0,0,0,3.033,1.748c1.063.1,1.631-1.057,1.47-1.93A5,5,0,0,0,835.13,916.734Z" fill="#250c03" fill-rule="evenodd"/>
  <path id="Path_246" data-name="Path 246" d="M835.767,905.183a22.221,22.221,0,0,0-4.322-3.239c-1.542-.758-3.641.869-2.536,2.535a22.929,22.929,0,0,0,3.912,4.087,14.471,14.471,0,0,0,4.513,3.319c1.707.632,2.948-1.487,2.214-2.881C838.719,907.422,837.113,906.311,835.767,905.183Z" fill="#250c03" fill-rule="evenodd"/>
  <path id="Path_247" data-name="Path 247" d="M831.986,895.261c1.421,1.472,2.525,3.405,4.478,4.178a1.8,1.8,0,0,0,2.265-1.728c-.225-2.278-2.123-3.966-3.7-5.486a14.893,14.893,0,0,0-5.538-3.721c-1.215-.393-2.551,1.174-1.748,2.273A44.237,44.237,0,0,0,831.986,895.261Z" fill="#250c03" fill-rule="evenodd"/>
  <path id="Path_248" data-name="Path 248" d="M831.434,881.445c1.412,1.506,2.65,3.67,4.564,4.548a1.914,1.914,0,0,0,2.771-2.134c-.371-2.164-2.4-3.951-3.856-5.468a20.93,20.93,0,0,0-5.222-4.357c-1.575-.8-3.965.974-2.69,2.69A56.738,56.738,0,0,0,831.434,881.445Z" fill="#250c03" fill-rule="evenodd"/>
  <path id="Path_249" data-name="Path 249" d="M826.729,865.087c1.743,1.492,3.47,2.993,5.182,4.52a39.991,39.991,0,0,0,5.292,4.408c2.534,1.575,5-1.918,3.092-4.007a38.495,38.495,0,0,0-5.08-4.148q-2.605-2.017-5.176-4.081C827.733,859.931,824.421,863.1,826.729,865.087Z" fill="#250c03" fill-rule="evenodd"/>
  <path id="Path_250" data-name="Path 250" d="M828.366,853.219c1.708,1.445,3.4,2.922,5.122,4.348,1.455,1.2,3.092,2.621,5.1,2.068a1.08,1.08,0,0,0,.783-1.024c.092-2.073-1.727-3.368-3.212-4.5-1.777-1.355-3.575-2.686-5.368-4.031S826.644,851.752,828.366,853.219Z" fill="#250c03" fill-rule="evenodd"/>
  <path id="Path_251" data-name="Path 251" d="M834.994,839.758a17.046,17.046,0,0,0,5.016,3.073c1.229.372,2.626-1.189,1.781-2.325a8.992,8.992,0,0,0-2.334-2.238c-.858-.582-1.723-1.16-2.576-1.737a1.885,1.885,0,0,0-2.559.673A1.91,1.91,0,0,0,834.994,839.758Z" fill="#250c03" fill-rule="evenodd"/>
  <path id="Path_252" data-name="Path 252" d="M837.624,825.911c.7.588,1.392,1.21,2.149,1.724a3.866,3.866,0,0,0,2.8.656,1.542,1.542,0,0,0,1.123-1.47c0-.081-.039-.353-.061-.514,0,.1-.01.026-.035-.239a.973.973,0,0,0-.135-.5,5.265,5.265,0,0,0-.9-1.355,20.856,20.856,0,0,0-1.637-1.606,2.338,2.338,0,1,0-3.3,3.308Z" fill="#250c03" fill-rule="evenodd"/>
  <path id="Path_253" data-name="Path 253" d="M843.639,826.308v-.039C843.619,826.143,843.625,826.2,843.639,826.308Z" fill="#250c03" fill-rule="evenodd"/>
  <path id="Path_254" data-name="Path 254" d="M394.811,1219.99v40.246q0,9.459-5.547,14.589t-14.514,5.143q-8.986,0-14.53-5.162t-5.548-14.569v-40.246h11.537v40.235c0,3.585.748,6.251,2.244,7.953a7.894,7.894,0,0,0,6.3,2.556,8.156,8.156,0,0,0,6.38-2.445c1.451-1.617,2.189-4.308,2.189-8.063v-40.235h11.492Zm49.679,59.15h-11.5l-18.08-37.825-.246.084v37.741H403.09V1220h11.578l18.079,37.775.247-.08V1220h11.5v59.144Zm9.012,0V1220H471.37a18.975,18.975,0,0,1,15.032,6.889q5.949,6.885,5.935,17.732v9.941q0,10.859-5.935,17.723a19.009,19.009,0,0,1-15.032,6.858H453.5Zm11.578-49.92V1269.9h5.653a8.3,8.3,0,0,0,7.446-4.2q2.621-4.218,2.621-11.161V1244.5q0-6.907-2.621-11.1a8.321,8.321,0,0,0-7.446-4.188Zm66.618,23.96H511.832v16.725h23.361v9.232H500.255v-59.144h34.853v9.229H511.833v14.73H531.7v9.228Zm21.076,2.5v23.456H541.238v-59.063h19.3c5.824,0,10.382,1.536,13.711,4.6q4.969,4.616,4.975,12.808a14.8,14.8,0,0,1-2.078,7.974,14.546,14.546,0,0,1-6.045,5.342,11.373,11.373,0,0,1,6.558,5.11,18.168,18.168,0,0,1,2.013,8.932v4.187a25.565,25.565,0,0,0,.567,5.217,7.093,7.093,0,0,0,1.983,4.032v.858H570.282a6.723,6.723,0,0,1-1.788-4.217,46.538,46.538,0,0,1-.361-5.955v-4.012a11.3,11.3,0,0,0-1.813-6.848,6.056,6.056,0,0,0-5.176-2.425h-8.37Zm0-9.24H560.5a6.659,6.659,0,0,0,5.362-2.148,9.2,9.2,0,0,0,1.817-6.126,10.352,10.352,0,0,0-1.817-6.461,6.305,6.305,0,0,0-5.322-2.4h-7.763v17.135Zm90.94,13.63.12.252c.061,6.485-1.5,11.4-4.628,14.695q-4.722,4.954-13.893,4.95t-14.67-5.634q-5.469-5.611-5.473-15.925v-17.653q0-10.272,5.292-15.945,5.31-5.649,14.2-5.652,9.42,0,14.239,5.029t4.98,14.906l-.126.236H632.617c.166-3.886-.356-6.668-1.582-8.374s-3.339-2.565-6.376-2.565a6.787,6.787,0,0,0-5.975,3.047c-1.37,2.028-2.063,5.106-2.063,9.207v17.749c0,4.162.733,7.265,2.214,9.288a7.485,7.485,0,0,0,6.477,3.053q4.18,0,5.824-2.415t1.44-8.249h11.138Zm46.957-2.19q0,10.408-5.644,16.237-5.634,5.844-15.032,5.854-9.376,0-14.986-5.854t-5.6-16.237v-16.548q0-10.362,5.6-16.266t14.946-5.9q9.339,0,15.032,5.9t5.684,16.266v16.548Zm-11.492-16.68c0-4.228-.778-7.414-2.36-9.579a7.968,7.968,0,0,0-6.863-3.228,7.77,7.77,0,0,0-6.818,3.219c-1.511,2.133-2.279,5.331-2.279,9.588v16.679q0,6.432,2.319,9.64a8.835,8.835,0,0,0,13.641,0c1.582-2.139,2.36-5.352,2.36-9.64V1241.2Zm60.407,37.94h-11.5l-18.079-37.825-.247.084v37.741H698.181V1220h11.583l18.08,37.775.246-.08V1220h11.5v59.144Zm35.3-15.46a7.9,7.9,0,0,0-1.792-5.447,17.945,17.945,0,0,0-6.3-3.951q-9.233-3.229-13.837-7.294t-4.6-11.428a14.855,14.855,0,0,1,5.352-11.839q5.361-4.548,13.7-4.558,8.441,0,13.721,5.114a16.619,16.619,0,0,1,5.121,12.879l-.085.251h-11.2a10.012,10.012,0,0,0-2.037-6.517,6.942,6.942,0,0,0-5.724-2.495,7.027,7.027,0,0,0-5.384,2.063,7.35,7.35,0,0,0-1.927,5.21,6.037,6.037,0,0,0,2.149,4.775,30.377,30.377,0,0,0,7.471,4.158q8.406,2.853,12.66,7.208t4.243,11.8q0,7.666-5.116,12.021-5.121,4.338-13.615,4.338a22.785,22.785,0,0,1-14.64-4.937q-6.2-4.93-5.991-14.158l.086-.235h11.24c0,3.646.778,6.265,2.314,7.862q2.337,2.4,6.989,2.4c2.44,0,4.242-.653,5.422-1.938a7.6,7.6,0,0,0,1.78-5.285Zm53.571-34.46H815.132v49.915H803.594V1229.22H790.356v-9.229h38.1v9.229Zm17.134,26.46v23.456H834.06v-59.063h19.3q8.734,0,13.706,4.6t4.98,12.808a14.779,14.779,0,0,1-2.079,7.974,14.558,14.558,0,0,1-6.043,5.342,11.388,11.388,0,0,1,6.556,5.11,18.169,18.169,0,0,1,2.008,8.932v4.187a25.249,25.249,0,0,0,.573,5.217,7.078,7.078,0,0,0,1.979,4.032v.858H863.1a6.712,6.712,0,0,1-1.787-4.217,47.093,47.093,0,0,1-.357-5.955v-4.012a11.324,11.324,0,0,0-1.816-6.848,6.05,6.05,0,0,0-5.172-2.425h-8.376Zm0-9.24h7.722a6.668,6.668,0,0,0,5.367-2.148,9.2,9.2,0,0,0,1.818-6.126,10.359,10.359,0,0,0-1.818-6.461,6.3,6.3,0,0,0-5.321-2.4h-7.768v17.135Zm75.1-26.45v40.246q0,9.459-5.544,14.589t-14.52,5.143q-8.985,0-14.529-5.162-5.529-5.151-5.542-14.569v-40.246H892.1v40.235c0,3.585.744,6.251,2.24,7.953a7.888,7.888,0,0,0,6.295,2.556,8.137,8.137,0,0,0,6.377-2.445c1.455-1.617,2.194-4.308,2.194-8.063v-40.235H920.7Zm45.366,40.08.126.252c.055,6.485-1.5,11.4-4.635,14.695s-7.771,4.95-13.886,4.95-11.011-1.874-14.671-5.634q-5.468-5.611-5.479-15.925v-17.653q0-10.272,5.3-15.945,5.3-5.649,14.2-5.652,9.422,0,14.239,5.029t4.976,14.906l-.127.236h-11.13c.166-3.886-.362-6.668-1.582-8.374s-3.344-2.565-6.376-2.565a6.788,6.788,0,0,0-5.975,3.047c-1.376,2.028-2.068,5.106-2.068,9.207v17.749c0,4.162.732,7.265,2.22,9.288a7.478,7.478,0,0,0,6.477,3.053q4.17,0,5.823-2.415t1.437-8.249h11.135Zm40.748-30.85H993.485v49.915H981.947V1229.22H968.713v-9.229h38.1v9.229Zm17.66,49.92h-11.494V1220h11.494v59.144Zm49.43-21.26q0,10.408-5.643,16.237-5.64,5.844-15.032,5.854t-14.991-5.854q-5.589-5.844-5.6-16.237v-16.548q0-10.362,5.6-16.266,5.617-5.907,14.952-5.9t15.031,5.9q5.694,5.9,5.683,16.266v16.548Zm-11.49-16.68c0-4.228-.772-7.414-2.36-9.579a7.956,7.956,0,0,0-6.856-3.228,7.777,7.777,0,0,0-6.823,3.219q-2.268,3.2-2.275,9.588v16.679q0,6.432,2.314,9.64a8.834,8.834,0,0,0,13.64,0c1.588-2.139,2.36-5.352,2.36-9.64V1241.2Zm60.41,37.94h-11.492l-18.08-37.825-.251.084v37.741H1081.42V1220H1093l18.079,37.775.252-.08V1220h11.492Z" fill="#250c03" fill-rule="evenodd"/>
</svg>
