<svg width="1147" height="110" viewBox="0 0 1147 110" fill="none" xmlns="http://www.w3.org/2000/svg">
<rect x="4" y="20" width="1140" height="68" fill="#A6A6A6"/>
<rect x="118" y="20" width="1026" height="68" fill="#91B7C2"/>
<rect x="118" y="20" width="1026" height="68" fill="black" fill-opacity="0.2"/>
<rect x="258" y="20" width="886" height="68" fill="#C191A1"/>
<rect x="491" y="20" width="653" height="68" fill="#F69994"/>
<path d="M24.75 80.4531L25.9688 87.9062C23.5938 88.4062 21.4688 88.6562 19.5938 88.6562C16.5312 88.6562 14.1562 88.1719 12.4688 87.2031C10.7812 86.2344 9.59375 84.9688 8.90625 83.4062C8.21875 81.8125 7.875 78.4844 7.875 73.4219V44.7812H1.6875V38.2188H7.875V25.8906L16.2656 20.8281V38.2188H24.75V44.7812H16.2656V73.8906C16.2656 76.2969 16.4062 77.8438 16.6875 78.5312C17 79.2188 17.4844 79.7656 18.1406 80.1719C18.8281 80.5781 19.7969 80.7812 21.0469 80.7812C21.9844 80.7812 23.2188 80.6719 24.75 80.4531ZM27.2869 88V19.2812H35.7244V43.9375C39.6619 39.375 44.6306 37.0938 50.6306 37.0938C54.3181 37.0938 57.5212 37.8281 60.24 39.2969C62.9587 40.7344 64.8962 42.7344 66.0525 45.2969C67.24 47.8594 67.8337 51.5781 67.8337 56.4531V88H59.3962V56.4531C59.3962 52.2344 58.4744 49.1719 56.6306 47.2656C54.8181 45.3281 52.24 44.3594 48.8962 44.3594C46.3962 44.3594 44.0369 45.0156 41.8181 46.3281C39.6306 47.6094 38.0681 49.3594 37.1306 51.5781C36.1931 53.7969 35.7244 56.8594 35.7244 60.7656V88H27.2869ZM109.042 71.9688L117.761 73.0469C116.386 78.1406 113.839 82.0938 110.121 84.9062C106.402 87.7188 101.652 89.125 95.8706 89.125C88.5894 89.125 82.8081 86.8906 78.5269 82.4219C74.2769 77.9219 72.1519 71.625 72.1519 63.5312C72.1519 55.1562 74.3081 48.6562 78.6206 44.0312C82.9331 39.4062 88.5269 37.0938 95.4019 37.0938C102.058 37.0938 107.496 39.3594 111.714 43.8906C115.933 48.4219 118.042 54.7969 118.042 63.0156C118.042 63.5156 118.027 64.2656 117.996 65.2656H80.8706C81.1831 70.7344 82.73 74.9219 85.5112 77.8281C88.2925 80.7344 91.7612 82.1875 95.9175 82.1875C99.0112 82.1875 101.652 81.375 103.839 79.75C106.027 78.125 107.761 75.5312 109.042 71.9688ZM81.3394 58.3281H109.136C108.761 54.1406 107.699 51 105.949 48.9062C103.261 45.6562 99.7769 44.0312 95.4956 44.0312C91.6206 44.0312 88.355 45.3281 85.6987 47.9219C83.0737 50.5156 81.6206 53.9844 81.3394 58.3281ZM176.085 69.7656L184.382 70.8438C183.476 76.5625 181.147 81.0469 177.397 84.2969C173.679 87.5156 169.101 89.125 163.663 89.125C156.851 89.125 151.366 86.9062 147.21 82.4688C143.085 78 141.022 71.6094 141.022 63.2969C141.022 57.9219 141.913 53.2188 143.694 49.1875C145.476 45.1562 148.179 42.1406 151.804 40.1406C155.46 38.1094 159.429 37.0938 163.71 37.0938C169.116 37.0938 173.538 38.4688 176.976 41.2188C180.413 43.9375 182.616 47.8125 183.585 52.8438L175.382 54.1094C174.601 50.7656 173.21 48.25 171.21 46.5625C169.241 44.875 166.851 44.0312 164.038 44.0312C159.788 44.0312 156.335 45.5625 153.679 48.625C151.022 51.6562 149.694 56.4688 149.694 63.0625C149.694 69.75 150.976 74.6094 153.538 77.6406C156.101 80.6719 159.444 82.1875 163.569 82.1875C166.882 82.1875 169.647 81.1719 171.866 79.1406C174.085 77.1094 175.491 73.9844 176.085 69.7656ZM218.325 81.8594C215.2 84.5156 212.184 86.3906 209.278 87.4844C206.403 88.5781 203.309 89.125 199.997 89.125C194.528 89.125 190.325 87.7969 187.387 85.1406C184.45 82.4531 182.981 79.0312 182.981 74.875C182.981 72.4375 183.528 70.2188 184.622 68.2188C185.747 66.1875 187.2 64.5625 188.981 63.3438C190.794 62.125 192.825 61.2031 195.075 60.5781C196.731 60.1406 199.231 59.7188 202.575 59.3125C209.387 58.5 214.403 57.5312 217.622 56.4062C217.653 55.25 217.669 54.5156 217.669 54.2031C217.669 50.7656 216.872 48.3438 215.278 46.9375C213.122 45.0312 209.919 44.0781 205.669 44.0781C201.7 44.0781 198.762 44.7812 196.856 46.1875C194.981 47.5625 193.591 50.0156 192.684 53.5469L184.434 52.4219C185.184 48.8906 186.419 46.0469 188.137 43.8906C189.856 41.7031 192.341 40.0312 195.591 38.875C198.841 37.6875 202.606 37.0938 206.887 37.0938C211.137 37.0938 214.591 37.5938 217.247 38.5938C219.903 39.5938 221.856 40.8594 223.106 42.3906C224.356 43.8906 225.231 45.7969 225.731 48.1094C226.012 49.5469 226.153 52.1406 226.153 55.8906V67.1406C226.153 74.9844 226.325 79.9531 226.669 82.0469C227.044 84.1094 227.762 86.0938 228.825 88H220.012C219.137 86.25 218.575 84.2031 218.325 81.8594ZM217.622 63.0156C214.559 64.2656 209.966 65.3281 203.841 66.2031C200.372 66.7031 197.919 67.2656 196.481 67.8906C195.044 68.5156 193.934 69.4375 193.153 70.6562C192.372 71.8438 191.981 73.1719 191.981 74.6406C191.981 76.8906 192.825 78.7656 194.512 80.2656C196.231 81.7656 198.731 82.5156 202.012 82.5156C205.262 82.5156 208.153 81.8125 210.684 80.4062C213.216 78.9688 215.075 77.0156 216.262 74.5469C217.169 72.6406 217.622 69.8281 217.622 66.1094V63.0156ZM233.331 88V19.2812H241.768V88H233.331ZM249.18 28.9844V19.2812H257.617V28.9844H249.18ZM249.18 88V38.2188H257.617V88H249.18ZM266.764 88V44.7812H259.311V38.2188H266.764V32.9219C266.764 29.5781 267.061 27.0938 267.654 25.4688C268.467 23.2812 269.889 21.5156 271.92 20.1719C273.982 18.7969 276.857 18.1094 280.545 18.1094C282.92 18.1094 285.545 18.3906 288.42 18.9531L287.154 26.3125C285.404 26 283.748 25.8438 282.186 25.8438C279.623 25.8438 277.811 26.3906 276.748 27.4844C275.686 28.5781 275.154 30.625 275.154 33.625V38.2188H284.857V44.7812H275.154V88H266.764ZM282.566 63.1094C282.566 53.8906 285.129 47.0625 290.254 42.625C294.535 38.9375 299.754 37.0938 305.91 37.0938C312.754 37.0938 318.348 39.3438 322.691 43.8438C327.035 48.3125 329.207 54.5 329.207 62.4062C329.207 68.8125 328.238 73.8594 326.301 77.5469C324.394 81.2031 321.598 84.0469 317.91 86.0781C314.254 88.1094 310.254 89.125 305.91 89.125C298.941 89.125 293.301 86.8906 288.988 82.4219C284.707 77.9531 282.566 71.5156 282.566 63.1094ZM291.238 63.1094C291.238 69.4844 292.629 74.2656 295.41 77.4531C298.191 80.6094 301.691 82.1875 305.91 82.1875C310.098 82.1875 313.582 80.5938 316.363 77.4062C319.144 74.2188 320.535 69.3594 320.535 62.8281C320.535 56.6719 319.129 52.0156 316.316 48.8594C313.535 45.6719 310.066 44.0781 305.91 44.0781C301.691 44.0781 298.191 45.6562 295.41 48.8125C292.629 51.9688 291.238 56.7344 291.238 63.1094ZM333.291 88V38.2188H340.884V45.7656C342.822 42.2344 344.603 39.9062 346.228 38.7812C347.884 37.6562 349.697 37.0938 351.666 37.0938C354.509 37.0938 357.4 38 360.337 39.8125L357.431 47.6406C355.369 46.4219 353.306 45.8125 351.244 45.8125C349.4 45.8125 347.744 46.375 346.275 47.5C344.806 48.5938 343.759 50.125 343.134 52.0938C342.197 55.0938 341.728 58.375 341.728 61.9375V88H333.291ZM359.593 88V38.2188H367.187V45.2969C370.843 39.8281 376.124 37.0938 383.031 37.0938C386.031 37.0938 388.781 37.6406 391.281 38.7344C393.812 39.7969 395.702 41.2031 396.952 42.9531C398.202 44.7031 399.077 46.7812 399.577 49.1875C399.89 50.75 400.046 53.4844 400.046 57.3906V88H391.609V57.7188C391.609 54.2812 391.281 51.7188 390.624 50.0312C389.968 48.3125 388.796 46.9531 387.109 45.9531C385.452 44.9219 383.499 44.4062 381.249 44.4062C377.656 44.4062 374.546 45.5469 371.921 47.8281C369.327 50.1094 368.031 54.4375 368.031 60.8125V88H359.593ZM407.318 28.9844V19.2812H415.755V28.9844H407.318ZM407.318 88V38.2188H415.755V88H407.318ZM455.37 81.8594C452.245 84.5156 449.229 86.3906 446.323 87.4844C443.448 88.5781 440.354 89.125 437.042 89.125C431.573 89.125 427.37 87.7969 424.432 85.1406C421.495 82.4531 420.026 79.0312 420.026 74.875C420.026 72.4375 420.573 70.2188 421.667 68.2188C422.792 66.1875 424.245 64.5625 426.026 63.3438C427.839 62.125 429.87 61.2031 432.12 60.5781C433.776 60.1406 436.276 59.7188 439.62 59.3125C446.432 58.5 451.448 57.5312 454.667 56.4062C454.698 55.25 454.714 54.5156 454.714 54.2031C454.714 50.7656 453.917 48.3438 452.323 46.9375C450.167 45.0312 446.964 44.0781 442.714 44.0781C438.745 44.0781 435.807 44.7812 433.901 46.1875C432.026 47.5625 430.636 50.0156 429.729 53.5469L421.479 52.4219C422.229 48.8906 423.464 46.0469 425.182 43.8906C426.901 41.7031 429.386 40.0312 432.636 38.875C435.886 37.6875 439.651 37.0938 443.932 37.0938C448.182 37.0938 451.636 37.5938 454.292 38.5938C456.948 39.5938 458.901 40.8594 460.151 42.3906C461.401 43.8906 462.276 45.7969 462.776 48.1094C463.057 49.5469 463.198 52.1406 463.198 55.8906V67.1406C463.198 74.9844 463.37 79.9531 463.714 82.0469C464.089 84.1094 464.807 86.0938 465.87 88H457.057C456.182 86.25 455.62 84.2031 455.37 81.8594ZM454.667 63.0156C451.604 64.2656 447.011 65.3281 440.886 66.2031C437.417 66.7031 434.964 67.2656 433.526 67.8906C432.089 68.5156 430.979 69.4375 430.198 70.6562C429.417 71.8438 429.026 73.1719 429.026 74.6406C429.026 76.8906 429.87 78.7656 431.557 80.2656C433.276 81.7656 435.776 82.5156 439.057 82.5156C442.307 82.5156 445.198 81.8125 447.729 80.4062C450.261 78.9688 452.12 77.0156 453.307 74.5469C454.214 72.6406 454.667 69.8281 454.667 66.1094V63.0156ZM491.569 28.9844V19.2812H500.006V28.9844H491.569ZM491.569 88V38.2188H500.006V88H491.569ZM507.137 88V38.2188H514.731V45.2969C518.387 39.8281 523.668 37.0938 530.574 37.0938C533.574 37.0938 536.324 37.6406 538.824 38.7344C541.356 39.7969 543.246 41.2031 544.496 42.9531C545.746 44.7031 546.621 46.7812 547.121 49.1875C547.434 50.75 547.59 53.4844 547.59 57.3906V88H539.152V57.7188C539.152 54.2812 538.824 51.7188 538.168 50.0312C537.512 48.3125 536.34 46.9531 534.652 45.9531C532.996 44.9219 531.043 44.4062 528.793 44.4062C525.199 44.4062 522.09 45.5469 519.465 47.8281C516.871 50.1094 515.574 54.4375 515.574 60.8125V88H507.137ZM554.814 88V38.2188H562.408V45.2969C566.064 39.8281 571.346 37.0938 578.252 37.0938C581.252 37.0938 584.002 37.6406 586.502 38.7344C589.033 39.7969 590.924 41.2031 592.174 42.9531C593.424 44.7031 594.299 46.7812 594.799 49.1875C595.111 50.75 595.268 53.4844 595.268 57.3906V88H586.83V57.7188C586.83 54.2812 586.502 51.7188 585.846 50.0312C585.189 48.3125 584.018 46.9531 582.33 45.9531C580.674 44.9219 578.721 44.4062 576.471 44.4062C572.877 44.4062 569.768 45.5469 567.143 47.8281C564.549 50.1094 563.252 54.4375 563.252 60.8125V88H554.814ZM599.351 63.1094C599.351 53.8906 601.914 47.0625 607.039 42.625C611.32 38.9375 616.539 37.0938 622.695 37.0938C629.539 37.0938 635.133 39.3438 639.476 43.8438C643.82 48.3125 645.992 54.5 645.992 62.4062C645.992 68.8125 645.023 73.8594 643.086 77.5469C641.179 81.2031 638.383 84.0469 634.695 86.0781C631.039 88.1094 627.039 89.125 622.695 89.125C615.726 89.125 610.086 86.8906 605.773 82.4219C601.492 77.9531 599.351 71.5156 599.351 63.1094ZM608.023 63.1094C608.023 69.4844 609.414 74.2656 612.195 77.4531C614.976 80.6094 618.476 82.1875 622.695 82.1875C626.883 82.1875 630.367 80.5938 633.148 77.4062C635.929 74.2188 637.32 69.3594 637.32 62.8281C637.32 56.6719 635.914 52.0156 633.101 48.8594C630.32 45.6719 626.851 44.0781 622.695 44.0781C618.476 44.0781 614.976 45.6562 612.195 48.8125C609.414 51.9688 608.023 56.7344 608.023 63.1094ZM682.654 69.7656L690.951 70.8438C690.044 76.5625 687.716 81.0469 683.966 84.2969C680.247 87.5156 675.669 89.125 670.232 89.125C663.419 89.125 657.935 86.9062 653.779 82.4688C649.654 78 647.591 71.6094 647.591 63.2969C647.591 57.9219 648.482 53.2188 650.263 49.1875C652.044 45.1562 654.747 42.1406 658.372 40.1406C662.029 38.1094 665.997 37.0938 670.279 37.0938C675.685 37.0938 680.107 38.4688 683.544 41.2188C686.982 43.9375 689.185 47.8125 690.154 52.8438L681.951 54.1094C681.169 50.7656 679.779 48.25 677.779 46.5625C675.81 44.875 673.419 44.0312 670.607 44.0312C666.357 44.0312 662.904 45.5625 660.247 48.625C657.591 51.6562 656.263 56.4688 656.263 63.0625C656.263 69.75 657.544 74.6094 660.107 77.6406C662.669 80.6719 666.013 82.1875 670.138 82.1875C673.451 82.1875 676.216 81.1719 678.435 79.1406C680.654 77.1094 682.06 73.9844 682.654 69.7656ZM726.487 71.9688L735.206 73.0469C733.831 78.1406 731.284 82.0938 727.566 84.9062C723.847 87.7188 719.097 89.125 713.316 89.125C706.034 89.125 700.253 86.8906 695.972 82.4219C691.722 77.9219 689.597 71.625 689.597 63.5312C689.597 55.1562 691.753 48.6562 696.066 44.0312C700.378 39.4062 705.972 37.0938 712.847 37.0938C719.503 37.0938 724.941 39.3594 729.159 43.8906C733.378 48.4219 735.487 54.7969 735.487 63.0156C735.487 63.5156 735.472 64.2656 735.441 65.2656H698.316C698.628 70.7344 700.175 74.9219 702.956 77.8281C705.737 80.7344 709.206 82.1875 713.362 82.1875C716.456 82.1875 719.097 81.375 721.284 79.75C723.472 78.125 725.206 75.5312 726.487 71.9688ZM698.784 58.3281H726.581C726.206 54.1406 725.144 51 723.394 48.9062C720.706 45.6562 717.222 44.0312 712.941 44.0312C709.066 44.0312 705.8 45.3281 703.144 47.9219C700.519 50.5156 699.066 53.9844 698.784 58.3281ZM740.087 88V38.2188H747.681V45.2969C751.337 39.8281 756.618 37.0938 763.524 37.0938C766.524 37.0938 769.274 37.6406 771.774 38.7344C774.306 39.7969 776.196 41.2031 777.446 42.9531C778.696 44.7031 779.571 46.7812 780.071 49.1875C780.384 50.75 780.54 53.4844 780.54 57.3906V88H772.102V57.7188C772.102 54.2812 771.774 51.7188 771.118 50.0312C770.462 48.3125 769.29 46.9531 767.602 45.9531C765.946 44.9219 763.993 44.4062 761.743 44.4062C758.149 44.4062 755.04 45.5469 752.415 47.8281C749.821 50.1094 748.524 54.4375 748.524 60.8125V88H740.087ZM820.249 69.7656L828.546 70.8438C827.639 76.5625 825.311 81.0469 821.561 84.2969C817.842 87.5156 813.264 89.125 807.827 89.125C801.014 89.125 795.53 86.9062 791.374 82.4688C787.249 78 785.186 71.6094 785.186 63.2969C785.186 57.9219 786.077 53.2188 787.858 49.1875C789.639 45.1562 792.342 42.1406 795.967 40.1406C799.624 38.1094 803.592 37.0938 807.874 37.0938C813.28 37.0938 817.702 38.4688 821.139 41.2188C824.577 43.9375 826.78 47.8125 827.749 52.8438L819.546 54.1094C818.764 50.7656 817.374 48.25 815.374 46.5625C813.405 44.875 811.014 44.0312 808.202 44.0312C803.952 44.0312 800.499 45.5625 797.842 48.625C795.186 51.6562 793.858 56.4688 793.858 63.0625C793.858 69.75 795.139 74.6094 797.702 77.6406C800.264 80.6719 803.608 82.1875 807.733 82.1875C811.046 82.1875 813.811 81.1719 816.03 79.1406C818.249 77.1094 819.655 73.9844 820.249 69.7656ZM864.083 71.9688L872.801 73.0469C871.426 78.1406 868.879 82.0938 865.161 84.9062C861.442 87.7188 856.692 89.125 850.911 89.125C843.629 89.125 837.848 86.8906 833.567 82.4219C829.317 77.9219 827.192 71.625 827.192 63.5312C827.192 55.1562 829.348 48.6562 833.661 44.0312C837.973 39.4062 843.567 37.0938 850.442 37.0938C857.098 37.0938 862.536 39.3594 866.754 43.8906C870.973 48.4219 873.083 54.7969 873.083 63.0156C873.083 63.5156 873.067 64.2656 873.036 65.2656H835.911C836.223 70.7344 837.77 74.9219 840.551 77.8281C843.333 80.7344 846.801 82.1875 850.958 82.1875C854.051 82.1875 856.692 81.375 858.879 79.75C861.067 78.125 862.801 75.5312 864.083 71.9688ZM836.379 58.3281H864.176C863.801 54.1406 862.739 51 860.989 48.9062C858.301 45.6562 854.817 44.0312 850.536 44.0312C846.661 44.0312 843.395 45.3281 840.739 47.9219C838.114 50.5156 836.661 53.9844 836.379 58.3281ZM898.641 107.078V38.2188H906.328V44.6875C908.141 42.1562 910.188 40.2656 912.469 39.0156C914.75 37.7344 917.516 37.0938 920.766 37.0938C925.016 37.0938 928.766 38.1875 932.016 40.375C935.266 42.5625 937.719 45.6562 939.375 49.6562C941.031 53.625 941.859 57.9844 941.859 62.7344C941.859 67.8281 940.938 72.4219 939.094 76.5156C937.281 80.5781 934.625 83.7031 931.125 85.8906C927.656 88.0469 924 89.125 920.156 89.125C917.344 89.125 914.812 88.5312 912.562 87.3438C910.344 86.1562 908.516 84.6562 907.078 82.8438V107.078H898.641ZM906.281 63.3906C906.281 69.7969 907.578 74.5312 910.172 77.5938C912.766 80.6562 915.906 82.1875 919.594 82.1875C923.344 82.1875 926.547 80.6094 929.203 77.4531C931.891 74.2656 933.234 69.3438 933.234 62.6875C933.234 56.3438 931.922 51.5938 929.297 48.4375C926.703 45.2812 923.594 43.7031 919.969 43.7031C916.375 43.7031 913.188 45.3906 910.406 48.7656C907.656 52.1094 906.281 56.9844 906.281 63.3906ZM946.224 88V38.2188H953.818V45.7656C955.756 42.2344 957.537 39.9062 959.162 38.7812C960.818 37.6562 962.631 37.0938 964.599 37.0938C967.443 37.0938 970.334 38 973.271 39.8125L970.365 47.6406C968.302 46.4219 966.24 45.8125 964.177 45.8125C962.334 45.8125 960.677 46.375 959.209 47.5C957.74 48.5938 956.693 50.125 956.068 52.0938C955.131 55.0938 954.662 58.375 954.662 61.9375V88H946.224ZM969.386 63.1094C969.386 53.8906 971.949 47.0625 977.074 42.625C981.355 38.9375 986.574 37.0938 992.73 37.0938C999.574 37.0938 1005.17 39.3438 1009.51 43.8438C1013.85 48.3125 1016.03 54.5 1016.03 62.4062C1016.03 68.8125 1015.06 73.8594 1013.12 77.5469C1011.21 81.2031 1008.42 84.0469 1004.73 86.0781C1001.07 88.1094 997.074 89.125 992.73 89.125C985.761 89.125 980.121 86.8906 975.808 82.4219C971.527 77.9531 969.386 71.5156 969.386 63.1094ZM978.058 63.1094C978.058 69.4844 979.449 74.2656 982.23 77.4531C985.011 80.6094 988.511 82.1875 992.73 82.1875C996.917 82.1875 1000.4 80.5938 1003.18 77.4062C1005.96 74.2188 1007.35 69.3594 1007.35 62.8281C1007.35 56.6719 1005.95 52.0156 1003.14 48.8594C1000.35 45.6719 996.886 44.0781 992.73 44.0781C988.511 44.0781 985.011 45.6562 982.23 48.8125C979.449 51.9688 978.058 56.7344 978.058 63.1094ZM1020.16 29.0781V19.2812H1028.59V29.0781H1020.16ZM1009.47 107.312L1011.06 100.141C1012.75 100.578 1014.08 100.797 1015.05 100.797C1016.77 100.797 1018.05 100.219 1018.89 99.0625C1019.74 97.9375 1020.16 95.0938 1020.16 90.5312V38.2188H1028.59V90.7188C1028.59 96.8438 1027.8 101.109 1026.2 103.516C1024.17 106.641 1020.8 108.203 1016.08 108.203C1013.8 108.203 1011.59 107.906 1009.47 107.312ZM1069.9 71.9688L1078.62 73.0469C1077.24 78.1406 1074.69 82.0938 1070.98 84.9062C1067.26 87.7188 1062.51 89.125 1056.73 89.125C1049.44 89.125 1043.66 86.8906 1039.38 82.4219C1035.13 77.9219 1033.01 71.625 1033.01 63.5312C1033.01 55.1562 1035.16 48.6562 1039.48 44.0312C1043.79 39.4062 1049.38 37.0938 1056.26 37.0938C1062.91 37.0938 1068.35 39.3594 1072.57 43.8906C1076.79 48.4219 1078.9 54.7969 1078.9 63.0156C1078.9 63.5156 1078.88 64.2656 1078.85 65.2656H1041.73C1042.04 70.7344 1043.58 74.9219 1046.37 77.8281C1049.15 80.7344 1052.62 82.1875 1056.77 82.1875C1059.87 82.1875 1062.51 81.375 1064.69 79.75C1066.88 78.125 1068.62 75.5312 1069.9 71.9688ZM1042.19 58.3281H1069.99C1069.62 54.1406 1068.55 51 1066.8 48.9062C1064.12 45.6562 1060.63 44.0312 1056.35 44.0312C1052.48 44.0312 1049.21 45.3281 1046.55 47.9219C1043.93 50.5156 1042.48 53.9844 1042.19 58.3281ZM1115.98 69.7656L1124.28 70.8438C1123.37 76.5625 1121.04 81.0469 1117.29 84.2969C1113.57 87.5156 1109 89.125 1103.56 89.125C1096.75 89.125 1091.26 86.9062 1087.11 82.4688C1082.98 78 1080.92 71.6094 1080.92 63.2969C1080.92 57.9219 1081.81 53.2188 1083.59 49.1875C1085.37 45.1562 1088.07 42.1406 1091.7 40.1406C1095.36 38.1094 1099.32 37.0938 1103.61 37.0938C1109.01 37.0938 1113.43 38.4688 1116.87 41.2188C1120.31 43.9375 1122.51 47.8125 1123.48 52.8438L1115.28 54.1094C1114.5 50.7656 1113.11 48.25 1111.11 46.5625C1109.14 44.875 1106.75 44.0312 1103.93 44.0312C1099.68 44.0312 1096.23 45.5625 1093.57 48.625C1090.92 51.6562 1089.59 56.4688 1089.59 63.0625C1089.59 69.75 1090.87 74.6094 1093.43 77.6406C1096 80.6719 1099.34 82.1875 1103.47 82.1875C1106.78 82.1875 1109.54 81.1719 1111.76 79.1406C1113.98 77.1094 1115.39 73.9844 1115.98 69.7656ZM1144.16 80.4531L1145.38 87.9062C1143 88.4062 1140.88 88.6562 1139 88.6562C1135.94 88.6562 1133.56 88.1719 1131.88 87.2031C1130.19 86.2344 1129 84.9688 1128.31 83.4062C1127.63 81.8125 1127.28 78.4844 1127.28 73.4219V44.7812H1121.1V38.2188H1127.28V25.8906L1135.67 20.8281V38.2188H1144.16V44.7812H1135.67V73.8906C1135.67 76.2969 1135.81 77.8438 1136.1 78.5312C1136.41 79.2188 1136.89 79.7656 1137.55 80.1719C1138.24 80.5781 1139.21 80.7812 1140.46 80.7812C1141.39 80.7812 1142.63 80.6719 1144.16 80.4531Z" fill="#202020"/>
</svg>
