<svg width="1195" height="574" viewBox="0 0 1195 574" fill="none" xmlns="http://www.w3.org/2000/svg">
<rect x="102.146" y="470.877" width="1143" height="89" transform="rotate(-23.7208 102.146 470.877)" fill="#DEB92A"/>
<rect x="96.8744" y="468.824" width="1151" height="97" transform="rotate(-23.7208 96.8744 468.824)" stroke="#202020" stroke-opacity="0.65" stroke-width="8"/>
<path d="M179.398 521.037L176.456 514.343C175.171 521.051 171.482 525.744 165.388 528.422C162.699 529.604 159.955 530.195 157.156 530.196C154.386 530.184 152.09 529.657 150.266 528.615C148.459 527.532 146.83 525.961 145.379 523.902C144.398 522.524 143.185 520.19 141.739 516.9L129.331 488.662L137.056 485.267L148.163 510.544C149.935 514.578 151.287 517.227 152.218 518.491C153.597 520.308 155.33 521.458 157.419 521.939C159.496 522.392 161.693 522.11 164.01 521.091C166.328 520.073 168.244 518.531 169.76 516.466C171.263 514.372 171.984 512.126 171.921 509.731C171.874 507.294 170.996 504.13 169.286 500.239L158.556 475.82L166.281 472.426L186.307 518.001L179.398 521.037ZM198.452 512.665L178.426 467.089L185.378 464.035L188.226 470.515C189.373 464.037 193.108 459.409 199.431 456.631C202.177 455.424 204.915 454.819 207.644 454.814C210.389 454.769 212.685 455.296 214.534 456.395C216.382 457.494 218.019 459.045 219.445 461.047C220.359 462.351 221.603 464.792 223.174 468.368L235.487 496.391L227.763 499.786L215.581 472.063C214.198 468.916 212.867 466.702 211.588 465.421C210.295 464.111 208.676 463.338 206.728 463.101C204.797 462.823 202.802 463.137 200.742 464.042C197.452 465.488 195.064 467.783 193.578 470.928C192.121 474.059 192.675 478.544 195.24 484.38L206.177 509.271L198.452 512.665ZM276.943 478.176L274.416 472.425C273.513 478.215 270.258 482.342 264.65 484.806C261.017 486.403 257.229 486.872 253.288 486.215C249.375 485.544 245.789 483.792 242.53 480.958C239.287 478.082 236.64 474.312 234.591 469.649C232.592 465.1 231.54 460.647 231.435 456.29C231.317 451.904 232.341 448.058 234.506 444.752C236.671 441.445 239.628 438.968 243.376 437.322C246.122 436.115 248.826 435.626 251.487 435.856C254.136 436.058 256.541 436.793 258.703 438.062L248.784 415.489L256.466 412.113L284.11 475.027L276.943 478.176ZM242.531 466.16C245.095 471.997 248.242 475.819 251.973 477.628C255.703 479.436 259.241 479.605 262.589 478.134C265.965 476.651 268.222 474.02 269.361 470.243C270.517 466.424 269.85 461.683 267.361 456.018C264.62 449.781 261.407 445.731 257.722 443.869C254.036 442.007 250.434 441.849 246.915 443.395C243.482 444.904 241.222 447.569 240.137 451.391C239.08 455.201 239.878 460.124 242.531 466.16ZM321.048 441.285L329.464 438.765C330.254 443.982 329.513 448.625 327.239 452.696C324.966 456.767 321.183 459.965 315.89 462.291C309.224 465.22 303.033 465.5 297.315 463.131C291.614 460.721 287.136 455.811 283.88 448.401C280.511 440.734 279.87 433.915 281.957 427.946C284.045 421.977 288.236 417.61 294.53 414.844C300.624 412.166 306.514 412.053 312.199 414.505C317.884 416.956 322.38 421.944 325.686 429.468C325.887 429.926 326.174 430.619 326.548 431.547L292.559 446.482C295.046 451.363 298.146 454.574 301.862 456.116C305.577 457.658 309.337 457.593 313.142 455.921C315.975 454.676 318.066 452.87 319.415 450.502C320.764 448.135 321.308 445.062 321.048 441.285ZM290.198 439.942L315.646 428.759C313.618 425.077 311.382 422.629 308.938 421.416C305.17 419.522 301.326 419.436 297.407 421.158C293.859 422.717 291.391 425.218 290.003 428.661C288.643 432.091 288.708 435.852 290.198 439.942ZM345.135 448.212L325.109 402.637L332.061 399.582L335.097 406.491C335.45 402.479 336.145 399.631 337.18 397.947C338.243 396.251 339.677 395.007 341.479 394.215C344.082 393.071 347.093 392.738 350.512 393.215L351 401.551C348.622 401.265 346.488 401.537 344.6 402.367C342.912 403.108 341.622 404.29 340.73 405.91C339.825 407.503 339.483 409.326 339.703 411.379C340.051 414.503 340.942 417.696 342.375 420.957L352.86 444.818L345.135 448.212ZM421.355 394.804L429.384 392.453C430.855 398.053 430.528 403.096 428.402 407.58C426.292 412.022 422.748 415.337 417.77 417.525C411.533 420.265 405.62 420.44 400.029 418.05C394.455 415.618 389.996 410.597 386.652 402.987C384.49 398.066 383.413 393.402 383.422 388.994C383.432 384.587 384.693 380.739 387.207 377.45C389.738 374.119 392.962 371.593 396.882 369.87C401.832 367.696 406.433 367.176 410.686 368.31C414.927 369.417 418.503 372.078 421.414 376.295L414.413 380.753C412.352 378.006 410.067 376.263 407.557 375.522C405.076 374.769 402.548 374.958 399.973 376.09C396.082 377.8 393.537 380.591 392.337 384.463C391.125 388.307 391.845 393.247 394.497 399.284C397.187 405.406 400.315 409.339 403.881 411.084C407.446 412.828 411.117 412.871 414.894 411.211C417.926 409.879 420.05 407.836 421.264 405.084C422.478 402.332 422.508 398.905 421.355 394.804ZM430.007 383.732C426.298 375.292 425.897 368.01 428.804 361.885C431.24 356.787 435.276 353 440.913 350.523C447.178 347.77 453.205 347.58 458.992 349.952C464.766 352.296 469.244 357.087 472.424 364.325C475.001 370.191 476.144 375.201 475.854 379.356C475.58 383.47 474.163 387.199 471.604 390.542C469.074 393.872 465.821 396.411 461.844 398.159C455.464 400.962 449.401 401.186 443.655 398.829C437.938 396.46 433.388 391.428 430.007 383.732ZM437.946 380.243C440.51 386.08 443.707 389.898 447.535 391.697C451.351 393.468 455.191 393.505 459.053 391.807C462.887 390.123 465.436 387.262 466.7 383.225C467.964 379.188 467.282 374.18 464.654 368.2C462.178 362.564 459.017 358.867 455.173 357.109C451.344 355.309 447.527 355.246 443.722 356.918C439.86 358.615 437.291 361.468 436.014 365.476C434.737 369.484 435.381 374.407 437.946 380.243ZM491.818 383.759L471.792 338.184L478.744 335.129L481.591 341.609C482.739 335.132 486.474 330.504 492.797 327.725C495.543 326.519 498.281 325.913 501.01 325.909C503.755 325.863 506.051 326.39 507.9 327.489C509.748 328.589 511.385 330.139 512.811 332.141C513.725 333.446 514.968 335.886 516.54 339.462L528.853 367.486L521.129 370.88L508.947 343.157C507.564 340.01 506.233 337.796 504.953 336.515C503.661 335.206 502.041 334.432 500.094 334.196C498.163 333.918 496.168 334.232 494.108 335.137C490.817 336.582 488.43 338.877 486.944 342.022C485.487 345.154 486.041 349.638 488.606 355.474L499.543 380.365L491.818 383.759ZM531.673 350.016L538.784 345.458C540.558 348.331 542.777 350.155 545.439 350.931C548.129 351.694 551.234 351.303 554.753 349.757C558.301 348.198 560.619 346.326 561.707 344.141C562.782 341.928 562.892 339.848 562.037 337.903C561.271 336.158 559.909 335.118 557.953 334.782C556.592 334.561 553.577 334.845 548.906 335.634C542.613 336.693 538.138 337.191 535.483 337.129C532.843 337.026 530.549 336.31 528.6 334.982C526.667 333.613 525.211 331.812 524.23 329.581C523.337 327.55 522.972 325.475 523.133 323.356C523.31 321.196 523.949 319.191 525.048 317.343C525.86 315.928 527.164 314.468 528.96 312.962C530.772 311.415 532.865 310.119 535.239 309.076C538.816 307.505 542.175 306.643 545.317 306.491C548.487 306.327 551.106 306.849 553.173 308.057C555.227 309.236 557.145 311.193 558.926 313.926L551.826 318.275C550.451 316.079 548.645 314.688 546.408 314.101C544.199 313.502 541.592 313.862 538.588 315.182C535.041 316.741 532.766 318.44 531.765 320.279C530.764 322.119 530.61 323.825 531.301 325.399C531.741 326.4 532.452 327.163 533.433 327.687C534.427 328.24 535.716 328.493 537.3 328.446C538.198 328.393 540.761 328.051 544.99 327.422C551.096 326.48 555.429 326.01 557.99 326.011C560.566 325.971 562.859 326.568 564.869 327.801C566.879 329.034 568.462 330.967 569.618 333.599C570.75 336.174 571.06 338.939 570.55 341.894C570.055 344.808 568.668 347.516 566.389 350.02C564.097 352.495 561.163 354.518 557.587 356.089C551.665 358.691 546.604 359.447 542.404 358.357C538.233 357.254 534.656 354.474 531.673 350.016ZM598.515 328.633L602.629 334.966C600.656 336.379 598.811 337.463 597.094 338.217C594.291 339.449 591.921 339.961 589.987 339.753C588.052 339.545 586.456 338.864 585.198 337.71C583.927 336.528 582.274 333.619 580.237 328.984L568.716 302.763L563.051 305.252L560.411 299.244L566.076 296.755L561.116 285.469L566.762 277.458L573.758 293.38L581.525 289.967L584.165 295.975L576.397 299.388L588.108 326.038C589.076 328.241 589.827 329.601 590.361 330.117C590.923 330.621 591.587 330.926 592.351 331.034C593.144 331.13 594.112 330.926 595.257 330.423C596.115 330.046 597.201 329.449 598.515 328.633ZM609.061 332.242L589.035 286.667L595.987 283.612L599.023 290.521C599.377 286.509 600.071 283.661 601.106 281.977C602.17 280.281 603.603 279.037 605.405 278.245C608.009 277.101 611.02 276.768 614.438 277.245L614.927 285.581C612.548 285.295 610.415 285.567 608.526 286.397C606.838 287.139 605.548 288.32 604.656 289.941C603.752 291.533 603.409 293.356 603.629 295.41C603.977 298.533 604.868 301.726 606.301 304.987L616.786 328.848L609.061 332.242ZM668.284 306.22L665.342 299.525C664.057 306.234 660.368 310.927 654.274 313.605C651.585 314.786 648.841 315.378 646.042 315.378C643.272 315.367 640.976 314.84 639.152 313.798C637.345 312.715 635.716 311.143 634.265 309.084C633.284 307.706 632.071 305.372 630.625 302.082L618.217 273.844L625.942 270.45L637.049 295.727C638.821 299.761 640.173 302.41 641.104 303.673C642.482 305.491 644.216 306.64 646.305 307.122C648.382 307.575 650.579 307.292 652.896 306.274C655.213 305.256 657.13 303.714 658.646 301.648C660.149 299.554 660.87 297.309 660.807 294.913C660.76 292.476 659.882 289.312 658.172 285.421L647.442 261.003L655.167 257.608L675.193 303.184L668.284 306.22ZM709.743 268.086L717.772 265.735C719.243 271.335 718.916 276.377 716.79 280.861C714.68 285.304 711.136 288.619 706.158 290.807C699.921 293.547 694.007 293.722 688.417 291.331C682.843 288.9 678.384 283.879 675.04 276.268C672.878 271.348 671.801 266.683 671.81 262.276C671.819 257.869 673.081 254.021 675.595 250.731C678.125 247.401 681.35 244.875 685.27 243.152C690.219 240.977 694.821 240.457 699.074 241.592C703.315 242.699 706.891 245.36 709.802 249.576L702.801 254.035C700.74 251.288 698.455 249.544 695.945 248.804C693.464 248.051 690.936 248.24 688.361 249.372C684.47 251.081 681.925 253.872 680.725 257.745C679.512 261.588 680.232 266.529 682.885 272.565C685.575 278.688 688.703 282.621 692.268 284.366C695.834 286.11 699.505 286.152 703.281 284.493C706.314 283.16 708.437 281.118 709.652 278.366C710.866 275.614 710.896 272.187 709.743 268.086ZM745.112 264.218L749.226 270.551C747.253 271.964 745.408 273.048 743.692 273.802C740.888 275.034 738.519 275.546 736.584 275.338C734.649 275.13 733.053 274.449 731.795 273.295C730.524 272.113 728.871 269.204 726.834 264.569L715.313 238.348L709.648 240.837L707.008 234.829L712.673 232.34L707.714 221.054L713.359 213.043L720.355 228.965L728.122 225.552L730.762 231.56L722.995 234.973L734.705 261.623C735.673 263.826 736.424 265.186 736.958 265.702C737.52 266.206 738.184 266.511 738.948 266.619C739.741 266.715 740.71 266.511 741.854 266.008C742.712 265.631 743.798 265.034 745.112 264.218ZM732.046 213.741L728.143 204.858L735.868 201.463L739.771 210.347L732.046 213.741ZM755.787 267.771L735.761 222.195L743.486 218.801L763.512 264.376L755.787 267.771ZM762.425 237.666C758.716 229.227 758.316 221.944 761.223 215.82C763.659 210.722 767.695 206.935 773.331 204.458C779.597 201.705 785.623 201.515 791.41 203.887C797.184 206.231 801.662 211.022 804.842 218.26C807.42 224.125 808.563 229.135 808.272 233.291C807.998 237.405 806.582 241.134 804.023 244.477C801.492 247.807 798.239 250.346 794.262 252.093C787.882 254.897 781.819 255.12 776.073 252.764C770.356 250.395 765.807 245.363 762.425 237.666ZM770.364 234.178C772.929 240.014 776.125 243.832 779.954 245.632C783.77 247.402 787.609 247.439 791.471 245.742C795.305 244.058 797.854 241.197 799.118 237.16C800.382 233.123 799.7 228.114 797.073 222.135C794.596 216.499 791.436 212.802 787.591 211.043C783.763 209.244 779.946 209.18 776.141 210.852C772.278 212.549 769.709 215.402 768.432 219.411C767.156 223.419 767.8 228.342 770.364 234.178ZM824.236 237.694L804.21 192.118L811.162 189.064L814.01 195.544C815.157 189.066 818.892 184.438 825.215 181.66C827.962 180.453 830.699 179.848 833.428 179.843C836.173 179.798 838.47 180.325 840.318 181.424C842.166 182.523 843.803 184.074 845.229 186.076C846.144 187.38 847.387 189.821 848.958 193.397L861.272 221.421L853.547 224.815L841.366 197.092C839.983 193.945 838.651 191.731 837.372 190.45C836.08 189.14 834.46 188.367 832.513 188.13C830.581 187.853 828.586 188.166 826.526 189.071C823.236 190.517 820.848 192.812 819.363 195.957C817.906 199.089 818.459 203.573 821.024 209.409L831.961 234.3L824.236 237.694Z" fill="#202020"/>
<line x1="106.37" y1="480.49" x2="1152.81" y2="20.6836" stroke="#202020" stroke-width="5" stroke-dasharray="10 10"/>
<line x1="132.116" y1="539.083" x2="1178.55" y2="79.2768" stroke="#202020" stroke-width="5" stroke-dasharray="10 10"/>
<path d="M966.456 175.203L963.514 168.508C962.229 175.217 958.54 179.91 952.446 182.587C949.757 183.769 947.013 184.36 944.214 184.361C941.444 184.35 939.148 183.823 937.324 182.781C935.517 181.697 933.888 180.126 932.437 178.067C931.456 176.689 930.243 174.355 928.797 171.065L916.39 142.827L924.114 139.433L935.221 164.71C936.993 168.744 938.345 171.392 939.276 172.656C940.655 174.474 942.389 175.623 944.478 176.105C946.554 176.558 948.751 176.275 951.068 175.257C953.386 174.239 955.302 172.697 956.818 170.631C958.322 168.537 959.042 166.292 958.979 163.896C958.932 161.459 958.054 158.295 956.344 154.404L945.615 129.985L953.339 126.591L973.365 172.167L966.456 175.203ZM985.51 166.83L965.484 121.255L972.436 118.2L975.284 124.68C976.431 118.203 980.166 113.575 986.489 110.796C989.236 109.59 991.973 108.984 994.702 108.98C997.447 108.934 999.743 109.461 1001.59 110.56C1003.44 111.66 1005.08 113.21 1006.5 115.212C1007.42 116.517 1008.66 118.957 1010.23 122.533L1022.55 150.557L1014.82 153.951L1002.64 126.228C1001.26 123.081 999.925 120.867 998.646 119.586C997.353 118.276 995.734 117.503 993.786 117.267C991.855 116.989 989.86 117.303 987.8 118.208C984.51 119.653 982.122 121.948 980.636 125.093C979.179 128.225 979.733 132.709 982.298 138.545L993.235 163.436L985.51 166.83ZM1064 132.341L1061.47 126.591C1060.57 132.381 1057.32 136.508 1051.71 138.972C1048.07 140.568 1044.29 141.038 1040.35 140.38C1036.43 139.71 1032.85 137.958 1029.59 135.123C1026.34 132.247 1023.7 128.478 1021.65 123.814C1019.65 119.265 1018.6 114.812 1018.49 110.455C1018.38 106.07 1019.4 102.224 1021.56 98.9171C1023.73 95.6105 1026.69 93.1338 1030.43 91.4869C1033.18 90.2801 1035.88 89.7917 1038.55 90.0219C1041.19 90.2235 1043.6 90.9586 1045.76 92.2274L1035.84 69.6542L1043.52 66.2788L1071.17 129.192L1064 132.341ZM1029.59 120.326C1032.15 126.162 1035.3 129.985 1039.03 131.793C1042.76 133.602 1046.3 133.77 1049.65 132.3C1053.02 130.816 1055.28 128.186 1056.42 124.408C1057.57 120.59 1056.91 115.848 1054.42 110.183C1051.68 103.946 1048.47 99.8968 1044.78 98.0346C1041.09 96.1724 1037.49 96.0144 1033.97 97.5607C1030.54 99.0692 1028.28 101.735 1027.2 105.557C1026.14 109.366 1026.94 114.289 1029.59 120.326ZM1108.11 95.4508L1116.52 92.9305C1117.31 98.147 1116.57 102.791 1114.3 106.862C1112.02 110.932 1108.24 114.131 1102.95 116.456C1096.28 119.386 1090.09 119.666 1084.37 117.297C1078.67 114.887 1074.19 109.976 1070.94 102.567C1067.57 94.8991 1066.93 88.0808 1069.02 82.1117C1071.1 76.1426 1075.29 71.7752 1081.59 69.0095C1087.68 66.3319 1093.57 66.2187 1099.26 68.67C1104.94 71.1213 1109.44 76.1092 1112.74 83.6336C1112.95 84.0913 1113.23 84.7842 1113.61 85.7123L1079.62 100.647C1082.1 105.528 1085.2 108.739 1088.92 110.281C1092.64 111.823 1096.4 111.758 1100.2 110.086C1103.03 108.842 1105.12 107.036 1106.47 104.668C1107.82 102.3 1108.37 99.2278 1108.11 95.4508ZM1077.26 94.107L1102.7 82.9249C1100.68 79.242 1098.44 76.7941 1096 75.5813C1092.23 73.687 1088.38 73.6009 1084.46 75.3232C1080.92 76.882 1078.45 79.3831 1077.06 82.8262C1075.7 86.2568 1075.77 90.0171 1077.26 94.107ZM1132.19 102.378L1112.17 56.802L1119.12 53.7471L1122.16 60.6564C1122.51 56.6441 1123.2 53.7961 1124.24 52.1124C1125.3 50.4162 1126.73 49.1721 1128.54 48.3801C1131.14 47.2361 1134.15 46.903 1137.57 47.3806L1138.06 55.7166C1135.68 55.4305 1133.55 55.7023 1131.66 56.532C1129.97 57.2737 1128.68 58.4549 1127.79 60.0757C1126.88 61.6679 1126.54 63.491 1126.76 65.5448C1127.11 68.6685 1128 71.8611 1129.43 75.1226L1139.92 98.9833L1132.19 102.378Z" fill="#202020"/>
<rect x="34.9102" y="120.4" width="1143" height="89" transform="rotate(15.8831 34.9102 120.4)" fill="#DEB92A"/>
<rect x="32.1576" y="115.458" width="1151" height="97" transform="rotate(15.8831 32.1576 115.458)" stroke="#202020" stroke-opacity="0.65" stroke-width="8"/>
<path d="M62.4543 208.294L64.4556 201.261C59.1891 205.61 53.3548 206.874 46.9527 205.053C44.1273 204.249 41.6362 202.955 39.4795 201.172C37.3527 199.397 35.9191 197.527 35.1787 195.562C34.4769 193.575 34.2233 191.326 34.418 188.815C34.5407 187.128 35.0938 184.556 36.0773 181.099L44.5185 151.433L52.6338 153.742L45.0778 180.298C43.8719 184.536 43.2248 187.438 43.1363 189.005C43.0401 191.284 43.6432 193.276 44.9457 194.978C46.2567 196.651 48.1296 197.834 50.5642 198.526C52.9988 199.219 55.4584 199.253 57.9431 198.628C60.4364 197.973 62.4224 196.702 63.9013 194.816C65.4188 192.908 66.7591 189.911 67.9222 185.823L75.2216 160.169L83.337 162.479L69.7131 210.359L62.4543 208.294ZM82.4723 213.99L96.0962 166.109L103.4 168.187L101.463 174.995C106.476 170.736 112.304 169.551 118.947 171.441C121.832 172.262 124.328 173.541 126.433 175.277C128.577 176.992 130.01 178.862 130.734 180.887C131.457 182.912 131.73 185.151 131.552 187.602C131.425 189.19 130.827 191.863 129.758 195.62L121.381 225.061L113.266 222.752L121.553 193.627C122.494 190.32 122.879 187.766 122.71 185.963C122.549 184.13 121.794 182.502 120.445 181.079C119.134 179.633 117.396 178.603 115.232 177.987C111.776 177.004 108.473 177.25 105.324 178.726C102.205 180.21 99.7729 184.018 98.0282 190.149L90.5876 216.299L82.4723 213.99ZM164.933 237.453L166.652 231.412C162.265 235.297 157.126 236.401 151.235 234.725C147.418 233.639 144.201 231.586 141.583 228.567C138.996 225.557 137.35 221.921 136.646 217.659C135.98 213.376 136.344 208.785 137.738 203.885C139.098 199.106 141.126 195.005 143.822 191.581C146.527 188.126 149.768 185.816 153.544 184.648C157.32 183.481 161.177 183.457 165.114 184.578C168 185.399 170.394 186.746 172.298 188.62C174.21 190.464 175.594 192.563 176.451 194.919L183.199 171.204L191.269 173.5L172.463 239.596L164.933 237.453ZM146.079 206.259C144.334 212.39 144.323 217.342 146.044 221.113C147.765 224.884 150.384 227.27 153.9 228.271C157.447 229.28 160.863 228.692 164.149 226.508C167.473 224.302 169.982 220.224 171.675 214.273C173.54 207.72 173.646 202.552 171.993 198.768C170.341 194.984 167.666 192.566 163.969 191.514C160.362 190.487 156.923 191.101 153.65 193.353C150.407 195.615 147.884 199.916 146.079 206.259ZM222.431 237.146L230.522 240.569C227.806 245.092 224.274 248.197 219.928 249.885C215.581 251.572 210.628 251.625 205.067 250.042C198.064 248.05 193.115 244.319 190.22 238.849C187.364 233.357 187.043 226.719 189.258 218.935C191.55 210.879 195.403 205.218 200.817 201.949C206.23 198.681 212.243 197.988 218.856 199.869C225.258 201.691 229.868 205.358 232.686 210.871C235.503 216.384 235.787 223.093 233.538 230.998C233.401 231.479 233.181 232.196 232.877 233.149L197.17 222.989C195.973 228.334 196.315 232.785 198.195 236.342C200.075 239.898 203.013 242.245 207.011 243.383C209.987 244.229 212.749 244.171 215.297 243.206C217.846 242.242 220.224 240.222 222.431 237.146ZM199.519 216.445L226.255 224.052C227.04 219.922 226.878 216.61 225.767 214.117C224.072 210.256 221.165 207.739 217.048 206.568C213.321 205.507 209.825 205.861 206.56 207.629C203.325 209.405 200.978 212.344 199.519 216.445ZM236.574 257.838L250.198 209.957L257.502 212.035L255.437 219.294C258.266 216.428 260.617 214.676 262.488 214.039C264.389 213.41 266.286 213.365 268.179 213.904C270.915 214.682 273.447 216.345 275.776 218.892L270.839 225.626C269.188 223.889 267.371 222.739 265.388 222.174C263.614 221.67 261.867 221.757 260.147 222.437C258.435 223.088 257.009 224.274 255.869 225.996C254.146 228.625 252.797 231.653 251.822 235.079L244.69 260.147L236.574 257.838ZM329.346 265.277L337.031 268.584C334.594 273.837 331.128 277.513 326.631 279.612C322.174 281.691 317.33 281.986 312.1 280.497C305.548 278.633 300.88 274.998 298.097 269.592C295.352 264.165 295.117 257.454 297.392 249.459C298.863 244.289 301.007 240.01 303.823 236.62C306.64 233.23 310.065 231.069 314.099 230.138C318.172 229.184 322.267 229.294 326.385 230.465C331.585 231.945 335.461 234.478 338.015 238.063C340.577 241.619 341.636 245.949 341.191 251.053L332.954 250.026C333.118 246.596 332.469 243.796 331.007 241.625C329.575 239.463 327.507 237.998 324.802 237.228C320.714 236.065 316.974 236.593 313.581 238.811C310.196 241 307.602 245.265 305.797 251.607C303.967 258.039 303.869 263.064 305.504 266.681C307.14 270.297 309.941 272.67 313.908 273.799C317.094 274.706 320.032 274.486 322.722 273.139C325.412 271.793 327.62 269.172 329.346 265.277ZM343.07 262.261C345.593 253.395 349.926 247.528 356.07 244.663C361.197 242.288 366.721 241.943 372.642 243.628C379.225 245.5 383.989 249.195 386.936 254.712C389.891 260.199 390.286 266.745 388.122 274.349C386.369 280.511 384.056 285.1 381.183 288.117C378.349 291.112 374.881 293.081 370.778 294.026C366.706 294.979 362.581 294.861 358.403 293.672C351.7 291.765 346.886 288.072 343.961 282.594C341.067 277.124 340.769 270.347 343.07 262.261ZM351.411 264.635C349.666 270.766 349.695 275.745 351.498 279.572C353.309 283.369 356.244 285.845 360.301 287C364.329 288.146 368.116 287.566 371.664 285.262C375.211 282.957 377.879 278.664 379.666 272.382C381.351 266.461 381.273 261.597 379.431 257.792C377.629 253.965 374.728 251.483 370.731 250.345C366.673 249.191 362.875 249.751 359.336 252.025C355.797 254.3 353.155 258.503 351.411 264.635ZM390.676 301.686L404.3 253.805L411.604 255.883L409.667 262.691C414.68 258.432 420.508 257.247 427.151 259.137C430.036 259.958 432.531 261.237 434.637 262.973C436.78 264.688 438.214 266.558 438.937 268.583C439.661 270.608 439.934 272.847 439.756 275.298C439.629 276.886 439.031 279.559 437.962 283.316L429.585 312.757L421.469 310.448L429.757 281.322C430.697 278.016 431.083 275.462 430.914 273.659C430.753 271.826 429.998 270.198 428.648 268.774C427.338 267.329 425.6 266.299 423.436 265.683C419.98 264.7 416.677 264.946 413.528 266.421C410.409 267.906 407.977 271.714 406.232 277.845L398.791 303.995L390.676 301.686ZM442.894 301.095L451.278 302.116C450.814 305.46 451.36 308.28 452.917 310.574C454.503 312.878 457.145 314.555 460.842 315.607C464.569 316.668 467.548 316.703 469.779 315.714C472.018 314.694 473.429 313.162 474.011 311.118C474.532 309.285 474.146 307.615 472.853 306.11C471.946 305.072 469.441 303.369 465.339 300.999C459.816 297.803 456.051 295.335 454.044 293.594C452.076 291.832 450.765 289.818 450.11 287.552C449.494 285.265 449.519 282.949 450.186 280.605C450.793 278.471 451.834 276.639 453.309 275.109C454.823 273.558 456.592 272.421 458.618 271.697C460.145 271.125 462.081 270.831 464.425 270.815C466.807 270.778 469.245 271.115 471.74 271.825C475.497 272.894 478.634 274.371 481.152 276.257C483.699 278.152 485.384 280.223 486.207 282.472C487.038 284.69 487.268 287.42 486.898 290.661L478.655 289.485C478.996 286.918 478.491 284.695 477.141 282.816C475.821 280.946 473.584 279.562 470.428 278.664C466.7 277.604 463.865 277.463 461.921 278.242C459.978 279.021 458.771 280.237 458.3 281.89C458.001 282.942 458.062 283.983 458.484 285.013C458.897 286.073 459.729 287.089 460.979 288.062C461.705 288.594 463.898 289.965 467.558 292.176C472.862 295.342 476.501 297.742 478.473 299.375C480.483 300.987 481.87 302.909 482.632 305.14C483.394 307.371 483.382 309.869 482.595 312.635C481.825 315.34 480.302 317.668 478.025 319.619C475.786 321.549 472.991 322.752 469.639 323.228C466.296 323.673 462.745 323.362 458.988 322.293C452.766 320.522 448.385 317.879 445.844 314.362C443.334 310.853 442.35 306.431 442.894 301.095ZM508.025 327.23L507.157 334.732C504.736 334.563 502.624 334.221 500.82 333.708C497.875 332.87 495.723 331.754 494.365 330.361C493.007 328.967 492.211 327.425 491.978 325.734C491.753 324.013 492.333 320.718 493.718 315.848L501.557 288.301L495.605 286.608L497.401 280.296L503.353 281.989L506.727 270.132L516.182 267.559L511.423 284.286L519.583 286.608L517.787 292.92L509.627 290.598L501.66 318.596C501.002 320.91 500.714 322.436 500.796 323.175C500.909 323.921 501.225 324.58 501.745 325.15C502.295 325.729 503.171 326.19 504.373 326.532C505.275 326.788 506.492 327.021 508.025 327.23ZM513.849 336.733L527.473 288.853L534.777 290.931L532.712 298.19C535.542 295.323 537.892 293.572 539.763 292.934C541.664 292.305 543.561 292.261 545.455 292.799C548.19 293.578 550.722 295.24 553.051 297.788L548.114 304.521C546.464 302.785 544.647 301.634 542.663 301.07C540.889 300.565 539.143 300.653 537.422 301.333C535.71 301.983 534.284 303.169 533.144 304.892C531.421 307.521 530.072 310.548 529.097 313.975L521.965 339.042L513.849 336.733ZM576.067 354.437L578.069 347.403C572.802 351.753 566.968 353.017 560.566 351.195C557.74 350.392 555.249 349.098 553.092 347.315C550.966 345.54 549.532 343.67 548.792 341.705C548.09 339.718 547.836 337.469 548.031 334.958C548.154 333.271 548.707 330.699 549.69 327.242L558.131 297.576L566.247 299.885L558.691 326.44C557.485 330.678 556.838 333.581 556.749 335.148C556.653 337.427 557.256 339.418 558.559 341.121C559.87 342.794 561.743 343.976 564.177 344.669C566.612 345.362 569.071 345.396 571.556 344.771C574.049 344.115 576.035 342.845 577.514 340.959C579.032 339.051 580.372 336.054 581.535 331.966L588.835 306.312L596.95 308.621L583.326 356.502L576.067 354.437ZM632.32 351.484L640.005 354.792C637.568 360.045 634.102 363.721 629.605 365.82C625.148 367.898 620.304 368.193 615.074 366.705C608.521 364.841 603.854 361.206 601.071 355.8C598.326 350.373 598.091 343.662 600.366 335.667C601.837 330.497 603.981 326.217 606.797 322.827C609.614 319.438 613.039 317.277 617.073 316.345C621.146 315.392 625.241 315.502 629.359 316.673C634.559 318.153 638.435 320.685 640.989 324.271C643.551 327.827 644.61 332.157 644.164 337.261L635.928 336.234C636.092 332.804 635.443 330.003 633.981 327.833C632.549 325.671 630.481 324.205 627.776 323.436C623.688 322.273 619.948 322.8 616.555 325.019C613.17 327.207 610.576 331.473 608.771 337.815C606.941 344.247 606.843 349.271 608.478 352.888C610.114 356.505 612.915 358.878 616.882 360.007C620.068 360.913 623.006 360.693 625.696 359.347C628.386 358.001 630.594 355.38 632.32 351.484ZM662.037 371.052L661.169 378.554C658.748 378.385 656.636 378.044 654.832 377.531C651.887 376.692 649.735 375.577 648.377 374.183C647.019 372.789 646.223 371.247 645.99 369.556C645.764 367.835 646.345 364.54 647.73 359.671L655.568 332.124L649.617 330.43L651.413 324.118L657.364 325.812L660.738 313.954L670.194 311.381L665.435 328.108L673.595 330.43L671.799 336.742L663.639 334.42L655.672 362.418C655.014 364.732 654.726 366.259 654.808 366.997C654.92 367.744 655.237 368.402 655.757 368.972C656.307 369.551 657.183 370.012 658.385 370.354C659.287 370.611 660.504 370.843 662.037 371.052ZM684.148 323.832L686.803 314.499L694.918 316.808L692.263 326.141L684.148 323.832ZM667.996 380.594L681.62 332.713L689.736 335.022L676.112 382.903L667.996 380.594ZM692.302 361.631C694.824 352.764 699.158 346.898 705.302 344.033C710.429 341.658 715.953 341.313 721.874 342.997C728.456 344.87 733.221 348.565 736.167 354.082C739.122 359.569 739.518 366.115 737.354 373.719C735.601 379.881 733.288 384.47 730.415 387.487C727.581 390.481 724.113 392.451 720.01 393.396C715.937 394.349 711.812 394.231 707.634 393.042C700.932 391.135 696.118 387.442 693.193 381.964C690.298 376.494 690.001 369.716 692.302 361.631ZM700.642 364.004C698.898 370.136 698.927 375.115 700.729 378.942C702.541 382.739 705.475 385.215 709.533 386.37C713.56 387.516 717.348 386.936 720.895 384.632C724.443 382.327 727.11 378.034 728.898 371.752C730.583 365.831 730.504 360.967 728.663 357.162C726.86 353.335 723.96 350.853 719.962 349.715C715.905 348.561 712.107 349.121 708.568 351.395C705.029 353.67 702.387 357.873 700.642 364.004ZM739.908 401.056L753.532 353.175L760.835 355.253L758.898 362.061C763.912 357.802 769.74 356.617 776.382 358.507C779.268 359.328 781.763 360.607 783.868 362.343C786.012 364.058 787.446 365.928 788.169 367.953C788.892 369.978 789.165 372.216 788.988 374.668C788.861 376.256 788.262 378.929 787.193 382.686L778.816 412.127L770.701 409.817L778.988 380.692C779.929 377.386 780.315 374.832 780.145 373.029C779.985 371.196 779.229 369.568 777.88 368.144C776.569 366.699 774.832 365.669 772.668 365.053C769.211 364.069 765.908 364.316 762.759 365.791C759.64 367.276 757.208 371.084 755.464 377.215L748.023 403.365L739.908 401.056Z" fill="#202020"/>
<line x1="32.0366" y1="130.5" x2="1131.4" y2="443.311" stroke="#202020" stroke-width="5" stroke-dasharray="10 10"/>
<line x1="14.5213" y1="192.056" x2="1113.88" y2="504.867" stroke="#202020" stroke-width="5" stroke-dasharray="10 10"/>
<path d="M889.321 443.569L891.322 436.536C886.055 440.886 880.221 442.15 873.819 440.328C870.994 439.524 868.503 438.231 866.346 436.447C864.219 434.673 862.786 432.803 862.045 430.837C861.343 428.851 861.09 426.602 861.284 424.09C861.407 422.403 861.96 419.831 862.944 416.375L871.385 386.709L879.5 389.018L871.944 415.573C870.738 419.811 870.091 422.714 870.003 424.281C869.906 426.56 870.51 428.551 871.812 430.254C873.123 431.926 874.996 433.109 877.431 433.802C879.865 434.495 882.325 434.528 884.809 433.903C887.303 433.248 889.289 431.978 890.768 430.091C892.285 428.184 893.625 425.186 894.789 421.099L902.088 395.445L910.203 397.754L896.579 445.635L889.321 443.569ZM909.339 449.265L922.963 401.385L930.266 403.463L928.329 410.271C933.343 406.011 939.171 404.827 945.813 406.717C948.699 407.538 951.194 408.816 953.299 410.553C955.443 412.267 956.877 414.137 957.6 416.163C958.323 418.188 958.596 420.426 958.419 422.877C958.291 424.466 957.693 427.138 956.624 430.896L948.247 460.336L940.132 458.027L948.419 428.902C949.36 425.596 949.746 423.041 949.576 421.239C949.415 419.406 948.66 417.778 947.311 416.354C946 414.909 944.263 413.878 942.099 413.263C938.642 412.279 935.339 412.525 932.19 414.001C929.071 415.485 926.639 419.293 924.895 425.425L917.454 451.574L909.339 449.265ZM991.8 472.729L993.519 466.687C989.132 470.572 983.993 471.677 978.102 470.001C974.284 468.915 971.067 466.862 968.45 463.843C965.862 460.832 964.216 457.196 963.512 452.934C962.846 448.651 963.211 444.06 964.605 439.161C965.964 434.382 967.992 430.28 970.689 426.856C973.394 423.402 976.634 421.091 980.41 419.924C984.186 418.756 988.043 418.733 991.981 419.853C994.866 420.674 997.261 422.022 999.164 423.895C1001.08 425.739 1002.46 427.839 1003.32 430.194L1010.07 406.48L1018.14 408.776L999.329 474.871L991.8 472.729ZM972.945 441.534C971.201 447.666 971.189 452.617 972.91 456.388C974.631 460.16 977.25 462.545 980.767 463.546C984.313 464.555 987.73 463.968 991.015 461.784C994.34 459.578 996.848 455.499 998.542 449.548C1000.41 442.996 1000.51 437.827 998.86 434.043C997.207 430.259 994.533 427.841 990.836 426.789C987.229 425.763 983.789 426.376 980.516 428.629C977.274 430.89 974.75 435.192 972.945 441.534ZM1049.3 472.422L1057.39 475.845C1054.67 480.368 1051.14 483.473 1046.79 485.16C1042.45 486.848 1037.49 486.9 1031.93 485.318C1024.93 483.325 1019.98 479.594 1017.09 474.124C1014.23 468.633 1013.91 461.995 1016.12 454.21C1018.42 446.155 1022.27 440.493 1027.68 437.225C1033.1 433.957 1039.11 433.263 1045.72 435.145C1052.12 436.967 1056.73 440.634 1059.55 446.147C1062.37 451.659 1062.65 458.368 1060.4 466.273C1060.27 466.754 1060.05 467.471 1059.74 468.425L1024.04 458.264C1022.84 463.61 1023.18 468.061 1025.06 471.617C1026.94 475.174 1029.88 477.521 1033.88 478.658C1036.85 479.505 1039.62 479.446 1042.16 478.482C1044.71 477.517 1047.09 475.497 1049.3 472.422ZM1026.39 451.72L1053.12 459.327C1053.91 455.197 1053.74 451.886 1052.63 449.393C1050.94 445.531 1048.03 443.015 1043.91 441.843C1040.19 440.783 1036.69 441.136 1033.43 442.904C1030.19 444.68 1027.84 447.619 1026.39 451.72ZM1063.44 493.113L1077.06 445.233L1084.37 447.311L1082.3 454.57C1085.13 451.703 1087.48 449.952 1089.35 449.314C1091.26 448.685 1093.15 448.64 1095.05 449.179C1097.78 449.958 1100.31 451.62 1102.64 454.168L1097.7 460.901C1096.05 459.165 1094.24 458.014 1092.25 457.45C1090.48 456.945 1088.73 457.033 1087.01 457.713C1085.3 458.363 1083.88 459.549 1082.74 461.272C1081.01 463.901 1079.66 466.928 1078.69 470.355L1071.56 495.422L1063.44 493.113Z" fill="#202020"/>
</svg>
