<svg width="1190" height="573" viewBox="0 0 1190 573" fill="none" xmlns="http://www.w3.org/2000/svg">
<rect x="98.1456" y="469.877" width="1143" height="89" transform="rotate(-23.7208 98.1456 469.877)" fill="#DEB92A"/>
<path d="M175.398 520.037L172.456 513.343C171.171 520.051 167.482 524.744 161.388 527.422C158.699 528.604 155.955 529.195 153.156 529.196C150.386 529.184 148.09 528.657 146.266 527.615C144.459 526.532 142.83 524.961 141.379 522.902C140.398 521.524 139.185 519.19 137.739 515.9L125.331 487.662L133.056 484.267L144.163 509.544C145.935 513.578 147.287 516.227 148.218 517.491C149.597 519.308 151.33 520.458 153.419 520.939C155.496 521.392 157.693 521.11 160.01 520.091C162.328 519.073 164.244 517.531 165.76 515.466C167.263 513.372 167.984 511.126 167.921 508.731C167.874 506.294 166.996 503.13 165.286 499.239L154.556 474.82L162.281 471.426L182.307 517.001L175.398 520.037ZM194.452 511.665L174.426 466.089L181.378 463.035L184.226 469.515C185.373 463.037 189.108 458.409 195.431 455.631C198.177 454.424 200.915 453.819 203.644 453.814C206.389 453.769 208.685 454.296 210.534 455.395C212.382 456.494 214.019 458.045 215.445 460.047C216.359 461.351 217.603 463.792 219.174 467.368L231.487 495.391L223.763 498.786L211.581 471.063C210.198 467.916 208.867 465.702 207.588 464.421C206.295 463.111 204.676 462.338 202.728 462.101C200.797 461.823 198.802 462.137 196.742 463.042C193.452 464.488 191.064 466.783 189.578 469.928C188.121 473.059 188.675 477.544 191.24 483.38L202.177 508.271L194.452 511.665ZM272.943 477.176L270.416 471.425C269.513 477.215 266.258 481.342 260.65 483.806C257.017 485.403 253.229 485.872 249.288 485.215C245.375 484.544 241.789 482.792 238.53 479.958C235.287 477.082 232.64 473.312 230.591 468.649C228.592 464.1 227.54 459.647 227.435 455.29C227.317 450.904 228.341 447.058 230.506 443.752C232.671 440.445 235.628 437.968 239.376 436.322C242.122 435.115 244.826 434.626 247.487 434.856C250.136 435.058 252.541 435.793 254.703 437.062L244.784 414.489L252.466 411.113L280.11 474.027L272.943 477.176ZM238.531 465.16C241.095 470.997 244.242 474.819 247.973 476.628C251.703 478.436 255.241 478.605 258.589 477.134C261.965 475.651 264.222 473.02 265.361 469.243C266.517 465.424 265.85 460.683 263.361 455.018C260.62 448.781 257.407 444.731 253.722 442.869C250.036 441.007 246.434 440.849 242.915 442.395C239.482 443.904 237.222 446.569 236.137 450.391C235.08 454.201 235.878 459.124 238.531 465.16ZM317.048 440.285L325.464 437.765C326.254 442.982 325.513 447.625 323.239 451.696C320.966 455.767 317.183 458.965 311.89 461.291C305.224 464.22 299.033 464.5 293.315 462.131C287.614 459.721 283.136 454.811 279.88 447.401C276.511 439.734 275.87 432.915 277.957 426.946C280.045 420.977 284.236 416.61 290.53 413.844C296.624 411.166 302.514 411.053 308.199 413.505C313.884 415.956 318.38 420.944 321.686 428.468C321.887 428.926 322.174 429.619 322.548 430.547L288.559 445.482C291.046 450.363 294.146 453.574 297.862 455.116C301.577 456.658 305.337 456.593 309.142 454.921C311.975 453.676 314.066 451.87 315.415 449.502C316.764 447.135 317.308 444.062 317.048 440.285ZM286.198 438.942L311.646 427.759C309.618 424.077 307.382 421.629 304.938 420.416C301.17 418.522 297.326 418.436 293.407 420.158C289.859 421.717 287.391 424.218 286.003 427.661C284.643 431.091 284.708 434.852 286.198 438.942ZM341.135 447.212L321.109 401.637L328.061 398.582L331.097 405.491C331.45 401.479 332.145 398.631 333.18 396.947C334.243 395.251 335.677 394.007 337.479 393.215C340.082 392.071 343.093 391.738 346.512 392.215L347 400.551C344.622 400.265 342.488 400.537 340.6 401.367C338.912 402.108 337.622 403.29 336.73 404.91C335.825 406.503 335.483 408.326 335.703 410.379C336.051 413.503 336.942 416.696 338.375 419.957L348.86 443.818L341.135 447.212ZM417.355 393.804L425.384 391.453C426.855 397.053 426.528 402.096 424.402 406.58C422.292 411.022 418.748 414.337 413.77 416.525C407.533 419.265 401.62 419.44 396.029 417.05C390.455 414.618 385.996 409.597 382.652 401.987C380.49 397.066 379.413 392.402 379.422 387.994C379.432 383.587 380.693 379.739 383.207 376.45C385.738 373.119 388.962 370.593 392.882 368.87C397.832 366.696 402.433 366.176 406.686 367.31C410.927 368.417 414.503 371.078 417.414 375.295L410.413 379.753C408.352 377.006 406.067 375.263 403.557 374.522C401.076 373.769 398.548 373.958 395.973 375.09C392.082 376.8 389.537 379.591 388.337 383.463C387.125 387.307 387.845 392.247 390.497 398.284C393.187 404.406 396.315 408.339 399.881 410.084C403.446 411.828 407.117 411.871 410.894 410.211C413.926 408.879 416.05 406.836 417.264 404.084C418.478 401.332 418.508 397.905 417.355 393.804ZM426.007 382.732C422.298 374.292 421.897 367.01 424.804 360.885C427.24 355.787 431.276 352 436.913 349.523C443.178 346.77 449.205 346.58 454.992 348.952C460.766 351.296 465.244 356.087 468.424 363.325C471.001 369.191 472.144 374.201 471.854 378.356C471.58 382.47 470.163 386.199 467.604 389.542C465.074 392.872 461.821 395.411 457.844 397.159C451.464 399.962 445.401 400.186 439.655 397.829C433.938 395.46 429.388 390.428 426.007 382.732ZM433.946 379.243C436.51 385.08 439.707 388.898 443.535 390.697C447.351 392.468 451.191 392.505 455.053 390.807C458.887 389.123 461.436 386.262 462.7 382.225C463.964 378.188 463.282 373.18 460.654 367.2C458.178 361.564 455.017 357.867 451.173 356.109C447.344 354.309 443.527 354.246 439.722 355.918C435.86 357.615 433.291 360.468 432.014 364.476C430.737 368.484 431.381 373.407 433.946 379.243ZM487.818 382.759L467.792 337.184L474.744 334.129L477.591 340.609C478.739 334.132 482.474 329.504 488.797 326.725C491.543 325.519 494.281 324.913 497.01 324.909C499.755 324.863 502.051 325.39 503.9 326.489C505.748 327.589 507.385 329.139 508.811 331.141C509.725 332.446 510.968 334.886 512.54 338.462L524.853 366.486L517.129 369.88L504.947 342.157C503.564 339.01 502.233 336.796 500.953 335.515C499.661 334.206 498.041 333.432 496.094 333.196C494.163 332.918 492.168 333.232 490.108 334.137C486.817 335.582 484.43 337.877 482.944 341.022C481.487 344.154 482.041 348.638 484.606 354.474L495.543 379.365L487.818 382.759ZM527.673 349.016L534.784 344.458C536.558 347.331 538.777 349.155 541.439 349.931C544.129 350.694 547.234 350.303 550.753 348.757C554.301 347.198 556.619 345.326 557.707 343.141C558.782 340.928 558.892 338.848 558.037 336.903C557.271 335.158 555.909 334.118 553.953 333.782C552.592 333.561 549.577 333.845 544.906 334.634C538.613 335.693 534.138 336.191 531.483 336.129C528.843 336.026 526.549 335.31 524.6 333.982C522.667 332.613 521.211 330.812 520.23 328.581C519.337 326.55 518.972 324.475 519.133 322.356C519.31 320.196 519.949 318.191 521.048 316.343C521.86 314.928 523.164 313.468 524.96 311.962C526.772 310.415 528.865 309.119 531.239 308.076C534.816 306.505 538.175 305.643 541.317 305.491C544.487 305.327 547.106 305.849 549.173 307.057C551.227 308.236 553.145 310.193 554.926 312.926L547.826 317.275C546.451 315.079 544.645 313.688 542.408 313.101C540.199 312.502 537.592 312.862 534.588 314.182C531.041 315.741 528.766 317.44 527.765 319.279C526.764 321.119 526.61 322.825 527.301 324.399C527.741 325.4 528.452 326.163 529.433 326.687C530.427 327.24 531.716 327.493 533.3 327.446C534.198 327.393 536.761 327.051 540.99 326.422C547.096 325.48 551.429 325.01 553.99 325.011C556.566 324.971 558.859 325.568 560.869 326.801C562.879 328.034 564.462 329.967 565.618 332.599C566.75 335.174 567.06 337.939 566.55 340.894C566.055 343.808 564.668 346.516 562.389 349.02C560.097 351.495 557.163 353.518 553.587 355.089C547.665 357.691 542.604 358.447 538.404 357.357C534.233 356.254 530.656 353.474 527.673 349.016ZM594.515 327.633L598.629 333.966C596.656 335.379 594.811 336.463 593.094 337.217C590.291 338.449 587.921 338.961 585.987 338.753C584.052 338.545 582.456 337.864 581.198 336.71C579.927 335.528 578.274 332.619 576.237 327.984L564.716 301.763L559.051 304.252L556.411 298.244L562.076 295.755L557.116 284.469L562.762 276.458L569.758 292.38L577.525 288.967L580.165 294.975L572.397 298.388L584.108 325.038C585.076 327.241 585.827 328.601 586.361 329.117C586.923 329.621 587.587 329.926 588.351 330.034C589.144 330.13 590.112 329.926 591.257 329.423C592.115 329.046 593.201 328.449 594.515 327.633ZM605.061 331.242L585.035 285.667L591.987 282.612L595.023 289.521C595.377 285.509 596.071 282.661 597.106 280.977C598.17 279.281 599.603 278.037 601.405 277.245C604.009 276.101 607.02 275.768 610.438 276.245L610.927 284.581C608.548 284.295 606.415 284.567 604.526 285.397C602.838 286.139 601.548 287.32 600.656 288.941C599.752 290.533 599.409 292.356 599.629 294.41C599.977 297.533 600.868 300.726 602.301 303.987L612.786 327.848L605.061 331.242ZM664.284 305.22L661.342 298.525C660.057 305.234 656.368 309.927 650.274 312.605C647.585 313.786 644.841 314.378 642.042 314.378C639.272 314.367 636.976 313.84 635.152 312.798C633.345 311.715 631.716 310.143 630.265 308.084C629.284 306.706 628.071 304.372 626.625 301.082L614.217 272.844L621.942 269.45L633.049 294.727C634.821 298.761 636.173 301.41 637.104 302.673C638.482 304.491 640.216 305.64 642.305 306.122C644.382 306.575 646.579 306.292 648.896 305.274C651.213 304.256 653.13 302.714 654.646 300.648C656.149 298.554 656.87 296.309 656.807 293.913C656.76 291.476 655.882 288.312 654.172 284.421L643.442 260.003L651.167 256.608L671.193 302.184L664.284 305.22ZM705.743 267.086L713.772 264.735C715.243 270.335 714.916 275.377 712.79 279.861C710.68 284.304 707.136 287.619 702.158 289.807C695.921 292.547 690.007 292.722 684.417 290.331C678.843 287.9 674.384 282.879 671.04 275.268C668.878 270.348 667.801 265.683 667.81 261.276C667.819 256.869 669.081 253.021 671.595 249.731C674.125 246.401 677.35 243.875 681.27 242.152C686.219 239.977 690.821 239.457 695.074 240.592C699.315 241.699 702.891 244.36 705.802 248.576L698.801 253.035C696.74 250.288 694.455 248.544 691.945 247.804C689.464 247.051 686.936 247.24 684.361 248.372C680.47 250.081 677.925 252.872 676.725 256.745C675.512 260.588 676.232 265.529 678.885 271.565C681.575 277.688 684.703 281.621 688.268 283.366C691.834 285.11 695.505 285.152 699.281 283.493C702.314 282.16 704.437 280.118 705.652 277.366C706.866 274.614 706.896 271.187 705.743 267.086ZM741.112 263.218L745.226 269.551C743.253 270.964 741.408 272.048 739.692 272.802C736.888 274.034 734.519 274.546 732.584 274.338C730.649 274.13 729.053 273.449 727.795 272.295C726.524 271.113 724.871 268.204 722.834 263.569L711.313 237.348L705.648 239.837L703.008 233.829L708.673 231.34L703.714 220.054L709.359 212.043L716.355 227.965L724.122 224.552L726.762 230.56L718.995 233.973L730.705 260.623C731.673 262.826 732.424 264.186 732.958 264.702C733.52 265.206 734.184 265.511 734.948 265.619C735.741 265.715 736.71 265.511 737.854 265.008C738.712 264.631 739.798 264.034 741.112 263.218ZM728.046 212.741L724.143 203.858L731.868 200.463L735.771 209.347L728.046 212.741ZM751.787 266.771L731.761 221.195L739.486 217.801L759.512 263.376L751.787 266.771ZM758.425 236.666C754.716 228.227 754.316 220.944 757.223 214.82C759.659 209.722 763.695 205.935 769.331 203.458C775.597 200.705 781.623 200.515 787.41 202.887C793.184 205.231 797.662 210.022 800.842 217.26C803.42 223.125 804.563 228.135 804.272 232.291C803.998 236.405 802.582 240.134 800.023 243.477C797.492 246.807 794.239 249.346 790.262 251.093C783.882 253.897 777.819 254.12 772.073 251.764C766.356 249.395 761.807 244.363 758.425 236.666ZM766.364 233.178C768.929 239.014 772.125 242.832 775.954 244.632C779.77 246.402 783.609 246.439 787.471 244.742C791.305 243.058 793.854 240.197 795.118 236.16C796.382 232.123 795.7 227.114 793.073 221.135C790.596 215.499 787.436 211.802 783.591 210.043C779.763 208.244 775.946 208.18 772.141 209.852C768.278 211.549 765.709 214.402 764.432 218.411C763.156 222.419 763.8 227.342 766.364 233.178ZM820.236 236.694L800.21 191.118L807.162 188.064L810.01 194.544C811.157 188.066 814.892 183.438 821.215 180.66C823.962 179.453 826.699 178.848 829.428 178.843C832.173 178.798 834.47 179.325 836.318 180.424C838.166 181.523 839.803 183.074 841.229 185.076C842.144 186.38 843.387 188.821 844.958 192.397L857.272 220.421L849.547 223.815L837.366 196.092C835.983 192.945 834.651 190.731 833.372 189.45C832.08 188.14 830.46 187.367 828.513 187.13C826.581 186.853 824.586 187.166 822.526 188.071C819.236 189.517 816.848 191.812 815.363 194.957C813.906 198.089 814.459 202.573 817.024 208.409L827.961 233.3L820.236 236.694Z" fill="#202020"/>
<line x1="102.37" y1="479.49" x2="1148.81" y2="19.6836" stroke="#202020" stroke-width="5" stroke-dasharray="10 10"/>
<line x1="128.116" y1="538.083" x2="1174.55" y2="78.2768" stroke="#202020" stroke-width="5" stroke-dasharray="10 10"/>
<path d="M962.456 174.203L959.514 167.508C958.229 174.217 954.54 178.91 948.446 181.587C945.757 182.769 943.013 183.36 940.214 183.361C937.444 183.35 935.148 182.823 933.324 181.781C931.517 180.697 929.888 179.126 928.437 177.067C927.456 175.689 926.243 173.355 924.797 170.065L912.39 141.827L920.114 138.433L931.221 163.71C932.993 167.744 934.345 170.392 935.276 171.656C936.655 173.474 938.389 174.623 940.478 175.105C942.554 175.558 944.751 175.275 947.068 174.257C949.386 173.239 951.302 171.697 952.818 169.631C954.322 167.537 955.042 165.292 954.979 162.896C954.932 160.459 954.054 157.295 952.344 153.404L941.615 128.985L949.339 125.591L969.365 171.167L962.456 174.203ZM981.51 165.83L961.484 120.255L968.436 117.2L971.284 123.68C972.431 117.203 976.166 112.575 982.489 109.796C985.236 108.59 987.973 107.984 990.702 107.98C993.447 107.934 995.743 108.461 997.592 109.56C999.44 110.66 1001.08 112.21 1002.5 114.212C1003.42 115.517 1004.66 117.957 1006.23 121.533L1018.55 149.557L1010.82 152.951L998.639 125.228C997.257 122.081 995.925 119.867 994.646 118.586C993.353 117.276 991.734 116.503 989.786 116.267C987.855 115.989 985.86 116.303 983.8 117.208C980.51 118.653 978.122 120.948 976.636 124.093C975.179 127.225 975.733 131.709 978.298 137.545L989.235 162.436L981.51 165.83ZM1060 131.341L1057.47 125.591C1056.57 131.381 1053.32 135.508 1047.71 137.972C1044.07 139.568 1040.29 140.038 1036.35 139.38C1032.43 138.71 1028.85 136.958 1025.59 134.123C1022.34 131.247 1019.7 127.478 1017.65 122.814C1015.65 118.265 1014.6 113.812 1014.49 109.455C1014.38 105.07 1015.4 101.224 1017.56 97.9171C1019.73 94.6105 1022.69 92.1338 1026.43 90.4869C1029.18 89.2801 1031.88 88.7917 1034.55 89.0219C1037.19 89.2235 1039.6 89.9586 1041.76 91.2274L1031.84 68.6542L1039.52 65.2788L1067.17 128.192L1060 131.341ZM1025.59 119.326C1028.15 125.162 1031.3 128.985 1035.03 130.793C1038.76 132.602 1042.3 132.77 1045.65 131.3C1049.02 129.816 1051.28 127.186 1052.42 123.408C1053.57 119.59 1052.91 114.848 1050.42 109.183C1047.68 102.946 1044.47 98.8968 1040.78 97.0346C1037.09 95.1724 1033.49 95.0144 1029.97 96.5607C1026.54 98.0692 1024.28 100.735 1023.2 104.557C1022.14 108.366 1022.94 113.289 1025.59 119.326ZM1104.11 94.4508L1112.52 91.9305C1113.31 97.147 1112.57 101.791 1110.3 105.862C1108.02 109.932 1104.24 113.131 1098.95 115.456C1092.28 118.386 1086.09 118.666 1080.37 116.297C1074.67 113.887 1070.19 108.976 1066.94 101.567C1063.57 93.8991 1062.93 87.0808 1065.02 81.1117C1067.1 75.1426 1071.29 70.7752 1077.59 68.0095C1083.68 65.3319 1089.57 65.2187 1095.26 67.67C1100.94 70.1213 1105.44 75.1092 1108.74 82.6336C1108.95 83.0913 1109.23 83.7842 1109.61 84.7123L1075.62 99.647C1078.1 104.528 1081.2 107.739 1084.92 109.281C1088.64 110.823 1092.4 110.758 1096.2 109.086C1099.03 107.842 1101.12 106.036 1102.47 103.668C1103.82 101.3 1104.37 98.2278 1104.11 94.4508ZM1073.26 93.107L1098.7 81.9249C1096.68 78.242 1094.44 75.7941 1092 74.5813C1088.23 72.687 1084.38 72.6009 1080.46 74.3232C1076.92 75.882 1074.45 78.3831 1073.06 81.8262C1071.7 85.2568 1071.77 89.0171 1073.26 93.107ZM1128.19 101.378L1108.17 55.802L1115.12 52.7471L1118.16 59.6564C1118.51 55.6441 1119.2 52.7961 1120.24 51.1124C1121.3 49.4162 1122.73 48.1721 1124.54 47.3801C1127.14 46.2361 1130.15 45.903 1133.57 46.3806L1134.06 54.7166C1131.68 54.4305 1129.55 54.7023 1127.66 55.532C1125.97 56.2737 1124.68 57.4549 1123.79 59.0757C1122.88 60.6679 1122.54 62.491 1122.76 64.5448C1123.11 67.6685 1124 70.8611 1125.43 74.1226L1135.92 97.9833L1128.19 101.378Z" fill="#202020"/>
<rect x="30.9102" y="119.4" width="1143" height="89" transform="rotate(15.8831 30.9102 119.4)" fill="#DEB92A"/>
<path d="M58.4543 207.294L60.4556 200.261C55.1891 204.61 49.3548 205.874 42.9527 204.053C40.1273 203.249 37.6362 201.955 35.4795 200.172C33.3527 198.397 31.9191 196.527 31.1787 194.562C30.4769 192.575 30.2233 190.326 30.418 187.815C30.5407 186.128 31.0938 183.556 32.0773 180.099L40.5185 150.433L48.6338 152.742L41.0778 179.298C39.8719 183.536 39.2248 186.438 39.1363 188.005C39.0401 190.284 39.6432 192.276 40.9457 193.978C42.2567 195.651 44.1296 196.834 46.5642 197.526C48.9988 198.219 51.4584 198.253 53.9431 197.628C56.4364 196.973 58.4224 195.702 59.9013 193.816C61.4188 191.908 62.7591 188.911 63.9222 184.823L71.2216 159.169L79.337 161.479L65.7131 209.359L58.4543 207.294ZM78.4723 212.99L92.0962 165.109L99.4 167.187L97.4629 173.995C102.476 169.736 108.304 168.551 114.947 170.441C117.832 171.262 120.328 172.541 122.433 174.277C124.577 175.992 126.01 177.862 126.734 179.887C127.457 181.912 127.73 184.151 127.552 186.602C127.425 188.19 126.827 190.863 125.758 194.62L117.381 224.061L109.266 221.752L117.553 192.627C118.494 189.32 118.879 186.766 118.71 184.963C118.549 183.13 117.794 181.502 116.445 180.079C115.134 178.633 113.396 177.603 111.232 176.987C107.776 176.004 104.473 176.25 101.324 177.726C98.2047 179.21 95.7729 183.018 94.0282 189.149L86.5876 215.299L78.4723 212.99ZM160.933 236.453L162.652 230.412C158.265 234.297 153.126 235.401 147.235 233.725C143.418 232.639 140.201 230.586 137.583 227.567C134.996 224.557 133.35 220.921 132.646 216.659C131.98 212.376 132.344 207.785 133.738 202.885C135.098 198.106 137.126 194.005 139.822 190.581C142.527 187.126 145.768 184.816 149.544 183.648C153.32 182.481 157.177 182.457 161.114 183.578C164 184.399 166.394 185.746 168.298 187.62C170.21 189.464 171.594 191.563 172.451 193.919L179.199 170.204L187.269 172.5L168.463 238.596L160.933 236.453ZM142.079 205.259C140.334 211.39 140.323 216.342 142.044 220.113C143.765 223.884 146.384 226.27 149.9 227.271C153.447 228.28 156.863 227.692 160.149 225.508C163.473 223.302 165.982 219.224 167.675 213.273C169.54 206.72 169.646 201.552 167.993 197.768C166.341 193.984 163.666 191.566 159.969 190.514C156.362 189.487 152.923 190.101 149.65 192.353C146.407 194.615 143.884 198.916 142.079 205.259ZM218.431 236.146L226.522 239.569C223.806 244.092 220.274 247.197 215.928 248.885C211.581 250.572 206.628 250.625 201.067 249.042C194.064 247.05 189.115 243.319 186.22 237.849C183.364 232.357 183.043 225.719 185.258 217.935C187.55 209.879 191.403 204.218 196.817 200.949C202.23 197.681 208.243 196.988 214.856 198.869C221.258 200.691 225.868 204.358 228.686 209.871C231.503 215.384 231.787 222.093 229.538 229.998C229.401 230.479 229.181 231.196 228.877 232.149L193.17 221.989C191.973 227.334 192.315 231.785 194.195 235.342C196.075 238.898 199.013 241.245 203.011 242.383C205.987 243.229 208.749 243.171 211.297 242.206C213.846 241.242 216.224 239.222 218.431 236.146ZM195.519 215.445L222.255 223.052C223.04 218.922 222.878 215.61 221.767 213.117C220.072 209.256 217.165 206.739 213.048 205.568C209.321 204.507 205.825 204.861 202.56 206.629C199.325 208.405 196.978 211.344 195.519 215.445ZM232.574 256.838L246.198 208.957L253.502 211.035L251.437 218.294C254.266 215.428 256.617 213.676 258.488 213.039C260.389 212.41 262.286 212.365 264.179 212.904C266.915 213.682 269.447 215.345 271.776 217.892L266.839 224.626C265.188 222.889 263.371 221.739 261.388 221.174C259.614 220.67 257.867 220.757 256.147 221.437C254.435 222.088 253.009 223.274 251.869 224.996C250.146 227.625 248.797 230.653 247.822 234.079L240.69 259.147L232.574 256.838ZM325.346 264.277L333.031 267.584C330.594 272.837 327.128 276.513 322.631 278.612C318.174 280.691 313.33 280.986 308.1 279.497C301.548 277.633 296.88 273.998 294.097 268.592C291.352 263.165 291.117 256.454 293.392 248.459C294.863 243.289 297.007 239.01 299.823 235.62C302.64 232.23 306.065 230.069 310.099 229.138C314.172 228.184 318.267 228.294 322.385 229.465C327.585 230.945 331.461 233.478 334.015 237.063C336.577 240.619 337.636 244.949 337.191 250.053L328.954 249.026C329.118 245.596 328.469 242.796 327.007 240.625C325.575 238.463 323.507 236.998 320.802 236.228C316.714 235.065 312.974 235.593 309.581 237.811C306.196 240 303.602 244.265 301.797 250.607C299.967 257.039 299.869 262.064 301.504 265.681C303.14 269.297 305.941 271.67 309.908 272.799C313.094 273.706 316.032 273.486 318.722 272.139C321.412 270.793 323.62 268.172 325.346 264.277ZM339.07 261.261C341.593 252.395 345.926 246.528 352.07 243.663C357.197 241.288 362.721 240.943 368.642 242.628C375.225 244.5 379.989 248.195 382.936 253.712C385.891 259.199 386.286 265.745 384.122 273.349C382.369 279.511 380.056 284.1 377.183 287.117C374.349 290.112 370.881 292.081 366.778 293.026C362.706 293.979 358.581 293.861 354.403 292.672C347.7 290.765 342.886 287.072 339.961 281.594C337.067 276.124 336.769 269.347 339.07 261.261ZM347.411 263.635C345.666 269.766 345.695 274.745 347.498 278.572C349.309 282.369 352.244 284.845 356.301 286C360.329 287.146 364.116 286.566 367.664 284.262C371.211 281.957 373.879 277.664 375.666 271.382C377.351 265.461 377.273 260.597 375.431 256.792C373.629 252.965 370.728 250.483 366.731 249.345C362.673 248.191 358.875 248.751 355.336 251.025C351.797 253.3 349.155 257.503 347.411 263.635ZM386.676 300.686L400.3 252.805L407.604 254.883L405.667 261.691C410.68 257.432 416.508 256.247 423.151 258.137C426.036 258.958 428.531 260.237 430.637 261.973C432.78 263.688 434.214 265.558 434.937 267.583C435.661 269.608 435.934 271.847 435.756 274.298C435.629 275.886 435.031 278.559 433.962 282.316L425.585 311.757L417.469 309.448L425.757 280.322C426.697 277.016 427.083 274.462 426.914 272.659C426.753 270.826 425.998 269.198 424.648 267.774C423.338 266.329 421.6 265.299 419.436 264.683C415.98 263.7 412.677 263.946 409.528 265.421C406.409 266.906 403.977 270.714 402.232 276.845L394.791 302.995L386.676 300.686ZM438.894 300.095L447.278 301.116C446.814 304.46 447.36 307.28 448.917 309.574C450.503 311.878 453.145 313.555 456.842 314.607C460.569 315.668 463.548 315.703 465.779 314.714C468.018 313.694 469.429 312.162 470.011 310.118C470.532 308.285 470.146 306.615 468.853 305.11C467.946 304.072 465.441 302.369 461.339 299.999C455.816 296.803 452.051 294.335 450.044 292.594C448.076 290.832 446.765 288.818 446.11 286.552C445.494 284.265 445.519 281.949 446.186 279.605C446.793 277.471 447.834 275.639 449.309 274.109C450.823 272.558 452.592 271.421 454.618 270.697C456.145 270.125 458.081 269.831 460.425 269.815C462.807 269.778 465.245 270.115 467.74 270.825C471.497 271.894 474.634 273.371 477.152 275.257C479.699 277.152 481.384 279.223 482.207 281.472C483.038 283.69 483.268 286.42 482.898 289.661L474.655 288.485C474.996 285.918 474.491 283.695 473.141 281.816C471.821 279.946 469.584 278.562 466.428 277.664C462.7 276.604 459.865 276.463 457.921 277.242C455.978 278.021 454.771 279.237 454.3 280.89C454.001 281.942 454.062 282.983 454.484 284.013C454.897 285.073 455.729 286.089 456.979 287.062C457.705 287.594 459.898 288.965 463.558 291.176C468.862 294.342 472.501 296.742 474.473 298.375C476.483 299.987 477.87 301.909 478.632 304.14C479.394 306.371 479.382 308.869 478.595 311.635C477.825 314.34 476.302 316.668 474.025 318.619C471.786 320.549 468.991 321.752 465.639 322.228C462.296 322.673 458.745 322.362 454.988 321.293C448.766 319.522 444.385 316.879 441.844 313.362C439.334 309.853 438.35 305.431 438.894 300.095ZM504.025 326.23L503.157 333.732C500.736 333.563 498.624 333.221 496.82 332.708C493.875 331.87 491.723 330.754 490.365 329.361C489.007 327.967 488.211 326.425 487.978 324.734C487.753 323.013 488.333 319.718 489.718 314.848L497.557 287.301L491.605 285.608L493.401 279.296L499.353 280.989L502.727 269.132L512.182 266.559L507.423 283.286L515.583 285.608L513.787 291.92L505.627 289.598L497.66 317.596C497.002 319.91 496.714 321.436 496.796 322.175C496.909 322.921 497.225 323.58 497.745 324.15C498.295 324.729 499.171 325.19 500.373 325.532C501.275 325.788 502.492 326.021 504.025 326.23ZM509.849 335.733L523.473 287.853L530.777 289.931L528.712 297.19C531.542 294.323 533.892 292.572 535.763 291.934C537.664 291.305 539.561 291.261 541.455 291.799C544.19 292.578 546.722 294.24 549.051 296.788L544.114 303.521C542.464 301.785 540.647 300.634 538.663 300.07C536.889 299.565 535.143 299.653 533.422 300.333C531.71 300.983 530.284 302.169 529.144 303.892C527.421 306.521 526.072 309.548 525.097 312.975L517.965 338.042L509.849 335.733ZM572.067 353.437L574.069 346.403C568.802 350.753 562.968 352.017 556.566 350.195C553.74 349.392 551.249 348.098 549.092 346.315C546.966 344.54 545.532 342.67 544.792 340.705C544.09 338.718 543.836 336.469 544.031 333.958C544.154 332.271 544.707 329.699 545.69 326.242L554.131 296.576L562.247 298.885L554.691 325.44C553.485 329.678 552.838 332.581 552.749 334.148C552.653 336.427 553.256 338.418 554.559 340.121C555.87 341.794 557.743 342.976 560.177 343.669C562.612 344.362 565.071 344.396 567.556 343.771C570.049 343.115 572.035 341.845 573.514 339.959C575.032 338.051 576.372 335.054 577.535 330.966L584.835 305.312L592.95 307.621L579.326 355.502L572.067 353.437ZM628.32 350.484L636.005 353.792C633.568 359.045 630.102 362.721 625.605 364.82C621.148 366.898 616.304 367.193 611.074 365.705C604.521 363.841 599.854 360.206 597.071 354.8C594.326 349.373 594.091 342.662 596.366 334.667C597.837 329.497 599.981 325.217 602.797 321.827C605.614 318.438 609.039 316.277 613.073 315.345C617.146 314.392 621.241 314.502 625.359 315.673C630.559 317.153 634.435 319.685 636.989 323.271C639.551 326.827 640.61 331.157 640.164 336.261L631.928 335.234C632.092 331.804 631.443 329.003 629.981 326.833C628.549 324.671 626.481 323.205 623.776 322.436C619.688 321.273 615.948 321.8 612.555 324.019C609.17 326.207 606.576 330.473 604.771 336.815C602.941 343.247 602.843 348.271 604.478 351.888C606.114 355.505 608.915 357.878 612.882 359.007C616.068 359.913 619.006 359.693 621.696 358.347C624.386 357.001 626.594 354.38 628.32 350.484ZM658.037 370.052L657.169 377.554C654.748 377.385 652.636 377.044 650.832 376.531C647.887 375.692 645.735 374.577 644.377 373.183C643.019 371.789 642.223 370.247 641.99 368.556C641.764 366.835 642.345 363.54 643.73 358.671L651.568 331.124L645.617 329.43L647.413 323.118L653.364 324.812L656.738 312.954L666.194 310.381L661.435 327.108L669.595 329.43L667.799 335.742L659.639 333.42L651.672 361.418C651.014 363.732 650.726 365.259 650.808 365.997C650.92 366.744 651.237 367.402 651.757 367.972C652.307 368.551 653.183 369.012 654.385 369.354C655.287 369.611 656.504 369.843 658.037 370.052ZM680.148 322.832L682.803 313.499L690.918 315.808L688.263 325.141L680.148 322.832ZM663.996 379.594L677.62 331.713L685.736 334.022L672.112 381.903L663.996 379.594ZM688.302 360.631C690.824 351.764 695.158 345.898 701.302 343.033C706.429 340.658 711.953 340.313 717.874 341.997C724.456 343.87 729.221 347.565 732.167 353.082C735.122 358.569 735.518 365.115 733.354 372.719C731.601 378.881 729.288 383.47 726.415 386.487C723.581 389.481 720.113 391.451 716.01 392.396C711.937 393.349 707.812 393.231 703.634 392.042C696.932 390.135 692.118 386.442 689.193 380.964C686.298 375.494 686.001 368.716 688.302 360.631ZM696.642 363.004C694.898 369.136 694.927 374.115 696.729 377.942C698.541 381.739 701.475 384.215 705.533 385.37C709.56 386.516 713.348 385.936 716.895 383.632C720.443 381.327 723.11 377.034 724.898 370.752C726.583 364.831 726.504 359.967 724.663 356.162C722.86 352.335 719.96 349.853 715.962 348.715C711.905 347.561 708.107 348.121 704.568 350.395C701.029 352.67 698.387 356.873 696.642 363.004ZM735.908 400.056L749.532 352.175L756.835 354.253L754.898 361.061C759.912 356.802 765.74 355.617 772.382 357.507C775.268 358.328 777.763 359.607 779.868 361.343C782.012 363.058 783.446 364.928 784.169 366.953C784.892 368.978 785.165 371.216 784.988 373.668C784.861 375.256 784.262 377.929 783.193 381.686L774.816 411.127L766.701 408.817L774.988 379.692C775.929 376.386 776.315 373.832 776.145 372.029C775.985 370.196 775.229 368.568 773.88 367.144C772.569 365.699 770.832 364.669 768.668 364.053C765.211 363.069 761.908 363.316 758.759 364.791C755.64 366.276 753.208 370.084 751.464 376.215L744.023 402.365L735.908 400.056Z" fill="#202020"/>
<line x1="28.0366" y1="129.5" x2="1127.4" y2="442.311" stroke="#202020" stroke-width="5" stroke-dasharray="10 10"/>
<line x1="10.5213" y1="191.056" x2="1109.88" y2="503.867" stroke="#202020" stroke-width="5" stroke-dasharray="10 10"/>
<path d="M885.321 442.569L887.322 435.536C882.055 439.886 876.221 441.15 869.819 439.328C866.994 438.524 864.503 437.231 862.346 435.447C860.219 433.673 858.786 431.803 858.045 429.837C857.343 427.851 857.09 425.602 857.284 423.09C857.407 421.403 857.96 418.831 858.944 415.375L867.385 385.709L875.5 388.018L867.944 414.573C866.738 418.811 866.091 421.714 866.003 423.281C865.906 425.56 866.51 427.551 867.812 429.254C869.123 430.926 870.996 432.109 873.431 432.802C875.865 433.495 878.325 433.528 880.809 432.903C883.303 432.248 885.289 430.978 886.768 429.091C888.285 427.184 889.625 424.186 890.789 420.099L898.088 394.445L906.203 396.754L892.579 444.635L885.321 442.569ZM905.339 448.265L918.963 400.385L926.266 402.463L924.329 409.271C929.343 405.011 935.171 403.827 941.813 405.717C944.699 406.538 947.194 407.816 949.299 409.553C951.443 411.267 952.877 413.137 953.6 415.163C954.323 417.188 954.596 419.426 954.419 421.877C954.291 423.466 953.693 426.138 952.624 429.896L944.247 459.336L936.132 457.027L944.419 427.902C945.36 424.596 945.746 422.041 945.576 420.239C945.415 418.406 944.66 416.778 943.311 415.354C942 413.909 940.263 412.878 938.099 412.263C934.642 411.279 931.339 411.525 928.19 413.001C925.071 414.485 922.639 418.293 920.895 424.425L913.454 450.574L905.339 448.265ZM987.8 471.729L989.519 465.687C985.132 469.572 979.993 470.677 974.102 469.001C970.284 467.915 967.067 465.862 964.45 462.843C961.862 459.832 960.216 456.196 959.512 451.934C958.846 447.651 959.211 443.06 960.605 438.161C961.964 433.382 963.992 429.28 966.689 425.856C969.394 422.402 972.634 420.091 976.41 418.924C980.186 417.756 984.043 417.733 987.981 418.853C990.866 419.674 993.261 421.022 995.164 422.895C997.076 424.739 998.461 426.839 999.318 429.194L1006.07 405.48L1014.14 407.776L995.329 473.871L987.8 471.729ZM968.945 440.534C967.201 446.666 967.189 451.617 968.91 455.388C970.631 459.16 973.25 461.545 976.767 462.546C980.313 463.555 983.73 462.968 987.015 460.784C990.34 458.578 992.848 454.499 994.542 448.548C996.406 441.996 996.512 436.827 994.86 433.043C993.207 429.259 990.533 426.841 986.836 425.789C983.229 424.763 979.789 425.376 976.516 427.629C973.274 429.89 970.75 434.192 968.945 440.534ZM1045.3 471.422L1053.39 474.845C1050.67 479.368 1047.14 482.473 1042.79 484.16C1038.45 485.848 1033.49 485.9 1027.93 484.318C1020.93 482.325 1015.98 478.594 1013.09 473.124C1010.23 467.633 1009.91 460.995 1012.12 453.21C1014.42 445.155 1018.27 439.493 1023.68 436.225C1029.1 432.957 1035.11 432.263 1041.72 434.145C1048.12 435.967 1052.73 439.634 1055.55 445.147C1058.37 450.659 1058.65 457.368 1056.4 465.273C1056.27 465.754 1056.05 466.471 1055.74 467.425L1020.04 457.264C1018.84 462.61 1019.18 467.061 1021.06 470.617C1022.94 474.174 1025.88 476.521 1029.88 477.658C1032.85 478.505 1035.62 478.446 1038.16 477.482C1040.71 476.517 1043.09 474.497 1045.3 471.422ZM1022.39 450.72L1049.12 458.327C1049.91 454.197 1049.74 450.886 1048.63 448.393C1046.94 444.531 1044.03 442.015 1039.91 440.843C1036.19 439.783 1032.69 440.136 1029.43 441.904C1026.19 443.68 1023.84 446.619 1022.39 450.72ZM1059.44 492.113L1073.06 444.233L1080.37 446.311L1078.3 453.57C1081.13 450.703 1083.48 448.952 1085.35 448.314C1087.26 447.685 1089.15 447.64 1091.05 448.179C1093.78 448.958 1096.31 450.62 1098.64 453.168L1093.7 459.901C1092.05 458.165 1090.24 457.014 1088.25 456.45C1086.48 455.945 1084.73 456.033 1083.01 456.713C1081.3 457.363 1079.88 458.549 1078.74 460.272C1077.01 462.901 1075.66 465.928 1074.69 469.355L1067.56 494.422L1059.44 492.113Z" fill="#202020"/>
</svg>
