<svg width="257" height="67" viewBox="0 0 257 67" fill="none" xmlns="http://www.w3.org/2000/svg">
<rect x="2.5" y="2.5" width="252" height="62" rx="31" fill="#CC6843" stroke="black" stroke-width="5"/>
<path d="M73 32V11H91V14H94V23H91V26H79V32H73ZM79 23H88V14H79V23ZM106 14V11H112V14H106ZM100 32V29H106V20H103V17H112V29H118V32H100ZM121 32V29H124V26H127V23H130V20H121V17H142V20H139V23H136V26H133V29H142V32H121ZM145 32V29H148V26H151V23H154V20H145V17H166V20H163V23H160V26H157V29H166V32H145ZM172 32V29H169V26H172V23H184V20H172V17H187V20H190V32H172ZM175 29H184V26H175V29Z" fill="black"/>
<path d="M73 56V35H79V38H82V41H85V38H88V35H94V56H88V44H85V50H82V44H79V56H73ZM100 56V53H97V50H100V47H112V44H100V41H115V44H118V56H100ZM103 53H112V50H103V53ZM121 56V41H139V44H142V56H136V44H127V56H121ZM154 38V35H160V38H154ZM148 56V53H154V44H151V41H160V53H166V56H148ZM172 56V53H169V50H172V47H184V44H172V41H187V44H190V56H172ZM175 53H184V50H175V53Z" fill="black"/>
<mask id="path-4-inside-1" fill="white">
<path fill-rule="evenodd" clip-rule="evenodd" d="M30.5 11H45.625V14.9706H53.875V18.7005H58V25.4385H52.5V26.8824H41V32.1765H29.125V34.8235L41 34.8235V40.1176H52.5V41.5615H58V48.2995H53.875V52.0294H45.625V56H30.5V52.0294H20.875V48.0588H21V44.0882H18.125V40.5989H14V36.1471V34.8235V32.1765V30.8529V26.4011H18.125V22.9118H21V18.9412H20.875V14.9706H30.5V11Z"/>
</mask>
<path fill-rule="evenodd" clip-rule="evenodd" d="M30.5 11H45.625V14.9706H53.875V18.7005H58V25.4385H52.5V26.8824H41V32.1765H29.125V34.8235L41 34.8235V40.1176H52.5V41.5615H58V48.2995H53.875V52.0294H45.625V56H30.5V52.0294H20.875V48.0588H21V44.0882H18.125V40.5989H14V36.1471V34.8235V32.1765V30.8529V26.4011H18.125V22.9118H21V18.9412H20.875V14.9706H30.5V11Z" fill="#DEB92A"/>
<path d="M45.625 11H48.625V8H45.625V11ZM30.5 11V8H27.5V11H30.5ZM45.625 14.9706H42.625V17.9706H45.625V14.9706ZM53.875 14.9706H56.875V11.9706H53.875V14.9706ZM53.875 18.7005H50.875V21.7005H53.875V18.7005ZM58 18.7005H61V15.7005H58V18.7005ZM58 25.4385V28.4385H61V25.4385H58ZM52.5 25.4385V22.4385H49.5V25.4385H52.5ZM52.5 26.8824V29.8824H55.5V26.8824H52.5ZM41 26.8824V23.8824H38V26.8824H41ZM41 32.1765V35.1765H44V32.1765H41ZM29.125 32.1765V29.1765H26.125V32.1765H29.125ZM29.125 34.8235H26.125V37.8235H29.125L29.125 34.8235ZM41 34.8235H44V31.8235H41V34.8235ZM41 40.1176H38V43.1176H41V40.1176ZM52.5 40.1176H55.5V37.1176H52.5V40.1176ZM52.5 41.5615H49.5V44.5615H52.5V41.5615ZM58 41.5615H61V38.5615H58V41.5615ZM58 48.2995V51.2995H61V48.2995H58ZM53.875 48.2995V45.2995H50.875V48.2995H53.875ZM53.875 52.0294V55.0294H56.875V52.0294H53.875ZM45.625 52.0294V49.0294H42.625V52.0294H45.625ZM45.625 56V59H48.625V56H45.625ZM30.5 56H27.5V59H30.5V56ZM30.5 52.0294H33.5V49.0294H30.5V52.0294ZM20.875 52.0294H17.875V55.0294H20.875V52.0294ZM20.875 48.0588V45.0588H17.875V48.0588H20.875ZM21 48.0588V51.0588H24V48.0588H21ZM21 44.0882H24V41.0882H21V44.0882ZM18.125 44.0882H15.125V47.0882H18.125V44.0882ZM18.125 40.5989H21.125V37.5989H18.125V40.5989ZM14 40.5989H11V43.5989H14V40.5989ZM14 26.4011V23.4011H11V26.4011H14ZM18.125 26.4011V29.4011H21.125V26.4011H18.125ZM18.125 22.9118V19.9118H15.125V22.9118H18.125ZM21 22.9118V25.9118H24V22.9118H21ZM21 18.9412H24V15.9412H21V18.9412ZM20.875 18.9412H17.875V21.9412H20.875V18.9412ZM20.875 14.9706V11.9706H17.875V14.9706H20.875ZM30.5 14.9706V17.9706H33.5V14.9706H30.5ZM45.625 8H30.5V14H45.625V8ZM48.625 14.9706V11H42.625V14.9706H48.625ZM53.875 11.9706H45.625V17.9706H53.875V11.9706ZM56.875 18.7005V14.9706H50.875V18.7005H56.875ZM58 15.7005H53.875V21.7005H58V15.7005ZM61 25.4385V18.7005H55V25.4385H61ZM52.5 28.4385H58V22.4385H52.5V28.4385ZM55.5 26.8824V25.4385H49.5V26.8824H55.5ZM41 29.8824H52.5V23.8824H41V29.8824ZM44 32.1765V26.8824H38V32.1765H44ZM29.125 35.1765H41V29.1765H29.125V35.1765ZM26.125 32.1765V34.8235H32.125V32.1765H26.125ZM29.125 37.8235L41 37.8235V31.8235L29.125 31.8235L29.125 37.8235ZM38 34.8235V40.1176H44V34.8235H38ZM41 43.1176H52.5V37.1176H41V43.1176ZM49.5 40.1176V41.5615H55.5V40.1176H49.5ZM52.5 44.5615H58V38.5615H52.5V44.5615ZM55 41.5615V48.2995H61V41.5615H55ZM58 45.2995H53.875V51.2995H58V45.2995ZM50.875 48.2995V52.0294H56.875V48.2995H50.875ZM53.875 49.0294H45.625V55.0294H53.875V49.0294ZM42.625 52.0294V56H48.625V52.0294H42.625ZM45.625 53H30.5V59H45.625V53ZM33.5 56V52.0294H27.5V56H33.5ZM30.5 49.0294H20.875V55.0294H30.5V49.0294ZM23.875 52.0294V48.0588H17.875V52.0294H23.875ZM20.875 51.0588H21V45.0588H20.875V51.0588ZM24 48.0588V44.0882H18V48.0588H24ZM21 41.0882H18.125V47.0882H21V41.0882ZM21.125 44.0882V40.5989H15.125V44.0882H21.125ZM18.125 37.5989H14V43.5989H18.125V37.5989ZM17 40.5989V36.1471H11V40.5989H17ZM17 36.1471V34.8235H11V36.1471H17ZM17 34.8235V32.1765H11V34.8235H17ZM11 30.8529V32.1765H17V30.8529H11ZM11 26.4011V30.8529H17V26.4011H11ZM18.125 23.4011H14V29.4011H18.125V23.4011ZM15.125 22.9118V26.4011H21.125V22.9118H15.125ZM21 19.9118H18.125V25.9118H21V19.9118ZM18 18.9412V22.9118H24V18.9412H18ZM20.875 21.9412H21V15.9412H20.875V21.9412ZM17.875 14.9706V18.9412H23.875V14.9706H17.875ZM30.5 11.9706H20.875V17.9706H30.5V11.9706ZM27.5 11V14.9706H33.5V11H27.5Z" fill="black" mask="url(#path-4-inside-1)"/>
<rect x="208" y="32" width="6" height="6" fill="black"/>
<rect x="224" y="32" width="6" height="6" fill="black"/>
<rect x="240" y="32" width="6" height="6" fill="black"/>
<rect x="26" y="20" width="5" height="5" fill="#CC6741"/>
<rect x="38" y="44" width="5" height="5" fill="#CC6741"/>
<rect x="26" y="39" width="5" height="5" fill="#CC6741"/>
<rect x="41" y="18" width="4" height="4" fill="#CC6741"/>
</svg>
