<svg width="1170" height="110" viewBox="0 0 1170 110" fill="none" xmlns="http://www.w3.org/2000/svg">
<rect x="7" y="20" width="1140" height="68" fill="#A6A6A6"/>
<rect x="121" y="20" width="1026" height="68" fill="#91B7C2"/>
<rect x="121" y="20" width="1026" height="68" fill="black" fill-opacity="0.2"/>
<rect x="261" y="20" width="886" height="68" fill="#C191A1"/>
<rect x="494" y="20" width="653" height="68" fill="#F69994"/>
<path d="M6.32812 107.078V38.2188H14.0156V44.6875C15.8281 42.1562 17.875 40.2656 20.1562 39.0156C22.4375 37.7344 25.2031 37.0938 28.4531 37.0938C32.7031 37.0938 36.4531 38.1875 39.7031 40.375C42.9531 42.5625 45.4062 45.6562 47.0625 49.6562C48.7188 53.625 49.5469 57.9844 49.5469 62.7344C49.5469 67.8281 48.625 72.4219 46.7812 76.5156C44.9688 80.5781 42.3125 83.7031 38.8125 85.8906C35.3438 88.0469 31.6875 89.125 27.8438 89.125C25.0312 89.125 22.5 88.5312 20.25 87.3438C18.0312 86.1562 16.2031 84.6562 14.7656 82.8438V107.078H6.32812ZM13.9688 63.3906C13.9688 69.7969 15.2656 74.5312 17.8594 77.5938C20.4531 80.6562 23.5938 82.1875 27.2812 82.1875C31.0312 82.1875 34.2344 80.6094 36.8906 77.4531C39.5781 74.2656 40.9219 69.3438 40.9219 62.6875C40.9219 56.3438 39.6094 51.5938 36.9844 48.4375C34.3906 45.2812 31.2812 43.7031 27.6562 43.7031C24.0625 43.7031 20.875 45.3906 18.0938 48.7656C15.3438 52.1094 13.9688 56.9844 13.9688 63.3906ZM124.132 28.9844V19.2812H132.57V28.9844H124.132ZM124.132 88V38.2188H132.57V88H124.132ZM205.327 88V81.1562L237.015 44.7812C233.421 44.9688 230.249 45.0625 227.499 45.0625H207.202V38.2188H247.89V43.7969L220.937 75.3906L215.734 81.1562C219.515 80.875 223.062 80.7344 226.374 80.7344H249.39V88H205.327ZM317.647 88V81.1562L349.335 44.7812C345.741 44.9688 342.569 45.0625 339.819 45.0625H319.522V38.2188H360.21V43.7969L333.257 75.3906L328.054 81.1562C331.835 80.875 335.382 80.7344 338.694 80.7344H361.71V88H317.647ZM466.905 81.8594C463.78 84.5156 460.764 86.3906 457.858 87.4844C454.983 88.5781 451.889 89.125 448.577 89.125C443.108 89.125 438.905 87.7969 435.967 85.1406C433.03 82.4531 431.561 79.0312 431.561 74.875C431.561 72.4375 432.108 70.2188 433.202 68.2188C434.327 66.1875 435.78 64.5625 437.561 63.3438C439.374 62.125 441.405 61.2031 443.655 60.5781C445.311 60.1406 447.811 59.7188 451.155 59.3125C457.967 58.5 462.983 57.5312 466.202 56.4062C466.233 55.25 466.249 54.5156 466.249 54.2031C466.249 50.7656 465.452 48.3438 463.858 46.9375C461.702 45.0312 458.499 44.0781 454.249 44.0781C450.28 44.0781 447.342 44.7812 445.436 46.1875C443.561 47.5625 442.171 50.0156 441.264 53.5469L433.014 52.4219C433.764 48.8906 434.999 46.0469 436.717 43.8906C438.436 41.7031 440.921 40.0312 444.171 38.875C447.421 37.6875 451.186 37.0938 455.467 37.0938C459.717 37.0938 463.171 37.5938 465.827 38.5938C468.483 39.5938 470.436 40.8594 471.686 42.3906C472.936 43.8906 473.811 45.7969 474.311 48.1094C474.592 49.5469 474.733 52.1406 474.733 55.8906V67.1406C474.733 74.9844 474.905 79.9531 475.249 82.0469C475.624 84.1094 476.342 86.0938 477.405 88H468.592C467.717 86.25 467.155 84.2031 466.905 81.8594ZM466.202 63.0156C463.139 64.2656 458.546 65.3281 452.421 66.2031C448.952 66.7031 446.499 67.2656 445.061 67.8906C443.624 68.5156 442.514 69.4375 441.733 70.6562C440.952 71.8438 440.561 73.1719 440.561 74.6406C440.561 76.8906 441.405 78.7656 443.092 80.2656C444.811 81.7656 447.311 82.5156 450.592 82.5156C453.842 82.5156 456.733 81.8125 459.264 80.4062C461.796 78.9688 463.655 77.0156 464.842 74.5469C465.749 72.6406 466.202 69.8281 466.202 66.1094V63.0156ZM643.217 88V38.2188H650.764V45.2031C652.326 42.7656 654.404 40.8125 656.998 39.3438C659.592 37.8438 662.545 37.0938 665.857 37.0938C669.545 37.0938 672.561 37.8594 674.904 39.3906C677.279 40.9219 678.951 43.0625 679.92 45.8125C683.857 40 688.982 37.0938 695.295 37.0938C700.232 37.0938 704.029 38.4688 706.686 41.2188C709.342 43.9375 710.67 48.1406 710.67 53.8281V88H702.279V56.6406C702.279 53.2656 701.998 50.8438 701.436 49.375C700.904 47.875 699.92 46.6719 698.482 45.7656C697.045 44.8594 695.357 44.4062 693.42 44.4062C689.92 44.4062 687.014 45.5781 684.701 47.9219C682.389 50.2344 681.232 53.9531 681.232 59.0781V88H672.795V55.6562C672.795 51.9062 672.107 49.0938 670.732 47.2188C669.357 45.3438 667.107 44.4062 663.982 44.4062C661.607 44.4062 659.404 45.0312 657.373 46.2812C655.373 47.5312 653.92 49.3594 653.014 51.7656C652.107 54.1719 651.654 57.6406 651.654 62.1719V88H643.217ZM819.99 81.8594C816.865 84.5156 813.849 86.3906 810.943 87.4844C808.068 88.5781 804.974 89.125 801.662 89.125C796.193 89.125 791.99 87.7969 789.052 85.1406C786.115 82.4531 784.646 79.0312 784.646 74.875C784.646 72.4375 785.193 70.2188 786.287 68.2188C787.412 66.1875 788.865 64.5625 790.646 63.3438C792.459 62.125 794.49 61.2031 796.74 60.5781C798.396 60.1406 800.896 59.7188 804.24 59.3125C811.052 58.5 816.068 57.5312 819.287 56.4062C819.318 55.25 819.334 54.5156 819.334 54.2031C819.334 50.7656 818.537 48.3438 816.943 46.9375C814.787 45.0312 811.584 44.0781 807.334 44.0781C803.365 44.0781 800.427 44.7812 798.521 46.1875C796.646 47.5625 795.256 50.0156 794.349 53.5469L786.099 52.4219C786.849 48.8906 788.084 46.0469 789.802 43.8906C791.521 41.7031 794.006 40.0312 797.256 38.875C800.506 37.6875 804.271 37.0938 808.552 37.0938C812.802 37.0938 816.256 37.5938 818.912 38.5938C821.568 39.5938 823.521 40.8594 824.771 42.3906C826.021 43.8906 826.896 45.7969 827.396 48.1094C827.677 49.5469 827.818 52.1406 827.818 55.8906V67.1406C827.818 74.9844 827.99 79.9531 828.334 82.0469C828.709 84.1094 829.427 86.0938 830.49 88H821.677C820.802 86.25 820.24 84.2031 819.99 81.8594ZM819.287 63.0156C816.224 64.2656 811.631 65.3281 805.506 66.2031C802.037 66.7031 799.584 67.2656 798.146 67.8906C796.709 68.5156 795.599 69.4375 794.818 70.6562C794.037 71.8438 793.646 73.1719 793.646 74.6406C793.646 76.8906 794.49 78.7656 796.177 80.2656C797.896 81.7656 800.396 82.5156 803.677 82.5156C806.927 82.5156 809.818 81.8125 812.349 80.4062C814.881 78.9688 816.74 77.0156 817.927 74.5469C818.834 72.6406 819.287 69.8281 819.287 66.1094V63.0156ZM905.263 88V38.2188H912.857V45.2969C916.513 39.8281 921.794 37.0938 928.701 37.0938C931.701 37.0938 934.451 37.6406 936.951 38.7344C939.482 39.7969 941.372 41.2031 942.622 42.9531C943.872 44.7031 944.747 46.7812 945.247 49.1875C945.56 50.75 945.716 53.4844 945.716 57.3906V88H937.279V57.7188C937.279 54.2812 936.951 51.7188 936.294 50.0312C935.638 48.3125 934.466 46.9531 932.779 45.9531C931.122 44.9219 929.169 44.4062 926.919 44.4062C923.326 44.4062 920.216 45.5469 917.591 47.8281C914.997 50.1094 913.701 54.4375 913.701 60.8125V88H905.263ZM1023.07 28.9844V19.2812H1031.51V28.9844H1023.07ZM1023.07 88V38.2188H1031.51V88H1023.07ZM1141.2 81.8594C1138.07 84.5156 1135.06 86.3906 1132.15 87.4844C1129.28 88.5781 1126.18 89.125 1122.87 89.125C1117.4 89.125 1113.2 87.7969 1110.26 85.1406C1107.32 82.4531 1105.86 79.0312 1105.86 74.875C1105.86 72.4375 1106.4 70.2188 1107.5 68.2188C1108.62 66.1875 1110.07 64.5625 1111.86 63.3438C1113.67 62.125 1115.7 61.2031 1117.95 60.5781C1119.61 60.1406 1122.11 59.7188 1125.45 59.3125C1132.26 58.5 1137.28 57.5312 1140.5 56.4062C1140.53 55.25 1140.54 54.5156 1140.54 54.2031C1140.54 50.7656 1139.75 48.3438 1138.15 46.9375C1136 45.0312 1132.79 44.0781 1128.54 44.0781C1124.57 44.0781 1121.64 44.7812 1119.73 46.1875C1117.86 47.5625 1116.47 50.0156 1115.56 53.5469L1107.31 52.4219C1108.06 48.8906 1109.29 46.0469 1111.01 43.8906C1112.73 41.7031 1115.22 40.0312 1118.47 38.875C1121.72 37.6875 1125.48 37.0938 1129.76 37.0938C1134.01 37.0938 1137.47 37.5938 1140.12 38.5938C1142.78 39.5938 1144.73 40.8594 1145.98 42.3906C1147.23 43.8906 1148.11 45.7969 1148.61 48.1094C1148.89 49.5469 1149.03 52.1406 1149.03 55.8906V67.1406C1149.03 74.9844 1149.2 79.9531 1149.54 82.0469C1149.92 84.1094 1150.64 86.0938 1151.7 88H1142.89C1142.01 86.25 1141.45 84.2031 1141.2 81.8594ZM1140.5 63.0156C1137.43 64.2656 1132.84 65.3281 1126.72 66.2031C1123.25 66.7031 1120.79 67.2656 1119.36 67.8906C1117.92 68.5156 1116.81 69.4375 1116.03 70.6562C1115.25 71.8438 1114.86 73.1719 1114.86 74.6406C1114.86 76.8906 1115.7 78.7656 1117.39 80.2656C1119.11 81.7656 1121.61 82.5156 1124.89 82.5156C1128.14 82.5156 1131.03 81.8125 1133.56 80.4062C1136.09 78.9688 1137.95 77.0156 1139.14 74.5469C1140.04 72.6406 1140.5 69.8281 1140.5 66.1094V63.0156Z" fill="#202020"/>
</svg>
