<svg width="706" height="110" viewBox="0 0 706 110" fill="none" xmlns="http://www.w3.org/2000/svg">
<rect x="5" y="20" width="491" height="68" fill="#F69994"/>
<path d="M6.32812 88V19.2812H14.7656V43.9375C18.7031 39.375 23.6719 37.0938 29.6719 37.0938C33.3594 37.0938 36.5625 37.8281 39.2812 39.2969C42 40.7344 43.9375 42.7344 45.0938 45.2969C46.2812 47.8594 46.875 51.5781 46.875 56.4531V88H38.4375V56.4531C38.4375 52.2344 37.5156 49.1719 35.6719 47.2656C33.8594 45.3281 31.2812 44.3594 27.9375 44.3594C25.4375 44.3594 23.0781 45.0156 20.8594 46.3281C18.6719 47.6094 17.1094 49.3594 16.1719 51.5781C15.2344 53.7969 14.7656 56.8594 14.7656 60.7656V88H6.32812ZM54.0525 28.9844V19.2812H62.49V28.9844H54.0525ZM54.0525 88V38.2188H62.49V88H54.0525ZM66.3394 67.375V58.8906H92.2612V67.375H66.3394ZM97.845 88V44.7812H90.3919V38.2188H97.845V32.9219C97.845 29.5781 98.1419 27.0938 98.7356 25.4688C99.5481 23.2812 100.97 21.5156 103.001 20.1719C105.064 18.7969 107.939 18.1094 111.626 18.1094C114.001 18.1094 116.626 18.3906 119.501 18.9531L118.236 26.3125C116.486 26 114.829 25.8438 113.267 25.8438C110.704 25.8438 108.892 26.3906 107.829 27.4844C106.767 28.5781 106.236 30.625 106.236 33.625V38.2188H115.939V44.7812H106.236V88H97.845ZM116.835 28.9844V19.2812H125.272V28.9844H116.835ZM116.835 88V38.2188H125.272V88H116.835ZM153.362 107.078V38.2188H161.049V44.6875C162.862 42.1562 164.909 40.2656 167.19 39.0156C169.471 37.7344 172.237 37.0938 175.487 37.0938C179.737 37.0938 183.487 38.1875 186.737 40.375C189.987 42.5625 192.44 45.6562 194.096 49.6562C195.753 53.625 196.581 57.9844 196.581 62.7344C196.581 67.8281 195.659 72.4219 193.815 76.5156C192.003 80.5781 189.346 83.7031 185.846 85.8906C182.378 88.0469 178.721 89.125 174.878 89.125C172.065 89.125 169.534 88.5312 167.284 87.3438C165.065 86.1562 163.237 84.6562 161.799 82.8438V107.078H153.362ZM161.003 63.3906C161.003 69.7969 162.299 74.5312 164.893 77.5938C167.487 80.6562 170.628 82.1875 174.315 82.1875C178.065 82.1875 181.268 80.6094 183.924 77.4531C186.612 74.2656 187.956 69.3438 187.956 62.6875C187.956 56.3438 186.643 51.5938 184.018 48.4375C181.424 45.2812 178.315 43.7031 174.69 43.7031C171.096 43.7031 167.909 45.3906 165.128 48.7656C162.378 52.1094 161.003 56.9844 161.003 63.3906ZM200.946 88V38.2188H208.539V45.7656C210.477 42.2344 212.258 39.9062 213.883 38.7812C215.539 37.6562 217.352 37.0938 219.321 37.0938C222.164 37.0938 225.055 38 227.992 39.8125L225.086 47.6406C223.024 46.4219 220.961 45.8125 218.899 45.8125C217.055 45.8125 215.399 46.375 213.93 47.5C212.461 48.5938 211.414 50.125 210.789 52.0938C209.852 55.0938 209.383 58.375 209.383 61.9375V88H200.946ZM224.107 63.1094C224.107 53.8906 226.67 47.0625 231.795 42.625C236.076 38.9375 241.295 37.0938 247.451 37.0938C254.295 37.0938 259.889 39.3438 264.232 43.8438C268.576 48.3125 270.748 54.5 270.748 62.4062C270.748 68.8125 269.779 73.8594 267.842 77.5469C265.936 81.2031 263.139 84.0469 259.451 86.0781C255.795 88.1094 251.795 89.125 247.451 89.125C240.482 89.125 234.842 86.8906 230.529 82.4219C226.248 77.9531 224.107 71.5156 224.107 63.1094ZM232.779 63.1094C232.779 69.4844 234.17 74.2656 236.951 77.4531C239.732 80.6094 243.232 82.1875 247.451 82.1875C251.639 82.1875 255.123 80.5938 257.904 77.4062C260.686 74.2188 262.076 69.3594 262.076 62.8281C262.076 56.6719 260.67 52.0156 257.857 48.8594C255.076 45.6719 251.607 44.0781 247.451 44.0781C243.232 44.0781 239.732 45.6562 236.951 48.8125C234.17 51.9688 232.779 56.7344 232.779 63.1094ZM293.348 80.4531L294.566 87.9062C292.191 88.4062 290.066 88.6562 288.191 88.6562C285.129 88.6562 282.754 88.1719 281.066 87.2031C279.379 86.2344 278.191 84.9688 277.504 83.4062C276.816 81.8125 276.473 78.4844 276.473 73.4219V44.7812H270.285V38.2188H276.473V25.8906L284.863 20.8281V38.2188H293.348V44.7812H284.863V73.8906C284.863 76.2969 285.004 77.8438 285.285 78.5312C285.598 79.2188 286.082 79.7656 286.738 80.1719C287.426 80.5781 288.394 80.7812 289.644 80.7812C290.582 80.7812 291.816 80.6719 293.348 80.4531ZM292.744 63.1094C292.744 53.8906 295.306 47.0625 300.431 42.625C304.712 38.9375 309.931 37.0938 316.087 37.0938C322.931 37.0938 328.525 39.3438 332.869 43.8438C337.212 48.3125 339.384 54.5 339.384 62.4062C339.384 68.8125 338.416 73.8594 336.478 77.5469C334.572 81.2031 331.775 84.0469 328.087 86.0781C324.431 88.1094 320.431 89.125 316.087 89.125C309.119 89.125 303.478 86.8906 299.166 82.4219C294.884 77.9531 292.744 71.5156 292.744 63.1094ZM301.416 63.1094C301.416 69.4844 302.806 74.2656 305.587 77.4531C308.369 80.6094 311.869 82.1875 316.087 82.1875C320.275 82.1875 323.759 80.5938 326.541 77.4062C329.322 74.2188 330.712 69.3594 330.712 62.8281C330.712 56.6719 329.306 52.0156 326.494 48.8594C323.712 45.6719 320.244 44.0781 316.087 44.0781C311.869 44.0781 308.369 45.6562 305.587 48.8125C302.806 51.9688 301.416 56.7344 301.416 63.1094ZM361.984 80.4531L363.202 87.9062C360.827 88.4062 358.702 88.6562 356.827 88.6562C353.765 88.6562 351.39 88.1719 349.702 87.2031C348.015 86.2344 346.827 84.9688 346.14 83.4062C345.452 81.8125 345.109 78.4844 345.109 73.4219V44.7812H338.921V38.2188H345.109V25.8906L353.499 20.8281V38.2188H361.984V44.7812H353.499V73.8906C353.499 76.2969 353.64 77.8438 353.921 78.5312C354.234 79.2188 354.718 79.7656 355.374 80.1719C356.062 80.5781 357.031 80.7812 358.281 80.7812C359.218 80.7812 360.452 80.6719 361.984 80.4531ZM364.146 107.172L363.208 99.25C365.052 99.75 366.661 100 368.036 100C369.911 100 371.411 99.6875 372.536 99.0625C373.661 98.4375 374.583 97.5625 375.302 96.4375C375.833 95.5938 376.693 93.5 377.88 90.1562C378.036 89.6875 378.286 89 378.63 88.0938L359.739 38.2188H368.833L379.193 67.0469C380.536 70.7031 381.739 74.5469 382.802 78.5781C383.771 74.7031 384.927 70.9219 386.271 67.2344L396.911 38.2188H405.349L386.411 88.8438C384.38 94.3125 382.802 98.0781 381.677 100.141C380.177 102.922 378.458 104.953 376.521 106.234C374.583 107.547 372.271 108.203 369.583 108.203C367.958 108.203 366.146 107.859 364.146 107.172ZM406.761 107.078V38.2188H414.448V44.6875C416.261 42.1562 418.307 40.2656 420.589 39.0156C422.87 37.7344 425.636 37.0938 428.886 37.0938C433.136 37.0938 436.886 38.1875 440.136 40.375C443.386 42.5625 445.839 45.6562 447.495 49.6562C449.151 53.625 449.979 57.9844 449.979 62.7344C449.979 67.8281 449.057 72.4219 447.214 76.5156C445.401 80.5781 442.745 83.7031 439.245 85.8906C435.776 88.0469 432.12 89.125 428.276 89.125C425.464 89.125 422.932 88.5312 420.682 87.3438C418.464 86.1562 416.636 84.6562 415.198 82.8438V107.078H406.761ZM414.401 63.3906C414.401 69.7969 415.698 74.5312 418.292 77.5938C420.886 80.6562 424.026 82.1875 427.714 82.1875C431.464 82.1875 434.667 80.6094 437.323 77.4531C440.011 74.2656 441.354 69.3438 441.354 62.6875C441.354 56.3438 440.042 51.5938 437.417 48.4375C434.823 45.2812 431.714 43.7031 428.089 43.7031C424.495 43.7031 421.307 45.3906 418.526 48.7656C415.776 52.1094 414.401 56.9844 414.401 63.3906ZM488.516 71.9688L497.235 73.0469C495.86 78.1406 493.313 82.0938 489.594 84.9062C485.876 87.7188 481.126 89.125 475.344 89.125C468.063 89.125 462.282 86.8906 458.001 82.4219C453.751 77.9219 451.626 71.625 451.626 63.5312C451.626 55.1562 453.782 48.6562 458.094 44.0312C462.407 39.4062 468.001 37.0938 474.876 37.0938C481.532 37.0938 486.969 39.3594 491.188 43.8906C495.407 48.4219 497.516 54.7969 497.516 63.0156C497.516 63.5156 497.501 64.2656 497.469 65.2656H460.344C460.657 70.7344 462.204 74.9219 464.985 77.8281C467.766 80.7344 471.235 82.1875 475.391 82.1875C478.485 82.1875 481.126 81.375 483.313 79.75C485.501 78.125 487.235 75.5312 488.516 71.9688ZM460.813 58.3281H488.61C488.235 54.1406 487.172 51 485.422 48.9062C482.735 45.6562 479.251 44.0312 474.969 44.0312C471.094 44.0312 467.829 45.3281 465.172 47.9219C462.547 50.5156 461.094 53.9844 460.813 58.3281Z" fill="#202020"/>
</svg>
