<svg width="1440" height="117" viewBox="0 0 1440 117" fill="none" xmlns="http://www.w3.org/2000/svg">
<path d="M51.4662 61.7985L53.9662 61.813L53.9952 56.8131L51.4953 56.7986L51.4662 61.7985ZM154.352 57.3957L151.852 57.3812L151.823 62.3812L154.323 62.3957L154.352 57.3957ZM257.18 62.9928L259.68 63.0073L259.709 58.0074L257.209 57.9929L257.18 62.9928ZM360.066 58.59L357.566 58.5755L357.537 63.5754L360.037 63.5899L360.066 58.59ZM462.894 64.1871L465.394 64.2016L465.423 59.2017L462.923 59.1872L462.894 64.1871ZM565.78 59.7843L563.28 59.7698L563.251 64.7697L565.751 64.7842L565.78 59.7843ZM668.608 65.3814L671.108 65.3959L671.137 60.396L668.637 60.3814L668.608 65.3814ZM771.494 60.9786L768.994 60.9641L768.965 65.964L771.465 65.9785L771.494 60.9786ZM874.322 66.5756L876.822 66.5901L876.851 61.5902L874.351 61.5757L874.322 66.5756ZM977.208 62.1729L974.708 62.1583L974.679 67.1583L977.179 67.1728L977.208 62.1729ZM1080.04 67.7699L1082.54 67.7844L1082.57 62.7845L1080.07 62.77L1080.04 67.7699ZM1182.92 63.3671L1180.42 63.3526L1180.39 68.3525L1182.89 68.367L1182.92 63.3671ZM1285.75 68.9642L1288.25 68.9787L1288.28 63.9788L1285.78 63.9643L1285.75 68.9642ZM1388.64 64.5614L1386.14 64.5469L1386.11 69.5468L1388.61 69.5613L1388.64 64.5614ZM0.0377326 61.5L51.4662 61.7985L51.4953 56.7986L0.0667596 56.5L0.0377326 61.5ZM154.323 62.3957L257.18 62.9928L257.209 57.9929L154.352 57.3957L154.323 62.3957ZM360.037 63.5899L462.894 64.1871L462.923 59.1872L360.066 58.59L360.037 63.5899ZM565.751 64.7842L668.608 65.3814L668.637 60.3814L565.78 59.7843L565.751 64.7842ZM771.465 65.9785L874.322 66.5756L874.351 61.5757L771.494 60.9786L771.465 65.9785ZM977.179 67.1728L1080.04 67.7699L1080.07 62.77L977.208 62.1729L977.179 67.1728ZM1182.89 68.367L1285.75 68.9642L1285.78 63.9643L1182.92 63.3671L1182.89 68.367ZM1388.61 69.5613L1440.04 69.8599L1440.06 64.86L1388.64 64.5614L1388.61 69.5613ZM51.4517 64.2985L56.4516 64.3275L56.5097 54.3277L51.5098 54.2987L51.4517 64.2985ZM154.367 54.8958L149.367 54.8668L149.309 64.8666L154.309 64.8956L154.367 54.8958ZM257.166 65.4928L262.166 65.5218L262.224 55.522L257.224 55.4929L257.166 65.4928ZM360.081 56.0901L355.081 56.061L355.023 66.0609L360.023 66.0899L360.081 56.0901ZM462.88 66.687L467.88 66.7161L467.938 56.7162L462.938 56.6872L462.88 66.687ZM565.795 57.2843L560.795 57.2553L560.737 67.2551L565.737 67.2842L565.795 57.2843ZM668.594 67.8813L673.594 67.9103L673.652 57.9105L668.652 57.8815L668.594 67.8813ZM771.509 58.4786L766.509 58.4496L766.451 68.4494L771.451 68.4784L771.509 58.4786ZM874.308 69.0756L879.308 69.1046L879.366 59.1048L874.366 59.0758L874.308 69.0756ZM977.223 59.6729L972.223 59.6439L972.165 69.6437L977.165 69.6727L977.223 59.6729ZM1080.02 70.2699L1085.02 70.2989L1085.08 60.2991L1080.08 60.27L1080.02 70.2699ZM1182.94 60.8672L1177.94 60.8381L1177.88 70.838L1182.88 70.867L1182.94 60.8672ZM1285.74 71.4641L1290.74 71.4932L1290.79 61.4933L1285.79 61.4643L1285.74 71.4641ZM1388.65 62.0614L1383.65 62.0324L1383.59 72.0322L1388.59 72.0613L1388.65 62.0614ZM0.023219 63.9999L51.4517 64.2985L51.5098 54.2987L0.0812732 54.0001L0.023219 63.9999ZM154.309 64.8956L257.166 65.4928L257.224 55.4929L154.367 54.8958L154.309 64.8956ZM360.023 66.0899L462.88 66.687L462.938 56.6872L360.081 56.0901L360.023 66.0899ZM565.737 67.2842L668.594 67.8813L668.652 57.8815L565.795 57.2843L565.737 67.2842ZM771.451 68.4784L874.308 69.0756L874.366 59.0758L771.509 58.4786L771.451 68.4784ZM977.165 69.6727L1080.02 70.2699L1080.08 60.27L977.223 59.6729L977.165 69.6727ZM1182.88 70.867L1285.74 71.4641L1285.79 61.4643L1182.94 60.8672L1182.88 70.867ZM1388.59 72.0613L1440.02 72.3598L1440.08 62.36L1388.65 62.0614L1388.59 72.0613Z" fill="#9492BA"/>
<path d="M85.25 43.875C93.3272 43.875 99.875 37.3272 99.875 29.25C99.875 21.1728 93.3272 14.625 85.25 14.625C77.1728 14.625 70.625 21.1728 70.625 29.25C70.625 37.3272 77.1728 43.875 85.25 43.875Z" stroke="#F56C63" stroke-width="4" stroke-linecap="round" stroke-linejoin="round"/>
<path d="M85.25 102.375C93.3272 102.375 99.875 95.8272 99.875 87.75C99.875 79.6728 93.3272 73.125 85.25 73.125C77.1728 73.125 70.625 79.6728 70.625 87.75C70.625 95.8272 77.1728 102.375 85.25 102.375Z" stroke="#F56C63" stroke-width="4" stroke-linecap="round" stroke-linejoin="round"/>
<path d="M153.5 19.5L95.585 77.415" stroke="#F56C63" stroke-width="4" stroke-linecap="round" stroke-linejoin="round"/>
<path d="M126.541 70.5898L153.5 97.4998" stroke="#F56C63" stroke-width="4" stroke-linecap="round" stroke-linejoin="round"/>
<path d="M95.585 39.5854L114.5 58.5004" stroke="#F56C63" stroke-width="4" stroke-linecap="round" stroke-linejoin="round"/>
</svg>
