<svg width="1440" height="117" viewBox="0 0 1440 117" fill="none" xmlns="http://www.w3.org/2000/svg">
<path d="M51.4604 62.7985L54.9604 62.8188L55.001 55.8189L51.5011 55.7986L51.4604 62.7985ZM154.358 56.3958L150.858 56.3754L150.817 63.3753L154.317 63.3956L154.358 56.3958ZM257.174 63.9928L260.674 64.0131L260.715 57.0132L257.215 56.9929L257.174 63.9928ZM360.072 57.59L356.572 57.5697L356.531 64.5696L360.031 64.5899L360.072 57.59ZM462.888 65.1871L466.388 65.2074L466.429 58.2075L462.929 58.1872L462.888 65.1871ZM565.786 58.7843L562.286 58.764L562.245 65.7639L565.745 65.7842L565.786 58.7843ZM668.602 66.3813L672.102 66.4017L672.143 59.4018L668.643 59.3815L668.602 66.3813ZM771.5 59.9786L768 59.9583L767.959 66.9582L771.459 66.9785L771.5 59.9786ZM874.316 67.5756L877.816 67.5959L877.857 60.596L874.357 60.5757L874.316 67.5756ZM977.214 61.1729L973.714 61.1525L973.673 68.1524L977.173 68.1727L977.214 61.1729ZM1080.03 68.7699L1083.53 68.7902L1083.57 61.7903L1080.07 61.77L1080.03 68.7699ZM1182.93 62.3671L1179.43 62.3468L1179.39 69.3467L1182.89 69.367L1182.93 62.3671ZM1285.74 69.9642L1289.24 69.9845L1289.28 62.9846L1285.78 62.9643L1285.74 69.9642ZM1388.64 63.5614L1385.14 63.5411L1385.1 70.541L1388.6 70.5613L1388.64 63.5614ZM0.0319271 62.4999L51.4604 62.7985L51.5011 55.7986L0.0725651 55.5001L0.0319271 62.4999ZM154.317 63.3956L257.174 63.9928L257.215 56.9929L154.358 56.3958L154.317 63.3956ZM360.031 64.5899L462.888 65.1871L462.929 58.1872L360.072 57.59L360.031 64.5899ZM565.745 65.7842L668.602 66.3813L668.643 59.3815L565.786 58.7843L565.745 65.7842ZM771.459 66.9785L874.316 67.5756L874.357 60.5757L771.5 59.9786L771.459 66.9785ZM977.173 68.1727L1080.03 68.7699L1080.07 61.77L977.214 61.1729L977.173 68.1727ZM1182.89 69.367L1285.74 69.9642L1285.78 62.9643L1182.93 62.3671L1182.89 69.367ZM1388.6 70.5613L1440.03 70.8599L1440.07 63.86L1388.64 63.5614L1388.6 70.5613ZM51.4401 66.2985L58.44 66.3391L58.5213 52.3393L51.5214 52.2987L51.4401 66.2985ZM154.378 52.8958L147.378 52.8552L147.297 66.855L154.297 66.8956L154.378 52.8958ZM257.154 67.4927L264.154 67.5334L264.235 53.5336L257.235 53.493L257.154 67.4927ZM360.092 54.0901L353.092 54.0495L353.011 68.0492L360.011 68.0899L360.092 54.0901ZM462.868 68.687L469.868 68.7276L469.949 54.7279L462.949 54.6872L462.868 68.687ZM565.806 55.2844L558.806 55.2437L558.725 69.2435L565.725 69.2841L565.806 55.2844ZM668.582 69.8813L675.582 69.9219L675.663 55.9222L668.663 55.8815L668.582 69.8813ZM771.52 56.4787L764.52 56.438L764.439 70.4378L771.439 70.4784L771.52 56.4787ZM874.296 71.0756L881.296 71.1162L881.377 57.1164L874.377 57.0758L874.296 71.0756ZM977.234 57.6729L970.234 57.6323L970.153 71.6321L977.153 71.6727L977.234 57.6729ZM1080.01 72.2698L1087.01 72.3105L1087.09 58.3107L1080.09 58.2701L1080.01 72.2698ZM1182.95 58.8672L1175.95 58.8266L1175.87 72.8263L1182.87 72.867L1182.95 58.8672ZM1285.72 73.4641L1292.72 73.5047L1292.81 59.505L1285.81 59.4643L1285.72 73.4641ZM1388.66 60.0615L1381.66 60.0208L1381.58 74.0206L1388.58 74.0612L1388.66 60.0615ZM0.0116082 65.9999L51.4401 66.2985L51.5214 52.2987L0.092884 52.0001L0.0116082 65.9999ZM154.297 66.8956L257.154 67.4927L257.235 53.493L154.378 52.8958L154.297 66.8956ZM360.011 68.0899L462.868 68.687L462.949 54.6872L360.092 54.0901L360.011 68.0899ZM565.725 69.2841L668.582 69.8813L668.663 55.8815L565.806 55.2844L565.725 69.2841ZM771.439 70.4784L874.296 71.0756L874.377 57.0758L771.52 56.4787L771.439 70.4784ZM977.153 71.6727L1080.01 72.2698L1080.09 58.2701L977.234 57.6729L977.153 71.6727ZM1182.87 72.867L1285.72 73.4641L1285.81 59.4643L1182.95 58.8672L1182.87 72.867ZM1388.58 74.0612L1440.01 74.3598L1440.09 60.36L1388.66 60.0615L1388.58 74.0612Z" fill="#9492BA"/>
<path d="M85.25 43.875C93.3272 43.875 99.875 37.3272 99.875 29.25C99.875 21.1728 93.3272 14.625 85.25 14.625C77.1728 14.625 70.625 21.1728 70.625 29.25C70.625 37.3272 77.1728 43.875 85.25 43.875Z" stroke="#F56C63" stroke-width="4" stroke-linecap="round" stroke-linejoin="round"/>
<path d="M85.25 102.375C93.3272 102.375 99.875 95.8272 99.875 87.75C99.875 79.6728 93.3272 73.125 85.25 73.125C77.1728 73.125 70.625 79.6728 70.625 87.75C70.625 95.8272 77.1728 102.375 85.25 102.375Z" stroke="#F56C63" stroke-width="4" stroke-linecap="round" stroke-linejoin="round"/>
<path d="M153.5 19.5L95.585 77.415" stroke="#F56C63" stroke-width="4" stroke-linecap="round" stroke-linejoin="round"/>
<path d="M126.541 70.5898L153.5 97.4998" stroke="#F56C63" stroke-width="4" stroke-linecap="round" stroke-linejoin="round"/>
<path d="M95.585 39.5854L114.5 58.5004" stroke="#F56C63" stroke-width="4" stroke-linecap="round" stroke-linejoin="round"/>
</svg>
