<svg width="433" height="110" viewBox="0 0 433 110" fill="none" xmlns="http://www.w3.org/2000/svg">
<rect x="5" y="20" width="387" height="68" fill="#91B7C2"/>
<rect x="5" y="20" width="387" height="68" fill="black" fill-opacity="0.2"/>
<path d="M2.95312 73.1406L11.2969 71.8281C11.7656 75.1719 13.0625 77.7344 15.1875 79.5156C17.3438 81.2969 20.3438 82.1875 24.1875 82.1875C28.0625 82.1875 30.9375 81.4062 32.8125 79.8438C34.6875 78.25 35.625 76.3906 35.625 74.2656C35.625 72.3594 34.7969 70.8594 33.1406 69.7656C31.9844 69.0156 29.1094 68.0625 24.5156 66.9062C18.3281 65.3438 14.0312 64 11.625 62.875C9.25 61.7188 7.4375 60.1406 6.1875 58.1406C4.96875 56.1094 4.35938 53.875 4.35938 51.4375C4.35938 49.2188 4.85938 47.1719 5.85938 45.2969C6.89062 43.3906 8.28125 41.8125 10.0312 40.5625C11.3438 39.5938 13.125 38.7812 15.375 38.125C17.6562 37.4375 20.0938 37.0938 22.6875 37.0938C26.5938 37.0938 30.0156 37.6562 32.9531 38.7812C35.9219 39.9062 38.1094 41.4375 39.5156 43.375C40.9219 45.2812 41.8906 47.8438 42.4219 51.0625L34.1719 52.1875C33.7969 49.625 32.7031 47.625 30.8906 46.1875C29.1094 44.75 26.5781 44.0312 23.2969 44.0312C19.4219 44.0312 16.6562 44.6719 15 45.9531C13.3438 47.2344 12.5156 48.7344 12.5156 50.4531C12.5156 51.5469 12.8594 52.5312 13.5469 53.4062C14.2344 54.3125 15.3125 55.0625 16.7812 55.6562C17.625 55.9688 20.1094 56.6875 24.2344 57.8125C30.2031 59.4062 34.3594 60.7188 36.7031 61.75C39.0781 62.75 40.9375 64.2188 42.2812 66.1562C43.625 68.0938 44.2969 70.5 44.2969 73.375C44.2969 76.1875 43.4688 78.8438 41.8125 81.3438C40.1875 83.8125 37.8281 85.7344 34.7344 87.1094C31.6406 88.4531 28.1406 89.125 24.2344 89.125C17.7656 89.125 12.8281 87.7812 9.42188 85.0938C6.04688 82.4062 3.89062 78.4219 2.95312 73.1406ZM66.99 80.4531L68.2087 87.9062C65.8337 88.4062 63.7087 88.6562 61.8337 88.6562C58.7712 88.6562 56.3962 88.1719 54.7087 87.2031C53.0212 86.2344 51.8337 84.9688 51.1462 83.4062C50.4587 81.8125 50.115 78.4844 50.115 73.4219V44.7812H43.9275V38.2188H50.115V25.8906L58.5056 20.8281V38.2188H66.99V44.7812H58.5056V73.8906C58.5056 76.2969 58.6462 77.8438 58.9275 78.5312C59.24 79.2188 59.7244 79.7656 60.3806 80.1719C61.0681 80.5781 62.0369 80.7812 63.2869 80.7812C64.2244 80.7812 65.4587 80.6719 66.99 80.4531ZM66.3862 63.1094C66.3862 53.8906 68.9487 47.0625 74.0737 42.625C78.355 38.9375 83.5737 37.0938 89.73 37.0938C96.5737 37.0938 102.167 39.3438 106.511 43.8438C110.855 48.3125 113.027 54.5 113.027 62.4062C113.027 68.8125 112.058 73.8594 110.121 77.5469C108.214 81.2031 105.417 84.0469 101.73 86.0781C98.0737 88.1094 94.0737 89.125 89.73 89.125C82.7612 89.125 77.1206 86.8906 72.8081 82.4219C68.5269 77.9531 66.3862 71.5156 66.3862 63.1094ZM75.0581 63.1094C75.0581 69.4844 76.4487 74.2656 79.23 77.4531C82.0112 80.6094 85.5112 82.1875 89.73 82.1875C93.9175 82.1875 97.4019 80.5938 100.183 77.4062C102.964 74.2188 104.355 69.3594 104.355 62.8281C104.355 56.6719 102.949 52.0156 100.136 48.8594C97.355 45.6719 93.8862 44.0781 89.73 44.0781C85.5112 44.0781 82.0112 45.6562 79.23 48.8125C76.4487 51.9688 75.0581 56.7344 75.0581 63.1094ZM117.111 88V38.2188H124.704V45.7656C126.642 42.2344 128.423 39.9062 130.048 38.7812C131.704 37.6562 133.517 37.0938 135.486 37.0938C138.329 37.0938 141.22 38 144.158 39.8125L141.251 47.6406C139.189 46.4219 137.126 45.8125 135.064 45.8125C133.22 45.8125 131.564 46.375 130.095 47.5C128.626 48.5938 127.579 50.125 126.954 52.0938C126.017 55.0938 125.548 58.375 125.548 61.9375V88H117.111ZM143.038 107.172L142.101 99.25C143.944 99.75 145.554 100 146.929 100C148.804 100 150.304 99.6875 151.429 99.0625C152.554 98.4375 153.476 97.5625 154.194 96.4375C154.726 95.5938 155.585 93.5 156.772 90.1562C156.929 89.6875 157.179 89 157.522 88.0938L138.632 38.2188H147.726L158.085 67.0469C159.429 70.7031 160.632 74.5469 161.694 78.5781C162.663 74.7031 163.819 70.9219 165.163 67.2344L175.804 38.2188H184.241L165.304 88.8438C163.272 94.3125 161.694 98.0781 160.569 100.141C159.069 102.922 157.351 104.953 155.413 106.234C153.476 107.547 151.163 108.203 148.476 108.203C146.851 108.203 145.038 107.859 143.038 107.172ZM193.434 88H185.606V19.2812H194.044V43.7969C197.606 39.3281 202.153 37.0938 207.684 37.0938C210.747 37.0938 213.637 37.7188 216.356 38.9688C219.106 40.1875 221.356 41.9219 223.106 44.1719C224.887 46.3906 226.278 49.0781 227.278 52.2344C228.278 55.3906 228.778 58.7656 228.778 62.3594C228.778 70.8906 226.669 77.4844 222.45 82.1406C218.231 86.7969 213.169 89.125 207.262 89.125C201.387 89.125 196.778 86.6719 193.434 81.7656V88ZM193.341 62.7344C193.341 68.7031 194.153 73.0156 195.778 75.6719C198.434 80.0156 202.028 82.1875 206.559 82.1875C210.247 82.1875 213.434 80.5938 216.122 77.4062C218.809 74.1875 220.153 69.4062 220.153 63.0625C220.153 56.5625 218.856 51.7656 216.262 48.6719C213.7 45.5781 210.591 44.0312 206.934 44.0312C203.247 44.0312 200.059 45.6406 197.372 48.8594C194.684 52.0469 193.341 56.6719 193.341 62.7344ZM230.19 63.1094C230.19 53.8906 232.753 47.0625 237.878 42.625C242.159 38.9375 247.378 37.0938 253.534 37.0938C260.378 37.0938 265.971 39.3438 270.315 43.8438C274.659 48.3125 276.831 54.5 276.831 62.4062C276.831 68.8125 275.862 73.8594 273.924 77.5469C272.018 81.2031 269.221 84.0469 265.534 86.0781C261.878 88.1094 257.878 89.125 253.534 89.125C246.565 89.125 240.924 86.8906 236.612 82.4219C232.331 77.9531 230.19 71.5156 230.19 63.1094ZM238.862 63.1094C238.862 69.4844 240.253 74.2656 243.034 77.4531C245.815 80.6094 249.315 82.1875 253.534 82.1875C257.721 82.1875 261.206 80.5938 263.987 77.4062C266.768 74.2188 268.159 69.3594 268.159 62.8281C268.159 56.6719 266.753 52.0156 263.94 48.8594C261.159 45.6719 257.69 44.0781 253.534 44.0781C249.315 44.0781 245.815 45.6562 243.034 48.8125C240.253 51.9688 238.862 56.7344 238.862 63.1094ZM313.492 81.8594C310.367 84.5156 307.352 86.3906 304.446 87.4844C301.571 88.5781 298.477 89.125 295.164 89.125C289.696 89.125 285.492 87.7969 282.555 85.1406C279.617 82.4531 278.149 79.0312 278.149 74.875C278.149 72.4375 278.696 70.2188 279.789 68.2188C280.914 66.1875 282.367 64.5625 284.149 63.3438C285.961 62.125 287.992 61.2031 290.242 60.5781C291.899 60.1406 294.399 59.7188 297.742 59.3125C304.555 58.5 309.571 57.5312 312.789 56.4062C312.821 55.25 312.836 54.5156 312.836 54.2031C312.836 50.7656 312.039 48.3438 310.446 46.9375C308.289 45.0312 305.086 44.0781 300.836 44.0781C296.867 44.0781 293.93 44.7812 292.024 46.1875C290.149 47.5625 288.758 50.0156 287.852 53.5469L279.602 52.4219C280.352 48.8906 281.586 46.0469 283.305 43.8906C285.024 41.7031 287.508 40.0312 290.758 38.875C294.008 37.6875 297.774 37.0938 302.055 37.0938C306.305 37.0938 309.758 37.5938 312.414 38.5938C315.071 39.5938 317.024 40.8594 318.274 42.3906C319.524 43.8906 320.399 45.7969 320.899 48.1094C321.18 49.5469 321.321 52.1406 321.321 55.8906V67.1406C321.321 74.9844 321.492 79.9531 321.836 82.0469C322.211 84.1094 322.93 86.0938 323.992 88H315.18C314.305 86.25 313.742 84.2031 313.492 81.8594ZM312.789 63.0156C309.727 64.2656 305.133 65.3281 299.008 66.2031C295.539 66.7031 293.086 67.2656 291.649 67.8906C290.211 68.5156 289.102 69.4375 288.321 70.6562C287.539 71.8438 287.149 73.1719 287.149 74.6406C287.149 76.8906 287.992 78.7656 289.68 80.2656C291.399 81.7656 293.899 82.5156 297.18 82.5156C300.43 82.5156 303.321 81.8125 305.852 80.4062C308.383 78.9688 310.242 77.0156 311.43 74.5469C312.336 72.6406 312.789 69.8281 312.789 66.1094V63.0156ZM328.592 88V38.2188H336.186V45.7656C338.123 42.2344 339.904 39.9062 341.529 38.7812C343.186 37.6562 344.998 37.0938 346.967 37.0938C349.811 37.0938 352.701 38 355.639 39.8125L352.732 47.6406C350.67 46.4219 348.607 45.8125 346.545 45.8125C344.701 45.8125 343.045 46.375 341.576 47.5C340.107 48.5938 339.061 50.125 338.436 52.0938C337.498 55.0938 337.029 58.375 337.029 61.9375V88H328.592ZM387.191 88V81.7188C384.035 86.6562 379.394 89.125 373.269 89.125C369.301 89.125 365.644 88.0312 362.301 85.8438C358.988 83.6562 356.41 80.6094 354.566 76.7031C352.754 72.7656 351.848 68.25 351.848 63.1562C351.848 58.1875 352.676 53.6875 354.332 49.6562C355.988 45.5938 358.473 42.4844 361.785 40.3281C365.098 38.1719 368.801 37.0938 372.894 37.0938C375.894 37.0938 378.566 37.7344 380.91 39.0156C383.254 40.2656 385.16 41.9062 386.629 43.9375V19.2812H395.019V88H387.191ZM360.519 63.1562C360.519 69.5312 361.863 74.2969 364.551 77.4531C367.238 80.6094 370.41 82.1875 374.066 82.1875C377.754 82.1875 380.879 80.6875 383.441 77.6875C386.035 74.6562 387.332 70.0469 387.332 63.8594C387.332 57.0469 386.019 52.0469 383.394 48.8594C380.769 45.6719 377.535 44.0781 373.691 44.0781C369.941 44.0781 366.801 45.6094 364.269 48.6719C361.769 51.7344 360.519 56.5625 360.519 63.1562Z" fill="#202020"/>
</svg>
