<svg width="133" height="133" viewBox="0 0 133 133" fill="none" xmlns="http://www.w3.org/2000/svg">
<rect x="123.069" y="48.1152" width="106" height="54" rx="27" transform="rotate(135 123.069 48.1152)" fill="#F69994" stroke="#202020" stroke-width="13"/>
<path d="M62.4169 77.7743L63.5667 78.6009C63.3181 78.9821 63.0695 79.297 62.8209 79.5456C62.4149 79.9516 62.0358 80.2023 61.6836 80.2975C61.3314 80.3928 61.0062 80.3825 60.7079 80.2665C60.4054 80.1463 59.9186 79.7506 59.2474 79.0794L55.4501 75.2822L54.6298 76.1026L53.7597 75.2325L54.5801 74.4121L52.9456 72.7776L53.3868 70.994L55.6925 73.2997L56.8174 72.1748L57.6875 73.0449L56.5626 74.1697L60.422 78.0291C60.741 78.3482 60.9648 78.5346 61.0932 78.5885C61.2258 78.6382 61.3625 78.6465 61.5034 78.6133C61.6484 78.576 61.8037 78.4745 61.9695 78.3088C62.0938 78.1845 62.2429 78.0064 62.4169 77.7743ZM60.8011 74.7912C59.5788 73.569 59.0133 72.324 59.1045 71.0561C59.1832 69.9996 59.6306 69.0633 60.4469 68.247C61.3542 67.3397 62.3942 66.8964 63.5667 66.9171C64.7351 66.9336 65.8434 67.466 66.8916 68.5143C67.741 69.3636 68.2816 70.1612 68.5137 70.907C68.7457 71.6445 68.7519 72.3923 68.5323 73.1505C68.3169 73.9046 67.9212 74.5696 67.3453 75.1455C66.4214 76.0694 65.3773 76.521 64.213 76.5003C63.0529 76.4754 61.9156 75.9058 60.8011 74.7912ZM61.9508 73.6415C62.796 74.4867 63.6143 74.9362 64.4057 74.9901C65.1929 75.0398 65.8662 74.785 66.4255 74.2257C66.9807 73.6705 67.2313 72.9972 67.1775 72.2059C67.1236 71.4145 66.6637 70.5859 65.7978 69.7199C64.9816 68.9037 64.1778 68.4728 63.3865 68.4273C62.5951 68.3734 61.9239 68.622 61.3729 69.173C60.8135 69.7324 60.5587 70.4056 60.6084 71.1929C60.6582 71.9801 61.1056 72.7963 61.9508 73.6415ZM74.1319 73.1194L65.0023 63.9899L66.0215 62.9707L66.8792 63.8283C66.7839 63.2524 66.8046 62.7304 66.9413 62.2622C67.0739 61.7899 67.3556 61.3382 67.7865 60.9074C68.35 60.3439 68.9922 59.9917 69.7131 59.8508C70.434 59.71 71.1695 59.7949 71.9194 60.1056C72.6652 60.4122 73.3529 60.8804 73.9827 61.5102C74.658 62.1855 75.1449 62.9168 75.4432 63.704C75.7415 64.4829 75.8036 65.2494 75.6296 66.0035C75.4556 66.7493 75.1138 67.377 74.6042 67.8866C74.2313 68.2595 73.817 68.5163 73.3612 68.6572C72.9096 68.7939 72.4684 68.8374 72.0375 68.7877L75.2505 72.0008L74.1319 73.1194ZM69.3527 66.3142C70.202 67.1636 71.0017 67.6193 71.7516 67.6815C72.5015 67.7436 73.1209 67.5303 73.6098 67.0414C74.107 66.5442 74.3224 65.9103 74.2561 65.1396C74.1899 64.3607 73.7155 63.53 72.833 62.6475C71.9919 61.8064 71.1881 61.3507 70.4216 61.2802C69.6593 61.2057 69.0378 61.4087 68.5572 61.8893C68.0807 62.3658 67.8818 63.0121 67.9606 63.8283C68.0393 64.6362 68.5033 65.4649 69.3527 66.3142ZM79.0043 63.1882L77.7302 61.9142L79.0043 60.6401L80.2783 61.9142L79.0043 63.1882Z" fill="black"/>
</svg>
