<svg width="433" height="110" viewBox="0 0 433 110" fill="none" xmlns="http://www.w3.org/2000/svg">
<rect x="5" y="20" width="366" height="68" fill="#C191A1"/>
<path d="M15.5156 88L0.28125 38.2188H9L16.9219 66.9531L19.875 77.6406C20 77.1094 20.8594 73.6875 22.4531 67.375L30.375 38.2188H39.0469L46.5 67.0938L48.9844 76.6094L51.8438 67L60.375 38.2188H68.5781L53.0156 88H44.25L36.3281 58.1875L34.4062 49.7031L24.3281 88H15.5156ZM69.99 28.9844V19.2812H78.4275V28.9844H69.99ZM69.99 88V38.2188H78.4275V88H69.99ZM85.4644 88V38.2188H93.0581V45.7656C94.9956 42.2344 96.7769 39.9062 98.4019 38.7812C100.058 37.6562 101.871 37.0938 103.839 37.0938C106.683 37.0938 109.574 38 112.511 39.8125L109.605 47.6406C107.542 46.4219 105.48 45.8125 103.417 45.8125C101.574 45.8125 99.9175 46.375 98.4487 47.5C96.98 48.5938 95.9331 50.125 95.3081 52.0938C94.3706 55.0938 93.9019 58.375 93.9019 61.9375V88H85.4644ZM145.845 71.9688L154.564 73.0469C153.189 78.1406 150.642 82.0938 146.923 84.9062C143.204 87.7188 138.454 89.125 132.673 89.125C125.392 89.125 119.611 86.8906 115.329 82.4219C111.079 77.9219 108.954 71.625 108.954 63.5312C108.954 55.1562 111.111 48.6562 115.423 44.0312C119.736 39.4062 125.329 37.0938 132.204 37.0938C138.861 37.0938 144.298 39.3594 148.517 43.8906C152.736 48.4219 154.845 54.7969 154.845 63.0156C154.845 63.5156 154.829 64.2656 154.798 65.2656H117.673C117.986 70.7344 119.533 74.9219 122.314 77.8281C125.095 80.7344 128.564 82.1875 132.72 82.1875C135.814 82.1875 138.454 81.375 140.642 79.75C142.829 78.125 144.564 75.5312 145.845 71.9688ZM118.142 58.3281H145.939C145.564 54.1406 144.501 51 142.751 48.9062C140.064 45.6562 136.579 44.0312 132.298 44.0312C128.423 44.0312 125.158 45.3281 122.501 47.9219C119.876 50.5156 118.423 53.9844 118.142 58.3281ZM161.46 88V44.7812H154.007V38.2188H161.46V32.9219C161.46 29.5781 161.757 27.0938 162.351 25.4688C163.163 23.2812 164.585 21.5156 166.616 20.1719C168.679 18.7969 171.554 18.1094 175.241 18.1094C177.616 18.1094 180.241 18.3906 183.116 18.9531L181.851 26.3125C180.101 26 178.444 25.8438 176.882 25.8438C174.319 25.8438 172.507 26.3906 171.444 27.4844C170.382 28.5781 169.851 30.625 169.851 33.625V38.2188H179.554V44.7812H169.851V88H161.46ZM180.309 88V38.2188H187.903V45.7656C189.841 42.2344 191.622 39.9062 193.247 38.7812C194.903 37.6562 196.716 37.0938 198.684 37.0938C201.528 37.0938 204.419 38 207.356 39.8125L204.45 47.6406C202.387 46.4219 200.325 45.8125 198.262 45.8125C196.419 45.8125 194.762 46.375 193.294 47.5C191.825 48.5938 190.778 50.125 190.153 52.0938C189.216 55.0938 188.747 58.375 188.747 61.9375V88H180.309ZM239.096 81.8594C235.971 84.5156 232.956 86.3906 230.049 87.4844C227.174 88.5781 224.081 89.125 220.768 89.125C215.299 89.125 211.096 87.7969 208.159 85.1406C205.221 82.4531 203.753 79.0312 203.753 74.875C203.753 72.4375 204.299 70.2188 205.393 68.2188C206.518 66.1875 207.971 64.5625 209.753 63.3438C211.565 62.125 213.596 61.2031 215.846 60.5781C217.503 60.1406 220.003 59.7188 223.346 59.3125C230.159 58.5 235.174 57.5312 238.393 56.4062C238.424 55.25 238.44 54.5156 238.44 54.2031C238.44 50.7656 237.643 48.3438 236.049 46.9375C233.893 45.0312 230.69 44.0781 226.44 44.0781C222.471 44.0781 219.534 44.7812 217.628 46.1875C215.753 47.5625 214.362 50.0156 213.456 53.5469L205.206 52.4219C205.956 48.8906 207.19 46.0469 208.909 43.8906C210.628 41.7031 213.112 40.0312 216.362 38.875C219.612 37.6875 223.378 37.0938 227.659 37.0938C231.909 37.0938 235.362 37.5938 238.018 38.5938C240.674 39.5938 242.628 40.8594 243.878 42.3906C245.128 43.8906 246.003 45.7969 246.503 48.1094C246.784 49.5469 246.924 52.1406 246.924 55.8906V67.1406C246.924 74.9844 247.096 79.9531 247.44 82.0469C247.815 84.1094 248.534 86.0938 249.596 88H240.784C239.909 86.25 239.346 84.2031 239.096 81.8594ZM238.393 63.0156C235.331 64.2656 230.737 65.3281 224.612 66.2031C221.143 66.7031 218.69 67.2656 217.253 67.8906C215.815 68.5156 214.706 69.4375 213.924 70.6562C213.143 71.8438 212.753 73.1719 212.753 74.6406C212.753 76.8906 213.596 78.7656 215.284 80.2656C217.003 81.7656 219.503 82.5156 222.784 82.5156C226.034 82.5156 228.924 81.8125 231.456 80.4062C233.987 78.9688 235.846 77.0156 237.034 74.5469C237.94 72.6406 238.393 69.8281 238.393 66.1094V63.0156ZM254.289 88V38.2188H261.836V45.2031C263.399 42.7656 265.477 40.8125 268.071 39.3438C270.664 37.8438 273.617 37.0938 276.93 37.0938C280.617 37.0938 283.633 37.8594 285.977 39.3906C288.352 40.9219 290.024 43.0625 290.992 45.8125C294.93 40 300.055 37.0938 306.367 37.0938C311.305 37.0938 315.102 38.4688 317.758 41.2188C320.414 43.9375 321.742 48.1406 321.742 53.8281V88H313.352V56.6406C313.352 53.2656 313.071 50.8438 312.508 49.375C311.977 47.875 310.992 46.6719 309.555 45.7656C308.117 44.8594 306.43 44.4062 304.492 44.4062C300.992 44.4062 298.086 45.5781 295.774 47.9219C293.461 50.2344 292.305 53.9531 292.305 59.0781V88H283.867V55.6562C283.867 51.9062 283.18 49.0938 281.805 47.2188C280.43 45.3438 278.18 44.4062 275.055 44.4062C272.68 44.4062 270.477 45.0312 268.446 46.2812C266.446 47.5312 264.992 49.3594 264.086 51.7656C263.18 54.1719 262.727 57.6406 262.727 62.1719V88H254.289ZM362.576 71.9688L371.295 73.0469C369.92 78.1406 367.373 82.0938 363.654 84.9062C359.936 87.7188 355.186 89.125 349.404 89.125C342.123 89.125 336.342 86.8906 332.061 82.4219C327.811 77.9219 325.686 71.625 325.686 63.5312C325.686 55.1562 327.842 48.6562 332.154 44.0312C336.467 39.4062 342.061 37.0938 348.936 37.0938C355.592 37.0938 361.029 39.3594 365.248 43.8906C369.467 48.4219 371.576 54.7969 371.576 63.0156C371.576 63.5156 371.561 64.2656 371.529 65.2656H334.404C334.717 70.7344 336.264 74.9219 339.045 77.8281C341.826 80.7344 345.295 82.1875 349.451 82.1875C352.545 82.1875 355.186 81.375 357.373 79.75C359.561 78.125 361.295 75.5312 362.576 71.9688ZM334.873 58.3281H362.67C362.295 54.1406 361.232 51 359.482 48.9062C356.795 45.6562 353.311 44.0312 349.029 44.0312C345.154 44.0312 341.889 45.3281 339.232 47.9219C336.607 50.5156 335.154 53.9844 334.873 58.3281Z" fill="#202020"/>
</svg>
